M48
;DRILL file {KiCad (2016-03-18 BZR 6629)-product} date Fr 15 Apr 2016 01:18:18 CEST
;FORMAT={2:4/ absolute / inch / suppress leading zeros}
FMAT,2
INCH,TZ
T1C0.012
T2C0.020
T3C0.032
T4C0.039
T5C0.040
T6C0.047
%
G90
G05
M72
T1
X47717Y-40197
X47740Y-42193
X48976Y-47490
X49173Y-46270
X49252Y-47490
X49409Y-46270
X49606Y-42323
X49646Y-46427
X49685Y-47539
X50000Y-46270
X50002Y-42637
X50197Y-41732
X50394Y-47372
X50433Y-45640
X50906Y-40551
X50945Y-44419
X51083Y-42638
X51875Y-44293
X51890Y-40551
X52389Y-46833
X53239Y-41149
X53530Y-41931
X53907Y-40619
X53937Y-40984
X53990Y-42368
X54213Y-41969
X54219Y-41169
X54237Y-40824
X54528Y-44291
X54640Y-42685
X54823Y-44882
X55596Y-44464
X56024Y-40236
X56164Y-46771
X56263Y-45986
X56435Y-45462
X56614Y-38465
X57111Y-41498
X57192Y-45598
X57283Y-40630
X57434Y-47193
X57441Y-41535
X57521Y-44890
X57559Y-44331
X57638Y-38940
X57776Y-40650
X57874Y-45421
X58307Y-39370
X58313Y-45579
X58740Y-38268
X58740Y-45315
X59016Y-42165
X59079Y-41193
X59094Y-40197
X59685Y-39567
X60669Y-39409
X60669Y-40433
X61063Y-41772
X62520Y-42520
T2
X46850Y-44587
X46949Y-46555
T3
X60839Y-44010
X60839Y-45010
X60839Y-46010
X60839Y-47010
X60839Y-48010
X61839Y-44510
X61839Y-45510
X61839Y-46510
X61839Y-47510
X61839Y-48510
T4
X63661Y-44567
X63661Y-47559
T5
X49606Y-38898
X50606Y-38898
X52283Y-38898
X52850Y-47441
X53283Y-38898
X53850Y-47441
X54283Y-38898
X54850Y-47441
X55283Y-38898
X55850Y-47441
X56850Y-47441
T6
X45374Y-45465
X45374Y-46465
T0
M30
