G04 #@! TF.FileFunction,Legend,Bot*
%FSLAX46Y46*%
G04 Gerber Fmt 4.6, Leading zero omitted, Abs format (unit mm)*
G04 Created by KiCad (PCBNEW (2016-03-18 BZR 6629)-product) date Fr 15 Apr 2016 01:16:20 CEST*
%MOMM*%
G01*
G04 APERTURE LIST*
%ADD10C,0.100000*%
%ADD11C,0.150000*%
%ADD12O,3.800120X2.100860*%
%ADD13O,3.800000X1.900000*%
%ADD14R,2.027200X2.332000*%
%ADD15O,2.027200X2.332000*%
%ADD16C,2.300000*%
%ADD17C,1.450000*%
%ADD18R,2.332000X2.332000*%
%ADD19O,2.332000X2.332000*%
%ADD20C,1.750000*%
%ADD21C,1.900000*%
%ADD22R,4.872000X2.713000*%
%ADD23R,4.371620X2.500000*%
G04 APERTURE END LIST*
D10*
D11*
X150060000Y-123680000D02*
X121260000Y-123680000D01*
X121260000Y-123680000D02*
X121260000Y-100820000D01*
X121260000Y-100820000D02*
X150060000Y-100820000D01*
X150060000Y-100820000D02*
X150060000Y-123680000D01*
X130911905Y-104082381D02*
X130911905Y-104891905D01*
X130864286Y-104987143D01*
X130816667Y-105034762D01*
X130721429Y-105082381D01*
X130530952Y-105082381D01*
X130435714Y-105034762D01*
X130388095Y-104987143D01*
X130340476Y-104891905D01*
X130340476Y-104082381D01*
X129911905Y-104177619D02*
X129864286Y-104130000D01*
X129769048Y-104082381D01*
X129530952Y-104082381D01*
X129435714Y-104130000D01*
X129388095Y-104177619D01*
X129340476Y-104272857D01*
X129340476Y-104368095D01*
X129388095Y-104510952D01*
X129959524Y-105082381D01*
X129340476Y-105082381D01*
X143039524Y-119322381D02*
X143515715Y-119322381D01*
X143563334Y-119798571D01*
X143515715Y-119750952D01*
X143420477Y-119703333D01*
X143182381Y-119703333D01*
X143087143Y-119750952D01*
X143039524Y-119798571D01*
X142991905Y-119893810D01*
X142991905Y-120131905D01*
X143039524Y-120227143D01*
X143087143Y-120274762D01*
X143182381Y-120322381D01*
X143420477Y-120322381D01*
X143515715Y-120274762D01*
X143563334Y-120227143D01*
X142515715Y-120274762D02*
X142515715Y-120322381D01*
X142563334Y-120417619D01*
X142610953Y-120465238D01*
X141944287Y-119750952D02*
X142039525Y-119703333D01*
X142087144Y-119655714D01*
X142134763Y-119560476D01*
X142134763Y-119512857D01*
X142087144Y-119417619D01*
X142039525Y-119370000D01*
X141944287Y-119322381D01*
X141753810Y-119322381D01*
X141658572Y-119370000D01*
X141610953Y-119417619D01*
X141563334Y-119512857D01*
X141563334Y-119560476D01*
X141610953Y-119655714D01*
X141658572Y-119703333D01*
X141753810Y-119750952D01*
X141944287Y-119750952D01*
X142039525Y-119798571D01*
X142087144Y-119846190D01*
X142134763Y-119941429D01*
X142134763Y-120131905D01*
X142087144Y-120227143D01*
X142039525Y-120274762D01*
X141944287Y-120322381D01*
X141753810Y-120322381D01*
X141658572Y-120274762D01*
X141610953Y-120227143D01*
X141563334Y-120131905D01*
X141563334Y-119941429D01*
X141610953Y-119846190D01*
X141658572Y-119798571D01*
X141753810Y-119750952D01*
X140610953Y-119370000D02*
X140706191Y-119322381D01*
X140849048Y-119322381D01*
X140991906Y-119370000D01*
X141087144Y-119465238D01*
X141134763Y-119560476D01*
X141182382Y-119750952D01*
X141182382Y-119893810D01*
X141134763Y-120084286D01*
X141087144Y-120179524D01*
X140991906Y-120274762D01*
X140849048Y-120322381D01*
X140753810Y-120322381D01*
X140610953Y-120274762D01*
X140563334Y-120227143D01*
X140563334Y-119893810D01*
X140753810Y-119893810D01*
X140134763Y-120322381D02*
X140134763Y-119322381D01*
X140134763Y-119798571D02*
X139563334Y-119798571D01*
X139563334Y-120322381D02*
X139563334Y-119322381D01*
X139182382Y-119655714D02*
X138658572Y-119655714D01*
X139182382Y-120322381D01*
X138658572Y-120322381D01*
X137658572Y-119322381D02*
X137325239Y-120322381D01*
X136991905Y-119322381D01*
X136658572Y-120322381D02*
X136658572Y-119655714D01*
X136658572Y-119322381D02*
X136706191Y-119370000D01*
X136658572Y-119417619D01*
X136610953Y-119370000D01*
X136658572Y-119322381D01*
X136658572Y-119417619D01*
X135753810Y-120322381D02*
X135753810Y-119322381D01*
X135753810Y-120274762D02*
X135849048Y-120322381D01*
X136039525Y-120322381D01*
X136134763Y-120274762D01*
X136182382Y-120227143D01*
X136230001Y-120131905D01*
X136230001Y-119846190D01*
X136182382Y-119750952D01*
X136134763Y-119703333D01*
X136039525Y-119655714D01*
X135849048Y-119655714D01*
X135753810Y-119703333D01*
X134896667Y-120274762D02*
X134991905Y-120322381D01*
X135182382Y-120322381D01*
X135277620Y-120274762D01*
X135325239Y-120179524D01*
X135325239Y-119798571D01*
X135277620Y-119703333D01*
X135182382Y-119655714D01*
X134991905Y-119655714D01*
X134896667Y-119703333D01*
X134849048Y-119798571D01*
X134849048Y-119893810D01*
X135325239Y-119989048D01*
X134277620Y-120322381D02*
X134372858Y-120274762D01*
X134420477Y-120227143D01*
X134468096Y-120131905D01*
X134468096Y-119846190D01*
X134420477Y-119750952D01*
X134372858Y-119703333D01*
X134277620Y-119655714D01*
X134134762Y-119655714D01*
X134039524Y-119703333D01*
X133991905Y-119750952D01*
X133944286Y-119846190D01*
X133944286Y-120131905D01*
X133991905Y-120227143D01*
X134039524Y-120274762D01*
X134134762Y-120322381D01*
X134277620Y-120322381D01*
X132182381Y-120322381D02*
X132515715Y-119846190D01*
X132753810Y-120322381D02*
X132753810Y-119322381D01*
X132372857Y-119322381D01*
X132277619Y-119370000D01*
X132230000Y-119417619D01*
X132182381Y-119512857D01*
X132182381Y-119655714D01*
X132230000Y-119750952D01*
X132277619Y-119798571D01*
X132372857Y-119846190D01*
X132753810Y-119846190D01*
X131372857Y-120274762D02*
X131468095Y-120322381D01*
X131658572Y-120322381D01*
X131753810Y-120274762D01*
X131801429Y-120179524D01*
X131801429Y-119798571D01*
X131753810Y-119703333D01*
X131658572Y-119655714D01*
X131468095Y-119655714D01*
X131372857Y-119703333D01*
X131325238Y-119798571D01*
X131325238Y-119893810D01*
X131801429Y-119989048D01*
X130468095Y-120274762D02*
X130563333Y-120322381D01*
X130753810Y-120322381D01*
X130849048Y-120274762D01*
X130896667Y-120227143D01*
X130944286Y-120131905D01*
X130944286Y-119846190D01*
X130896667Y-119750952D01*
X130849048Y-119703333D01*
X130753810Y-119655714D01*
X130563333Y-119655714D01*
X130468095Y-119703333D01*
X129658571Y-120274762D02*
X129753809Y-120322381D01*
X129944286Y-120322381D01*
X130039524Y-120274762D01*
X130087143Y-120179524D01*
X130087143Y-119798571D01*
X130039524Y-119703333D01*
X129944286Y-119655714D01*
X129753809Y-119655714D01*
X129658571Y-119703333D01*
X129610952Y-119798571D01*
X129610952Y-119893810D01*
X130087143Y-119989048D01*
X129182381Y-120322381D02*
X129182381Y-119655714D01*
X129182381Y-119322381D02*
X129230000Y-119370000D01*
X129182381Y-119417619D01*
X129134762Y-119370000D01*
X129182381Y-119322381D01*
X129182381Y-119417619D01*
X128801429Y-119655714D02*
X128563334Y-120322381D01*
X128325238Y-119655714D01*
X127563333Y-120274762D02*
X127658571Y-120322381D01*
X127849048Y-120322381D01*
X127944286Y-120274762D01*
X127991905Y-120179524D01*
X127991905Y-119798571D01*
X127944286Y-119703333D01*
X127849048Y-119655714D01*
X127658571Y-119655714D01*
X127563333Y-119703333D01*
X127515714Y-119798571D01*
X127515714Y-119893810D01*
X127991905Y-119989048D01*
X127087143Y-120322381D02*
X127087143Y-119655714D01*
X127087143Y-119846190D02*
X127039524Y-119750952D01*
X126991905Y-119703333D01*
X126896667Y-119655714D01*
X126801428Y-119655714D01*
%LPC*%
D12*
X115250000Y-118020000D03*
X115250000Y-115480000D03*
D13*
X121260000Y-107170000D03*
X121260000Y-104630000D03*
X121260000Y-102090000D03*
X150060000Y-102090000D03*
X150060000Y-104630000D03*
X150060000Y-107170000D03*
X150060000Y-109710000D03*
X150060000Y-112250000D03*
X150060000Y-114790000D03*
X150060000Y-117330000D03*
X150060000Y-119870000D03*
X150060000Y-122410000D03*
D14*
X144400000Y-120500000D03*
D15*
X141860000Y-120500000D03*
X139320000Y-120500000D03*
X136780000Y-120500000D03*
X134240000Y-120500000D03*
D14*
X132800000Y-98800000D03*
D15*
X135340000Y-98800000D03*
X137880000Y-98800000D03*
X140420000Y-98800000D03*
D16*
X161700000Y-113200160D03*
X161700000Y-120799840D03*
D17*
X158900000Y-105100000D03*
X158900000Y-100100000D03*
D18*
X126000000Y-98800000D03*
D19*
X128540000Y-98800000D03*
D20*
X154530000Y-111785000D03*
X157070000Y-113055000D03*
X154530000Y-114325000D03*
X157070000Y-115595000D03*
X154530000Y-116865000D03*
X157070000Y-118135000D03*
X154530000Y-119405000D03*
X157070000Y-120675000D03*
X154530000Y-121945000D03*
X157070000Y-123215000D03*
D21*
X156330000Y-110385000D03*
D22*
X115600000Y-108100000D03*
D10*
G36*
X113958190Y-102580510D02*
X113958190Y-104879490D01*
X113157810Y-104280050D01*
X113157810Y-103179950D01*
X113958190Y-102580510D01*
X113958190Y-102580510D01*
G37*
D22*
X115600000Y-99300000D03*
D23*
X115844000Y-103730000D03*
M02*
