G04 #@! TF.FileFunction,Legend,Top*
%FSLAX46Y46*%
G04 Gerber Fmt 4.6, Leading zero omitted, Abs format (unit mm)*
G04 Created by KiCad (PCBNEW (2016-03-18 BZR 6629)-product) date Fr 15 Apr 2016 01:16:20 CEST*
%MOMM*%
G01*
G04 APERTURE LIST*
%ADD10C,0.100000*%
%ADD11C,0.300000*%
%ADD12C,0.200000*%
%ADD13C,0.150000*%
%ADD14C,0.203200*%
%ADD15C,0.101600*%
%ADD16C,0.381000*%
%ADD17C,0.304800*%
%ADD18O,3.800120X2.100860*%
%ADD19R,1.050000X1.100000*%
%ADD20R,1.900000X1.300000*%
%ADD21R,1.100000X1.050000*%
%ADD22R,1.300000X1.900000*%
%ADD23R,1.200000X0.800000*%
%ADD24R,0.800000X0.600000*%
%ADD25R,1.100000X1.180000*%
%ADD26R,0.800000X1.200000*%
%ADD27R,1.097560X1.097560*%
%ADD28R,0.850000X1.900000*%
%ADD29R,1.900000X0.850000*%
%ADD30R,2.027200X2.332000*%
%ADD31O,2.027200X2.332000*%
%ADD32C,2.300000*%
%ADD33R,0.698780X1.049300*%
%ADD34R,2.300000X0.600000*%
%ADD35R,2.799360X2.601240*%
%ADD36R,2.799360X2.100860*%
%ADD37R,1.897660X2.100860*%
%ADD38R,2.100000X2.200000*%
%ADD39C,1.450000*%
%ADD40R,2.332000X2.332000*%
%ADD41O,2.332000X2.332000*%
%ADD42R,3.000000X1.100000*%
%ADD43C,1.750000*%
%ADD44C,1.900000*%
%ADD45R,4.872000X2.713000*%
G04 APERTURE END LIST*
D10*
D11*
X119378571Y-117728571D02*
X119378571Y-118585714D01*
X119378571Y-118157142D02*
X117878571Y-118157142D01*
X118092857Y-118299999D01*
X118235714Y-118442857D01*
X118307143Y-118585714D01*
X118021429Y-117157143D02*
X117950000Y-117085714D01*
X117878571Y-116942857D01*
X117878571Y-116585714D01*
X117950000Y-116442857D01*
X118021429Y-116371428D01*
X118164286Y-116300000D01*
X118307143Y-116300000D01*
X118521429Y-116371428D01*
X119378571Y-117228571D01*
X119378571Y-116300000D01*
X117878571Y-115871429D02*
X119378571Y-115371429D01*
X117878571Y-114871429D01*
X101292857Y-111050000D02*
X102007143Y-111050000D01*
X101150000Y-111478571D02*
X101650000Y-109978571D01*
X102150000Y-111478571D01*
X102650000Y-110478571D02*
X102650000Y-111478571D01*
X102650000Y-110621429D02*
X102721428Y-110550000D01*
X102864286Y-110478571D01*
X103078571Y-110478571D01*
X103221428Y-110550000D01*
X103292857Y-110692857D01*
X103292857Y-111478571D01*
X103792857Y-110478571D02*
X104364286Y-110478571D01*
X104007143Y-109978571D02*
X104007143Y-111264286D01*
X104078571Y-111407143D01*
X104221429Y-111478571D01*
X104364286Y-111478571D01*
X105435714Y-111407143D02*
X105292857Y-111478571D01*
X105007143Y-111478571D01*
X104864286Y-111407143D01*
X104792857Y-111264286D01*
X104792857Y-110692857D01*
X104864286Y-110550000D01*
X105007143Y-110478571D01*
X105292857Y-110478571D01*
X105435714Y-110550000D01*
X105507143Y-110692857D01*
X105507143Y-110835714D01*
X104792857Y-110978571D01*
X106150000Y-110478571D02*
X106150000Y-111478571D01*
X106150000Y-110621429D02*
X106221428Y-110550000D01*
X106364286Y-110478571D01*
X106578571Y-110478571D01*
X106721428Y-110550000D01*
X106792857Y-110692857D01*
X106792857Y-111478571D01*
X107507143Y-110478571D02*
X107507143Y-111478571D01*
X107507143Y-110621429D02*
X107578571Y-110550000D01*
X107721429Y-110478571D01*
X107935714Y-110478571D01*
X108078571Y-110550000D01*
X108150000Y-110692857D01*
X108150000Y-111478571D01*
X109435714Y-111407143D02*
X109292857Y-111478571D01*
X109007143Y-111478571D01*
X108864286Y-111407143D01*
X108792857Y-111264286D01*
X108792857Y-110692857D01*
X108864286Y-110550000D01*
X109007143Y-110478571D01*
X109292857Y-110478571D01*
X109435714Y-110550000D01*
X109507143Y-110692857D01*
X109507143Y-110835714D01*
X108792857Y-110978571D01*
X150792857Y-122214284D02*
X150792857Y-122714284D01*
X151578571Y-122714284D02*
X150078571Y-122714284D01*
X150078571Y-121999998D01*
X151578571Y-121428570D02*
X150078571Y-121428570D01*
X150078571Y-120857142D01*
X150150000Y-120714284D01*
X150221429Y-120642856D01*
X150364286Y-120571427D01*
X150578571Y-120571427D01*
X150721429Y-120642856D01*
X150792857Y-120714284D01*
X150864286Y-120857142D01*
X150864286Y-121428570D01*
X150078571Y-120142856D02*
X151578571Y-119642856D01*
X150078571Y-119142856D01*
X151007143Y-118642856D02*
X151007143Y-117499999D01*
X151578571Y-115928570D02*
X150864286Y-116428570D01*
X151578571Y-116785713D02*
X150078571Y-116785713D01*
X150078571Y-116214285D01*
X150150000Y-116071427D01*
X150221429Y-115999999D01*
X150364286Y-115928570D01*
X150578571Y-115928570D01*
X150721429Y-115999999D01*
X150792857Y-116071427D01*
X150864286Y-116214285D01*
X150864286Y-116785713D01*
X150078571Y-115428570D02*
X151578571Y-114428570D01*
X150078571Y-114428570D02*
X151578571Y-115428570D01*
X150078571Y-113142856D02*
X150078571Y-113857142D01*
X150792857Y-113928571D01*
X150721429Y-113857142D01*
X150650000Y-113714285D01*
X150650000Y-113357142D01*
X150721429Y-113214285D01*
X150792857Y-113142856D01*
X150935714Y-113071428D01*
X151292857Y-113071428D01*
X151435714Y-113142856D01*
X151507143Y-113214285D01*
X151578571Y-113357142D01*
X151578571Y-113714285D01*
X151507143Y-113857142D01*
X151435714Y-113928571D01*
X150721429Y-112214285D02*
X150650000Y-112357143D01*
X150578571Y-112428571D01*
X150435714Y-112500000D01*
X150364286Y-112500000D01*
X150221429Y-112428571D01*
X150150000Y-112357143D01*
X150078571Y-112214285D01*
X150078571Y-111928571D01*
X150150000Y-111785714D01*
X150221429Y-111714285D01*
X150364286Y-111642857D01*
X150435714Y-111642857D01*
X150578571Y-111714285D01*
X150650000Y-111785714D01*
X150721429Y-111928571D01*
X150721429Y-112214285D01*
X150792857Y-112357143D01*
X150864286Y-112428571D01*
X151007143Y-112500000D01*
X151292857Y-112500000D01*
X151435714Y-112428571D01*
X151507143Y-112357143D01*
X151578571Y-112214285D01*
X151578571Y-111928571D01*
X151507143Y-111785714D01*
X151435714Y-111714285D01*
X151292857Y-111642857D01*
X151007143Y-111642857D01*
X150864286Y-111714285D01*
X150792857Y-111785714D01*
X150721429Y-111928571D01*
X150221429Y-111071429D02*
X150150000Y-111000000D01*
X150078571Y-110857143D01*
X150078571Y-110500000D01*
X150150000Y-110357143D01*
X150221429Y-110285714D01*
X150364286Y-110214286D01*
X150507143Y-110214286D01*
X150721429Y-110285714D01*
X151578571Y-111142857D01*
X151578571Y-110214286D01*
X150078571Y-109714286D02*
X150078571Y-108785715D01*
X150650000Y-109285715D01*
X150650000Y-109071429D01*
X150721429Y-108928572D01*
X150792857Y-108857143D01*
X150935714Y-108785715D01*
X151292857Y-108785715D01*
X151435714Y-108857143D01*
X151507143Y-108928572D01*
X151578571Y-109071429D01*
X151578571Y-109500001D01*
X151507143Y-109642858D01*
X151435714Y-109714286D01*
X151578571Y-106214287D02*
X151578571Y-107071430D01*
X151578571Y-106642858D02*
X150078571Y-106642858D01*
X150292857Y-106785715D01*
X150435714Y-106928573D01*
X150507143Y-107071430D01*
X150007143Y-104500002D02*
X151935714Y-105785716D01*
X150221429Y-104071430D02*
X150150000Y-104000001D01*
X150078571Y-103857144D01*
X150078571Y-103500001D01*
X150150000Y-103357144D01*
X150221429Y-103285715D01*
X150364286Y-103214287D01*
X150507143Y-103214287D01*
X150721429Y-103285715D01*
X151578571Y-104142858D01*
X151578571Y-103214287D01*
D12*
X135885715Y-106042857D02*
X135885715Y-105242857D01*
X135885715Y-105357143D02*
X135942858Y-105300000D01*
X136057144Y-105242857D01*
X136228572Y-105242857D01*
X136342858Y-105300000D01*
X136400001Y-105414286D01*
X136400001Y-106042857D01*
X136400001Y-105414286D02*
X136457144Y-105300000D01*
X136571430Y-105242857D01*
X136742858Y-105242857D01*
X136857144Y-105300000D01*
X136914287Y-105414286D01*
X136914287Y-106042857D01*
X137942858Y-105985714D02*
X137828572Y-106042857D01*
X137600001Y-106042857D01*
X137485715Y-105985714D01*
X137428572Y-105871429D01*
X137428572Y-105414286D01*
X137485715Y-105300000D01*
X137600001Y-105242857D01*
X137828572Y-105242857D01*
X137942858Y-105300000D01*
X138000001Y-105414286D01*
X138000001Y-105528571D01*
X137428572Y-105642857D01*
X139028572Y-105242857D02*
X139028572Y-106214286D01*
X138971429Y-106328571D01*
X138914286Y-106385714D01*
X138800001Y-106442857D01*
X138628572Y-106442857D01*
X138514286Y-106385714D01*
X139028572Y-105985714D02*
X138914286Y-106042857D01*
X138685715Y-106042857D01*
X138571429Y-105985714D01*
X138514286Y-105928571D01*
X138457143Y-105814286D01*
X138457143Y-105471429D01*
X138514286Y-105357143D01*
X138571429Y-105300000D01*
X138685715Y-105242857D01*
X138914286Y-105242857D01*
X139028572Y-105300000D01*
X140114286Y-106042857D02*
X140114286Y-105414286D01*
X140057143Y-105300000D01*
X139942857Y-105242857D01*
X139714286Y-105242857D01*
X139600000Y-105300000D01*
X140114286Y-105985714D02*
X140000000Y-106042857D01*
X139714286Y-106042857D01*
X139600000Y-105985714D01*
X139542857Y-105871429D01*
X139542857Y-105757143D01*
X139600000Y-105642857D01*
X139714286Y-105585714D01*
X140000000Y-105585714D01*
X140114286Y-105528571D01*
X135257144Y-106842857D02*
X136000001Y-106842857D01*
X135600001Y-107300000D01*
X135771429Y-107300000D01*
X135885715Y-107357143D01*
X135942858Y-107414286D01*
X136000001Y-107528571D01*
X136000001Y-107814286D01*
X135942858Y-107928571D01*
X135885715Y-107985714D01*
X135771429Y-108042857D01*
X135428572Y-108042857D01*
X135314286Y-107985714D01*
X135257144Y-107928571D01*
X136457143Y-106957143D02*
X136514286Y-106900000D01*
X136628572Y-106842857D01*
X136914286Y-106842857D01*
X137028572Y-106900000D01*
X137085715Y-106957143D01*
X137142858Y-107071429D01*
X137142858Y-107185714D01*
X137085715Y-107357143D01*
X136400001Y-108042857D01*
X137142858Y-108042857D01*
X137828572Y-107357143D02*
X137714286Y-107300000D01*
X137657143Y-107242857D01*
X137600000Y-107128571D01*
X137600000Y-107071429D01*
X137657143Y-106957143D01*
X137714286Y-106900000D01*
X137828572Y-106842857D01*
X138057143Y-106842857D01*
X138171429Y-106900000D01*
X138228572Y-106957143D01*
X138285715Y-107071429D01*
X138285715Y-107128571D01*
X138228572Y-107242857D01*
X138171429Y-107300000D01*
X138057143Y-107357143D01*
X137828572Y-107357143D01*
X137714286Y-107414286D01*
X137657143Y-107471429D01*
X137600000Y-107585714D01*
X137600000Y-107814286D01*
X137657143Y-107928571D01*
X137714286Y-107985714D01*
X137828572Y-108042857D01*
X138057143Y-108042857D01*
X138171429Y-107985714D01*
X138228572Y-107928571D01*
X138285715Y-107814286D01*
X138285715Y-107585714D01*
X138228572Y-107471429D01*
X138171429Y-107414286D01*
X138057143Y-107357143D01*
X138800000Y-108042857D02*
X138800000Y-106842857D01*
X139257143Y-106842857D01*
X139371429Y-106900000D01*
X139428572Y-106957143D01*
X139485715Y-107071429D01*
X139485715Y-107242857D01*
X139428572Y-107357143D01*
X139371429Y-107414286D01*
X139257143Y-107471429D01*
X138800000Y-107471429D01*
X140400000Y-107414286D02*
X140571429Y-107471429D01*
X140628572Y-107528571D01*
X140685715Y-107642857D01*
X140685715Y-107814286D01*
X140628572Y-107928571D01*
X140571429Y-107985714D01*
X140457143Y-108042857D01*
X140000000Y-108042857D01*
X140000000Y-106842857D01*
X140400000Y-106842857D01*
X140514286Y-106900000D01*
X140571429Y-106957143D01*
X140628572Y-107071429D01*
X140628572Y-107185714D01*
X140571429Y-107300000D01*
X140514286Y-107357143D01*
X140400000Y-107414286D01*
X140000000Y-107414286D01*
X135660555Y-108700000D02*
G75*
G03X135660555Y-108700000I-360555J0D01*
G01*
X122800000Y-119350000D02*
X122800000Y-120650000D01*
X122800000Y-120350000D02*
X122800000Y-119350000D01*
X125500000Y-120350000D02*
X122800000Y-120350000D01*
D13*
X112710000Y-119290000D02*
X112710000Y-114210000D01*
X112710000Y-114210000D02*
X113345000Y-114210000D01*
X112710000Y-119290000D02*
X113345000Y-119290000D01*
X112710000Y-119290000D02*
X112075000Y-119290000D01*
X112075000Y-119290000D02*
X112075000Y-114210000D01*
X112075000Y-114210000D02*
X112710000Y-114210000D01*
X123100000Y-118675000D02*
X123100000Y-117975000D01*
X124300000Y-117975000D02*
X124300000Y-118675000D01*
X120775000Y-115725000D02*
X120775000Y-117725000D01*
X122825000Y-117725000D02*
X122825000Y-115725000D01*
X126550000Y-116925000D02*
X125850000Y-116925000D01*
X125850000Y-115725000D02*
X126550000Y-115725000D01*
X125400000Y-114250000D02*
X127400000Y-114250000D01*
X127400000Y-112200000D02*
X125400000Y-112200000D01*
X131275000Y-111625000D02*
X131275000Y-112625000D01*
X129925000Y-112625000D02*
X129925000Y-111625000D01*
X127725000Y-122525000D02*
X127725000Y-121525000D01*
X129075000Y-121525000D02*
X129075000Y-122525000D01*
X125450000Y-120375000D02*
X126750000Y-120375000D01*
X124875000Y-118075000D02*
X126750000Y-118075000D01*
X126550000Y-115625000D02*
X125850000Y-115625000D01*
X125850000Y-114425000D02*
X126550000Y-114425000D01*
X122675000Y-110525000D02*
X122675000Y-111525000D01*
X121325000Y-111525000D02*
X121325000Y-110525000D01*
X125800000Y-122475000D02*
X126800000Y-122475000D01*
X126800000Y-123825000D02*
X125800000Y-123825000D01*
X125800000Y-120975000D02*
X126800000Y-120975000D01*
X126800000Y-122325000D02*
X125800000Y-122325000D01*
X142950000Y-99100000D02*
X143650000Y-99100000D01*
X143650000Y-100300000D02*
X142950000Y-100300000D01*
X138350000Y-112900000D02*
X138350000Y-113600000D01*
X137150000Y-113600000D02*
X137150000Y-112900000D01*
X139850000Y-112900000D02*
X139850000Y-113600000D01*
X138650000Y-113600000D02*
X138650000Y-112900000D01*
X144350000Y-100900000D02*
X145050000Y-100900000D01*
X145050000Y-102100000D02*
X144350000Y-102100000D01*
X143900000Y-98725000D02*
X145900000Y-98725000D01*
X145900000Y-96675000D02*
X143900000Y-96675000D01*
X130850000Y-105600000D02*
X130150000Y-105600000D01*
X130150000Y-104400000D02*
X130850000Y-104400000D01*
X137300000Y-117125000D02*
X139300000Y-117125000D01*
X139300000Y-115075000D02*
X137300000Y-115075000D01*
X145000000Y-113850000D02*
X145000000Y-113150000D01*
X146200000Y-113150000D02*
X146200000Y-113850000D01*
X149650000Y-96700000D02*
X149650000Y-98600000D01*
X150750000Y-96700000D02*
X150750000Y-98600000D01*
X150200000Y-97600000D02*
X150200000Y-98050000D01*
X150450000Y-97550000D02*
X149950000Y-97550000D01*
X150200000Y-97550000D02*
X150450000Y-97800000D01*
X150450000Y-97800000D02*
X149950000Y-97800000D01*
X149950000Y-97800000D02*
X150200000Y-97550000D01*
X151950000Y-96700000D02*
X151950000Y-98600000D01*
X153050000Y-96700000D02*
X153050000Y-98600000D01*
X152500000Y-97600000D02*
X152500000Y-98050000D01*
X152750000Y-97550000D02*
X152250000Y-97550000D01*
X152500000Y-97550000D02*
X152750000Y-97800000D01*
X152750000Y-97800000D02*
X152250000Y-97800000D01*
X152250000Y-97800000D02*
X152500000Y-97550000D01*
X134375000Y-109625000D02*
X134700000Y-109625000D01*
X134375000Y-102375000D02*
X134700000Y-102375000D01*
X141625000Y-102375000D02*
X141300000Y-102375000D01*
X141625000Y-109625000D02*
X141300000Y-109625000D01*
X134375000Y-109625000D02*
X134375000Y-109300000D01*
X141625000Y-109625000D02*
X141625000Y-109300000D01*
X141625000Y-102375000D02*
X141625000Y-102700000D01*
X134375000Y-102375000D02*
X134375000Y-102700000D01*
X134700000Y-109625000D02*
X134700000Y-111050000D01*
X145950000Y-119200000D02*
X144400000Y-119200000D01*
X145950000Y-120500000D02*
X145950000Y-119200000D01*
X144527000Y-124691000D02*
X144527000Y-130533000D01*
X144527000Y-130533000D02*
X144273000Y-130533000D01*
X144273000Y-130533000D02*
X144273000Y-124691000D01*
X144273000Y-124691000D02*
X144400000Y-124691000D01*
X144400000Y-124691000D02*
X144400000Y-130533000D01*
X144654000Y-122024000D02*
X144654000Y-121643000D01*
X144146000Y-122024000D02*
X144146000Y-121643000D01*
X142114000Y-122024000D02*
X142114000Y-121643000D01*
X141606000Y-122024000D02*
X141606000Y-121643000D01*
X139574000Y-122024000D02*
X139574000Y-121643000D01*
X139066000Y-122024000D02*
X139066000Y-121643000D01*
X137034000Y-122024000D02*
X137034000Y-121643000D01*
X136526000Y-122024000D02*
X136526000Y-121643000D01*
X133986000Y-122024000D02*
X133986000Y-121643000D01*
X134494000Y-122024000D02*
X134494000Y-121643000D01*
X143130000Y-124564000D02*
X145670000Y-124564000D01*
X144146000Y-130660000D02*
X144146000Y-124564000D01*
X144654000Y-130660000D02*
X144146000Y-130660000D01*
X144654000Y-124564000D02*
X144654000Y-130660000D01*
X143130000Y-122024000D02*
X143130000Y-124564000D01*
X145670000Y-122024000D02*
X143130000Y-122024000D01*
X145670000Y-122024000D02*
X145670000Y-124564000D01*
X140590000Y-122024000D02*
X140590000Y-124564000D01*
X140590000Y-122024000D02*
X138050000Y-122024000D01*
X138050000Y-122024000D02*
X138050000Y-124564000D01*
X139574000Y-124564000D02*
X139574000Y-130660000D01*
X139574000Y-130660000D02*
X139066000Y-130660000D01*
X139066000Y-130660000D02*
X139066000Y-124564000D01*
X138050000Y-124564000D02*
X140590000Y-124564000D01*
X140590000Y-124564000D02*
X143130000Y-124564000D01*
X141606000Y-130660000D02*
X141606000Y-124564000D01*
X142114000Y-130660000D02*
X141606000Y-130660000D01*
X142114000Y-124564000D02*
X142114000Y-130660000D01*
X140590000Y-122024000D02*
X140590000Y-124564000D01*
X143130000Y-122024000D02*
X140590000Y-122024000D01*
X143130000Y-122024000D02*
X143130000Y-124564000D01*
X135510000Y-122024000D02*
X135510000Y-124564000D01*
X135510000Y-122024000D02*
X132970000Y-122024000D01*
X132970000Y-122024000D02*
X132970000Y-124564000D01*
X134494000Y-124564000D02*
X134494000Y-130660000D01*
X134494000Y-130660000D02*
X133986000Y-130660000D01*
X133986000Y-130660000D02*
X133986000Y-124564000D01*
X132970000Y-124564000D02*
X135510000Y-124564000D01*
X135510000Y-124564000D02*
X138050000Y-124564000D01*
X136526000Y-130660000D02*
X136526000Y-124564000D01*
X137034000Y-130660000D02*
X136526000Y-130660000D01*
X137034000Y-124564000D02*
X137034000Y-130660000D01*
X135510000Y-122024000D02*
X135510000Y-124564000D01*
X138050000Y-122024000D02*
X135510000Y-122024000D01*
X138050000Y-122024000D02*
X138050000Y-124564000D01*
X134070000Y-100070000D02*
X141690000Y-100070000D01*
X134070000Y-97530000D02*
X141690000Y-97530000D01*
X131250000Y-97250000D02*
X132800000Y-97250000D01*
X141690000Y-100070000D02*
X141690000Y-97530000D01*
X134070000Y-97530000D02*
X134070000Y-100070000D01*
X132800000Y-100350000D02*
X131250000Y-100350000D01*
X131250000Y-100350000D02*
X131250000Y-97250000D01*
X146325000Y-118300000D02*
X146325000Y-117300000D01*
X147675000Y-117300000D02*
X147675000Y-118300000D01*
X130000000Y-102325000D02*
X131000000Y-102325000D01*
X131000000Y-103675000D02*
X130000000Y-103675000D01*
X147000000Y-104325000D02*
X148000000Y-104325000D01*
X148000000Y-105675000D02*
X147000000Y-105675000D01*
X147000000Y-102575000D02*
X148000000Y-102575000D01*
X148000000Y-103925000D02*
X147000000Y-103925000D01*
X147000000Y-100825000D02*
X148000000Y-100825000D01*
X148000000Y-102175000D02*
X147000000Y-102175000D01*
X131000000Y-107275000D02*
X130000000Y-107275000D01*
X130000000Y-105925000D02*
X131000000Y-105925000D01*
X131000000Y-108975000D02*
X130000000Y-108975000D01*
X130000000Y-107625000D02*
X131000000Y-107625000D01*
X151600000Y-99725000D02*
X152600000Y-99725000D01*
X152600000Y-101075000D02*
X151600000Y-101075000D01*
X148900000Y-99325000D02*
X149900000Y-99325000D01*
X149900000Y-100675000D02*
X148900000Y-100675000D01*
X147000000Y-106425000D02*
X148000000Y-106425000D01*
X148000000Y-107775000D02*
X147000000Y-107775000D01*
X147000000Y-108025000D02*
X148000000Y-108025000D01*
X148000000Y-109375000D02*
X147000000Y-109375000D01*
X147000000Y-109625000D02*
X148000000Y-109625000D01*
X148000000Y-110975000D02*
X147000000Y-110975000D01*
X162700760Y-117000000D02*
G75*
G03X162700760Y-117000000I-1000760J0D01*
G01*
X167900140Y-117000000D02*
G75*
G03X167900140Y-117000000I-6200140J0D01*
G01*
X142969040Y-117960780D02*
X142969040Y-118570380D01*
X142969040Y-118570380D02*
X143400840Y-118580540D01*
X143900000Y-113600000D02*
X143900000Y-110400000D01*
X143900000Y-110400000D02*
X142600000Y-110400000D01*
X142600000Y-110400000D02*
X142600000Y-113600000D01*
X142600000Y-113600000D02*
X143900000Y-113600000D01*
X119056320Y-109950000D02*
X119056320Y-110149800D01*
X118599280Y-110000000D02*
X118599280Y-110149000D01*
X114453840Y-109950000D02*
X114453840Y-110099000D01*
X119051240Y-113550000D02*
X119051240Y-113401000D01*
X118599280Y-113550000D02*
X118599280Y-113401000D01*
X114448760Y-113550000D02*
X114448760Y-113401000D01*
X118599280Y-109801020D02*
X118599280Y-109999140D01*
X118599280Y-113748980D02*
X118599280Y-113550860D01*
X114453840Y-109753560D02*
X114453840Y-109951680D01*
X119056320Y-109753560D02*
X114453840Y-109753560D01*
X119056320Y-109753560D02*
X119056320Y-109951680D01*
X119051240Y-113748980D02*
X119051240Y-113550860D01*
X119051240Y-113748980D02*
X114448760Y-113748980D01*
X114448760Y-113748980D02*
X114448760Y-113550860D01*
X115200860Y-123500060D02*
X115200860Y-123149540D01*
X115200860Y-119999940D02*
X115200860Y-120350460D01*
X119250440Y-123500060D02*
X119250440Y-123149540D01*
X114749560Y-123500060D02*
X114749560Y-123149540D01*
X114749560Y-119999940D02*
X114749560Y-120350460D01*
X119250440Y-119999940D02*
X119250440Y-120350460D01*
X114749560Y-123500060D02*
X119250440Y-123500060D01*
X114749560Y-119999940D02*
X119250440Y-119999940D01*
X118669860Y-97550000D02*
X122269860Y-97550000D01*
X118669860Y-95450000D02*
X122269860Y-95450000D01*
X120719860Y-96200000D02*
X120719860Y-96800000D01*
X120719860Y-96800000D02*
X120419860Y-96500000D01*
X120419860Y-96500000D02*
X120619860Y-96300000D01*
X120619860Y-96300000D02*
X120619860Y-96550000D01*
X120619860Y-96550000D02*
X120569860Y-96500000D01*
X120319860Y-96000000D02*
X120319860Y-97000000D01*
X120819860Y-96500000D02*
X121319860Y-96500000D01*
X120319860Y-96500000D02*
X120819860Y-96000000D01*
X120819860Y-96000000D02*
X120819860Y-97000000D01*
X120819860Y-97000000D02*
X120319860Y-96500000D01*
X166500000Y-98800000D02*
X166500000Y-106400000D01*
X166500000Y-106400000D02*
X163700000Y-106400000D01*
X163700000Y-106400000D02*
X163700000Y-98800000D01*
X163700000Y-98800000D02*
X166500000Y-98800000D01*
X154800000Y-96700000D02*
X160900000Y-96700000D01*
X160900000Y-96700000D02*
X163900000Y-102600000D01*
X163900000Y-102600000D02*
X160900000Y-108500000D01*
X160900000Y-108500000D02*
X154800000Y-108500000D01*
X154800000Y-96700000D02*
X154800000Y-108500000D01*
X124450000Y-100100000D02*
X126000000Y-100100000D01*
X124450000Y-98800000D02*
X124450000Y-100100000D01*
X125873000Y-94609000D02*
X125873000Y-88767000D01*
X125873000Y-88767000D02*
X126127000Y-88767000D01*
X126127000Y-88767000D02*
X126127000Y-94609000D01*
X126127000Y-94609000D02*
X126000000Y-94609000D01*
X126000000Y-94609000D02*
X126000000Y-88767000D01*
X125746000Y-97276000D02*
X125746000Y-97657000D01*
X126254000Y-97276000D02*
X126254000Y-97657000D01*
X128286000Y-97276000D02*
X128286000Y-97657000D01*
X128794000Y-97276000D02*
X128794000Y-97657000D01*
X124730000Y-97276000D02*
X124730000Y-94736000D01*
X127270000Y-97276000D02*
X127270000Y-94736000D01*
X127270000Y-97276000D02*
X129810000Y-97276000D01*
X129810000Y-97276000D02*
X129810000Y-94736000D01*
X128286000Y-94736000D02*
X128286000Y-88640000D01*
X128286000Y-88640000D02*
X128794000Y-88640000D01*
X128794000Y-88640000D02*
X128794000Y-94736000D01*
X129810000Y-94736000D02*
X127270000Y-94736000D01*
X127270000Y-94736000D02*
X124730000Y-94736000D01*
X126254000Y-88640000D02*
X126254000Y-94736000D01*
X125746000Y-88640000D02*
X126254000Y-88640000D01*
X125746000Y-94736000D02*
X125746000Y-88640000D01*
X127270000Y-97276000D02*
X127270000Y-94736000D01*
X124730000Y-97276000D02*
X127270000Y-97276000D01*
X127900000Y-119350000D02*
X127900000Y-115850000D01*
X127900000Y-115850000D02*
X130900000Y-115850000D01*
X130900000Y-115850000D02*
X130900000Y-119350000D01*
X130900000Y-119350000D02*
X127900000Y-119350000D01*
X126825000Y-105250000D02*
X126825000Y-104250000D01*
X128175000Y-104250000D02*
X128175000Y-105250000D01*
X129825000Y-101300000D02*
X129825000Y-100300000D01*
X131175000Y-100300000D02*
X131175000Y-101300000D01*
X126900000Y-102300000D02*
X126900000Y-101600000D01*
X128100000Y-101600000D02*
X128100000Y-102300000D01*
D14*
X155101500Y-124868540D02*
X155101500Y-125269860D01*
X155101500Y-125269860D02*
X156498500Y-125269860D01*
X156498500Y-125269860D02*
X156498500Y-124868540D01*
X156998880Y-124868540D02*
X156998880Y-125269860D01*
X156998880Y-125269860D02*
X157397660Y-125269860D01*
X157397660Y-125269860D02*
X157397660Y-124868540D01*
X154202340Y-124868540D02*
X154202340Y-125269860D01*
X154202340Y-125269860D02*
X154601120Y-125269860D01*
X154601120Y-125269860D02*
X154601120Y-124868540D01*
X153402240Y-124769480D02*
X158197760Y-124769480D01*
X153801020Y-123969380D02*
X157798980Y-123969380D01*
D15*
X154202340Y-110332120D02*
X154202340Y-110631840D01*
X154202340Y-110631840D02*
X154202340Y-110931560D01*
X155800000Y-110332120D02*
X155800000Y-110631840D01*
X155800000Y-110631840D02*
X155800000Y-110931560D01*
X155800000Y-110631840D02*
X155500280Y-110931560D01*
X154202340Y-110631840D02*
X154502060Y-110931560D01*
X154400460Y-110730900D02*
X154502060Y-110631840D01*
X154502060Y-110332120D02*
X154502060Y-110631840D01*
X154502060Y-110631840D02*
X155500280Y-110631840D01*
X155500280Y-110631840D02*
X155500280Y-110332120D01*
X155601880Y-110730900D02*
X155500280Y-110631840D01*
D14*
X156498500Y-110131460D02*
X156498500Y-109730140D01*
X156498500Y-109730140D02*
X155101500Y-109730140D01*
X155101500Y-109730140D02*
X155101500Y-110131460D01*
X154601120Y-110131460D02*
X154601120Y-109730140D01*
X154601120Y-109730140D02*
X154202340Y-109730140D01*
X154202340Y-109730140D02*
X154202340Y-110131460D01*
X157397660Y-110131460D02*
X157397660Y-109730140D01*
X157397660Y-109730140D02*
X156998880Y-109730140D01*
X156998880Y-109730140D02*
X156998880Y-110131460D01*
X158197760Y-110230520D02*
X153402240Y-110230520D01*
X153801020Y-111030620D02*
X153801020Y-123969380D01*
X153402240Y-110230520D02*
X153402240Y-124769480D01*
X158197760Y-110230520D02*
X158197760Y-124769480D01*
X157798980Y-111030620D02*
X153801020Y-111030620D01*
X157798980Y-111030620D02*
X157798980Y-123969380D01*
D13*
X112900000Y-109300000D02*
X113000000Y-109300000D01*
X113000000Y-109300000D02*
X117900000Y-109300000D01*
X117900000Y-109300000D02*
X117900000Y-98100000D01*
X117900000Y-98100000D02*
X112900000Y-98100000D01*
X112900000Y-98100000D02*
X112900000Y-109300000D01*
D16*
X113050000Y-107565400D02*
X113050000Y-99945400D01*
X113050000Y-99945400D02*
X100350000Y-99945400D01*
X100350000Y-99945400D02*
X100350000Y-107565400D01*
X100350000Y-107565400D02*
X113050000Y-107565400D01*
D13*
X124157143Y-116166666D02*
X124204762Y-116214285D01*
X124252381Y-116357142D01*
X124252381Y-116452380D01*
X124204762Y-116595238D01*
X124109524Y-116690476D01*
X124014286Y-116738095D01*
X123823810Y-116785714D01*
X123680952Y-116785714D01*
X123490476Y-116738095D01*
X123395238Y-116690476D01*
X123300000Y-116595238D01*
X123252381Y-116452380D01*
X123252381Y-116357142D01*
X123300000Y-116214285D01*
X123347619Y-116166666D01*
X123252381Y-115833333D02*
X123252381Y-115214285D01*
X123633333Y-115547619D01*
X123633333Y-115404761D01*
X123680952Y-115309523D01*
X123728571Y-115261904D01*
X123823810Y-115214285D01*
X124061905Y-115214285D01*
X124157143Y-115261904D01*
X124204762Y-115309523D01*
X124252381Y-115404761D01*
X124252381Y-115690476D01*
X124204762Y-115785714D01*
X124157143Y-115833333D01*
X122157143Y-120066666D02*
X122204762Y-120114285D01*
X122252381Y-120257142D01*
X122252381Y-120352380D01*
X122204762Y-120495238D01*
X122109524Y-120590476D01*
X122014286Y-120638095D01*
X121823810Y-120685714D01*
X121680952Y-120685714D01*
X121490476Y-120638095D01*
X121395238Y-120590476D01*
X121300000Y-120495238D01*
X121252381Y-120352380D01*
X121252381Y-120257142D01*
X121300000Y-120114285D01*
X121347619Y-120066666D01*
X121252381Y-119161904D02*
X121252381Y-119638095D01*
X121728571Y-119685714D01*
X121680952Y-119638095D01*
X121633333Y-119542857D01*
X121633333Y-119304761D01*
X121680952Y-119209523D01*
X121728571Y-119161904D01*
X121823810Y-119114285D01*
X122061905Y-119114285D01*
X122157143Y-119161904D01*
X122204762Y-119209523D01*
X122252381Y-119304761D01*
X122252381Y-119542857D01*
X122204762Y-119638095D01*
X122157143Y-119685714D01*
X125757143Y-111857143D02*
X125709524Y-111904762D01*
X125566667Y-111952381D01*
X125471429Y-111952381D01*
X125328571Y-111904762D01*
X125233333Y-111809524D01*
X125185714Y-111714286D01*
X125138095Y-111523810D01*
X125138095Y-111380952D01*
X125185714Y-111190476D01*
X125233333Y-111095238D01*
X125328571Y-111000000D01*
X125471429Y-110952381D01*
X125566667Y-110952381D01*
X125709524Y-111000000D01*
X125757143Y-111047619D01*
X126709524Y-111952381D02*
X126138095Y-111952381D01*
X126423809Y-111952381D02*
X126423809Y-110952381D01*
X126328571Y-111095238D01*
X126233333Y-111190476D01*
X126138095Y-111238095D01*
X127328571Y-110952381D02*
X127423810Y-110952381D01*
X127519048Y-111000000D01*
X127566667Y-111047619D01*
X127614286Y-111142857D01*
X127661905Y-111333333D01*
X127661905Y-111571429D01*
X127614286Y-111761905D01*
X127566667Y-111857143D01*
X127519048Y-111904762D01*
X127423810Y-111952381D01*
X127328571Y-111952381D01*
X127233333Y-111904762D01*
X127185714Y-111857143D01*
X127138095Y-111761905D01*
X127090476Y-111571429D01*
X127090476Y-111333333D01*
X127138095Y-111142857D01*
X127185714Y-111047619D01*
X127233333Y-111000000D01*
X127328571Y-110952381D01*
X132652381Y-112266666D02*
X132176190Y-112600000D01*
X132652381Y-112838095D02*
X131652381Y-112838095D01*
X131652381Y-112457142D01*
X131700000Y-112361904D01*
X131747619Y-112314285D01*
X131842857Y-112266666D01*
X131985714Y-112266666D01*
X132080952Y-112314285D01*
X132128571Y-112361904D01*
X132176190Y-112457142D01*
X132176190Y-112838095D01*
X131747619Y-111885714D02*
X131700000Y-111838095D01*
X131652381Y-111742857D01*
X131652381Y-111504761D01*
X131700000Y-111409523D01*
X131747619Y-111361904D01*
X131842857Y-111314285D01*
X131938095Y-111314285D01*
X132080952Y-111361904D01*
X132652381Y-111933333D01*
X132652381Y-111314285D01*
X130452381Y-122942857D02*
X129976190Y-123276191D01*
X130452381Y-123514286D02*
X129452381Y-123514286D01*
X129452381Y-123133333D01*
X129500000Y-123038095D01*
X129547619Y-122990476D01*
X129642857Y-122942857D01*
X129785714Y-122942857D01*
X129880952Y-122990476D01*
X129928571Y-123038095D01*
X129976190Y-123133333D01*
X129976190Y-123514286D01*
X130452381Y-121990476D02*
X130452381Y-122561905D01*
X130452381Y-122276191D02*
X129452381Y-122276191D01*
X129595238Y-122371429D01*
X129690476Y-122466667D01*
X129738095Y-122561905D01*
X129452381Y-121371429D02*
X129452381Y-121276190D01*
X129500000Y-121180952D01*
X129547619Y-121133333D01*
X129642857Y-121085714D01*
X129833333Y-121038095D01*
X130071429Y-121038095D01*
X130261905Y-121085714D01*
X130357143Y-121133333D01*
X130404762Y-121180952D01*
X130452381Y-121276190D01*
X130452381Y-121371429D01*
X130404762Y-121466667D01*
X130357143Y-121514286D01*
X130261905Y-121561905D01*
X130071429Y-121609524D01*
X129833333Y-121609524D01*
X129642857Y-121561905D01*
X129547619Y-121514286D01*
X129500000Y-121466667D01*
X129452381Y-121371429D01*
X127738095Y-119652381D02*
X127738095Y-120461905D01*
X127785714Y-120557143D01*
X127833333Y-120604762D01*
X127928571Y-120652381D01*
X128119048Y-120652381D01*
X128214286Y-120604762D01*
X128261905Y-120557143D01*
X128309524Y-120461905D01*
X128309524Y-119652381D01*
X129309524Y-120652381D02*
X128738095Y-120652381D01*
X129023809Y-120652381D02*
X129023809Y-119652381D01*
X128928571Y-119795238D01*
X128833333Y-119890476D01*
X128738095Y-119938095D01*
X128357143Y-115357143D02*
X128309524Y-115404762D01*
X128166667Y-115452381D01*
X128071429Y-115452381D01*
X127928571Y-115404762D01*
X127833333Y-115309524D01*
X127785714Y-115214286D01*
X127738095Y-115023810D01*
X127738095Y-114880952D01*
X127785714Y-114690476D01*
X127833333Y-114595238D01*
X127928571Y-114500000D01*
X128071429Y-114452381D01*
X128166667Y-114452381D01*
X128309524Y-114500000D01*
X128357143Y-114547619D01*
X129309524Y-115452381D02*
X128738095Y-115452381D01*
X129023809Y-115452381D02*
X129023809Y-114452381D01*
X128928571Y-114595238D01*
X128833333Y-114690476D01*
X128738095Y-114738095D01*
X129642857Y-114452381D02*
X130261905Y-114452381D01*
X129928571Y-114833333D01*
X130071429Y-114833333D01*
X130166667Y-114880952D01*
X130214286Y-114928571D01*
X130261905Y-115023810D01*
X130261905Y-115261905D01*
X130214286Y-115357143D01*
X130166667Y-115404762D01*
X130071429Y-115452381D01*
X129785714Y-115452381D01*
X129690476Y-115404762D01*
X129642857Y-115357143D01*
X124052381Y-111642857D02*
X123576190Y-111976191D01*
X124052381Y-112214286D02*
X123052381Y-112214286D01*
X123052381Y-111833333D01*
X123100000Y-111738095D01*
X123147619Y-111690476D01*
X123242857Y-111642857D01*
X123385714Y-111642857D01*
X123480952Y-111690476D01*
X123528571Y-111738095D01*
X123576190Y-111833333D01*
X123576190Y-112214286D01*
X123147619Y-111261905D02*
X123100000Y-111214286D01*
X123052381Y-111119048D01*
X123052381Y-110880952D01*
X123100000Y-110785714D01*
X123147619Y-110738095D01*
X123242857Y-110690476D01*
X123338095Y-110690476D01*
X123480952Y-110738095D01*
X124052381Y-111309524D01*
X124052381Y-110690476D01*
X124052381Y-109738095D02*
X124052381Y-110309524D01*
X124052381Y-110023810D02*
X123052381Y-110023810D01*
X123195238Y-110119048D01*
X123290476Y-110214286D01*
X123338095Y-110309524D01*
X122957143Y-123652381D02*
X122623809Y-123176190D01*
X122385714Y-123652381D02*
X122385714Y-122652381D01*
X122766667Y-122652381D01*
X122861905Y-122700000D01*
X122909524Y-122747619D01*
X122957143Y-122842857D01*
X122957143Y-122985714D01*
X122909524Y-123080952D01*
X122861905Y-123128571D01*
X122766667Y-123176190D01*
X122385714Y-123176190D01*
X123909524Y-123652381D02*
X123338095Y-123652381D01*
X123623809Y-123652381D02*
X123623809Y-122652381D01*
X123528571Y-122795238D01*
X123433333Y-122890476D01*
X123338095Y-122938095D01*
X124861905Y-123652381D02*
X124290476Y-123652381D01*
X124576190Y-123652381D02*
X124576190Y-122652381D01*
X124480952Y-122795238D01*
X124385714Y-122890476D01*
X124290476Y-122938095D01*
X122957143Y-122152381D02*
X122623809Y-121676190D01*
X122385714Y-122152381D02*
X122385714Y-121152381D01*
X122766667Y-121152381D01*
X122861905Y-121200000D01*
X122909524Y-121247619D01*
X122957143Y-121342857D01*
X122957143Y-121485714D01*
X122909524Y-121580952D01*
X122861905Y-121628571D01*
X122766667Y-121676190D01*
X122385714Y-121676190D01*
X123338095Y-121247619D02*
X123385714Y-121200000D01*
X123480952Y-121152381D01*
X123719048Y-121152381D01*
X123814286Y-121200000D01*
X123861905Y-121247619D01*
X123909524Y-121342857D01*
X123909524Y-121438095D01*
X123861905Y-121580952D01*
X123290476Y-122152381D01*
X123909524Y-122152381D01*
X124290476Y-121247619D02*
X124338095Y-121200000D01*
X124433333Y-121152381D01*
X124671429Y-121152381D01*
X124766667Y-121200000D01*
X124814286Y-121247619D01*
X124861905Y-121342857D01*
X124861905Y-121438095D01*
X124814286Y-121580952D01*
X124242857Y-122152381D01*
X124861905Y-122152381D01*
X142233334Y-101257143D02*
X142185715Y-101304762D01*
X142042858Y-101352381D01*
X141947620Y-101352381D01*
X141804762Y-101304762D01*
X141709524Y-101209524D01*
X141661905Y-101114286D01*
X141614286Y-100923810D01*
X141614286Y-100780952D01*
X141661905Y-100590476D01*
X141709524Y-100495238D01*
X141804762Y-100400000D01*
X141947620Y-100352381D01*
X142042858Y-100352381D01*
X142185715Y-100400000D01*
X142233334Y-100447619D01*
X143185715Y-101352381D02*
X142614286Y-101352381D01*
X142900000Y-101352381D02*
X142900000Y-100352381D01*
X142804762Y-100495238D01*
X142709524Y-100590476D01*
X142614286Y-100638095D01*
X136657143Y-113466666D02*
X136704762Y-113514285D01*
X136752381Y-113657142D01*
X136752381Y-113752380D01*
X136704762Y-113895238D01*
X136609524Y-113990476D01*
X136514286Y-114038095D01*
X136323810Y-114085714D01*
X136180952Y-114085714D01*
X135990476Y-114038095D01*
X135895238Y-113990476D01*
X135800000Y-113895238D01*
X135752381Y-113752380D01*
X135752381Y-113657142D01*
X135800000Y-113514285D01*
X135847619Y-113466666D01*
X135847619Y-113085714D02*
X135800000Y-113038095D01*
X135752381Y-112942857D01*
X135752381Y-112704761D01*
X135800000Y-112609523D01*
X135847619Y-112561904D01*
X135942857Y-112514285D01*
X136038095Y-112514285D01*
X136180952Y-112561904D01*
X136752381Y-113133333D01*
X136752381Y-112514285D01*
X141157143Y-113366666D02*
X141204762Y-113414285D01*
X141252381Y-113557142D01*
X141252381Y-113652380D01*
X141204762Y-113795238D01*
X141109524Y-113890476D01*
X141014286Y-113938095D01*
X140823810Y-113985714D01*
X140680952Y-113985714D01*
X140490476Y-113938095D01*
X140395238Y-113890476D01*
X140300000Y-113795238D01*
X140252381Y-113652380D01*
X140252381Y-113557142D01*
X140300000Y-113414285D01*
X140347619Y-113366666D01*
X140585714Y-112509523D02*
X141252381Y-112509523D01*
X140204762Y-112747619D02*
X140919048Y-112985714D01*
X140919048Y-112366666D01*
X145857143Y-100166666D02*
X145904762Y-100214285D01*
X145952381Y-100357142D01*
X145952381Y-100452380D01*
X145904762Y-100595238D01*
X145809524Y-100690476D01*
X145714286Y-100738095D01*
X145523810Y-100785714D01*
X145380952Y-100785714D01*
X145190476Y-100738095D01*
X145095238Y-100690476D01*
X145000000Y-100595238D01*
X144952381Y-100452380D01*
X144952381Y-100357142D01*
X145000000Y-100214285D01*
X145047619Y-100166666D01*
X144952381Y-99309523D02*
X144952381Y-99500000D01*
X145000000Y-99595238D01*
X145047619Y-99642857D01*
X145190476Y-99738095D01*
X145380952Y-99785714D01*
X145761905Y-99785714D01*
X145857143Y-99738095D01*
X145904762Y-99690476D01*
X145952381Y-99595238D01*
X145952381Y-99404761D01*
X145904762Y-99309523D01*
X145857143Y-99261904D01*
X145761905Y-99214285D01*
X145523810Y-99214285D01*
X145428571Y-99261904D01*
X145380952Y-99309523D01*
X145333333Y-99404761D01*
X145333333Y-99595238D01*
X145380952Y-99690476D01*
X145428571Y-99738095D01*
X145523810Y-99785714D01*
X144733334Y-98057143D02*
X144685715Y-98104762D01*
X144542858Y-98152381D01*
X144447620Y-98152381D01*
X144304762Y-98104762D01*
X144209524Y-98009524D01*
X144161905Y-97914286D01*
X144114286Y-97723810D01*
X144114286Y-97580952D01*
X144161905Y-97390476D01*
X144209524Y-97295238D01*
X144304762Y-97200000D01*
X144447620Y-97152381D01*
X144542858Y-97152381D01*
X144685715Y-97200000D01*
X144733334Y-97247619D01*
X145066667Y-97152381D02*
X145733334Y-97152381D01*
X145304762Y-98152381D01*
X132657143Y-105166666D02*
X132704762Y-105214285D01*
X132752381Y-105357142D01*
X132752381Y-105452380D01*
X132704762Y-105595238D01*
X132609524Y-105690476D01*
X132514286Y-105738095D01*
X132323810Y-105785714D01*
X132180952Y-105785714D01*
X131990476Y-105738095D01*
X131895238Y-105690476D01*
X131800000Y-105595238D01*
X131752381Y-105452380D01*
X131752381Y-105357142D01*
X131800000Y-105214285D01*
X131847619Y-105166666D01*
X132180952Y-104595238D02*
X132133333Y-104690476D01*
X132085714Y-104738095D01*
X131990476Y-104785714D01*
X131942857Y-104785714D01*
X131847619Y-104738095D01*
X131800000Y-104690476D01*
X131752381Y-104595238D01*
X131752381Y-104404761D01*
X131800000Y-104309523D01*
X131847619Y-104261904D01*
X131942857Y-104214285D01*
X131990476Y-104214285D01*
X132085714Y-104261904D01*
X132133333Y-104309523D01*
X132180952Y-104404761D01*
X132180952Y-104595238D01*
X132228571Y-104690476D01*
X132276190Y-104738095D01*
X132371429Y-104785714D01*
X132561905Y-104785714D01*
X132657143Y-104738095D01*
X132704762Y-104690476D01*
X132752381Y-104595238D01*
X132752381Y-104404761D01*
X132704762Y-104309523D01*
X132657143Y-104261904D01*
X132561905Y-104214285D01*
X132371429Y-104214285D01*
X132276190Y-104261904D01*
X132228571Y-104309523D01*
X132180952Y-104404761D01*
X137657143Y-118757143D02*
X137609524Y-118804762D01*
X137466667Y-118852381D01*
X137371429Y-118852381D01*
X137228571Y-118804762D01*
X137133333Y-118709524D01*
X137085714Y-118614286D01*
X137038095Y-118423810D01*
X137038095Y-118280952D01*
X137085714Y-118090476D01*
X137133333Y-117995238D01*
X137228571Y-117900000D01*
X137371429Y-117852381D01*
X137466667Y-117852381D01*
X137609524Y-117900000D01*
X137657143Y-117947619D01*
X138609524Y-118852381D02*
X138038095Y-118852381D01*
X138323809Y-118852381D02*
X138323809Y-117852381D01*
X138228571Y-117995238D01*
X138133333Y-118090476D01*
X138038095Y-118138095D01*
X138990476Y-117947619D02*
X139038095Y-117900000D01*
X139133333Y-117852381D01*
X139371429Y-117852381D01*
X139466667Y-117900000D01*
X139514286Y-117947619D01*
X139561905Y-118042857D01*
X139561905Y-118138095D01*
X139514286Y-118280952D01*
X138942857Y-118852381D01*
X139561905Y-118852381D01*
X147457143Y-114142857D02*
X147504762Y-114190476D01*
X147552381Y-114333333D01*
X147552381Y-114428571D01*
X147504762Y-114571429D01*
X147409524Y-114666667D01*
X147314286Y-114714286D01*
X147123810Y-114761905D01*
X146980952Y-114761905D01*
X146790476Y-114714286D01*
X146695238Y-114666667D01*
X146600000Y-114571429D01*
X146552381Y-114428571D01*
X146552381Y-114333333D01*
X146600000Y-114190476D01*
X146647619Y-114142857D01*
X147552381Y-113190476D02*
X147552381Y-113761905D01*
X147552381Y-113476191D02*
X146552381Y-113476191D01*
X146695238Y-113571429D01*
X146790476Y-113666667D01*
X146838095Y-113761905D01*
X146885714Y-112333333D02*
X147552381Y-112333333D01*
X146504762Y-112571429D02*
X147219048Y-112809524D01*
X147219048Y-112190476D01*
X149452381Y-98438095D02*
X148452381Y-98438095D01*
X148452381Y-98200000D01*
X148500000Y-98057142D01*
X148595238Y-97961904D01*
X148690476Y-97914285D01*
X148880952Y-97866666D01*
X149023810Y-97866666D01*
X149214286Y-97914285D01*
X149309524Y-97961904D01*
X149404762Y-98057142D01*
X149452381Y-98200000D01*
X149452381Y-98438095D01*
X148452381Y-97533333D02*
X148452381Y-96914285D01*
X148833333Y-97247619D01*
X148833333Y-97104761D01*
X148880952Y-97009523D01*
X148928571Y-96961904D01*
X149023810Y-96914285D01*
X149261905Y-96914285D01*
X149357143Y-96961904D01*
X149404762Y-97009523D01*
X149452381Y-97104761D01*
X149452381Y-97390476D01*
X149404762Y-97485714D01*
X149357143Y-97533333D01*
X154352381Y-98538095D02*
X153352381Y-98538095D01*
X153352381Y-98300000D01*
X153400000Y-98157142D01*
X153495238Y-98061904D01*
X153590476Y-98014285D01*
X153780952Y-97966666D01*
X153923810Y-97966666D01*
X154114286Y-98014285D01*
X154209524Y-98061904D01*
X154304762Y-98157142D01*
X154352381Y-98300000D01*
X154352381Y-98538095D01*
X153685714Y-97109523D02*
X154352381Y-97109523D01*
X153304762Y-97347619D02*
X154019048Y-97585714D01*
X154019048Y-96966666D01*
X137023810Y-104552381D02*
X137023810Y-103552381D01*
X138071429Y-104457143D02*
X138023810Y-104504762D01*
X137880953Y-104552381D01*
X137785715Y-104552381D01*
X137642857Y-104504762D01*
X137547619Y-104409524D01*
X137500000Y-104314286D01*
X137452381Y-104123810D01*
X137452381Y-103980952D01*
X137500000Y-103790476D01*
X137547619Y-103695238D01*
X137642857Y-103600000D01*
X137785715Y-103552381D01*
X137880953Y-103552381D01*
X138023810Y-103600000D01*
X138071429Y-103647619D01*
X139023810Y-104552381D02*
X138452381Y-104552381D01*
X138738095Y-104552381D02*
X138738095Y-103552381D01*
X138642857Y-103695238D01*
X138547619Y-103790476D01*
X138452381Y-103838095D01*
X146833334Y-116452381D02*
X146500000Y-115976190D01*
X146261905Y-116452381D02*
X146261905Y-115452381D01*
X146642858Y-115452381D01*
X146738096Y-115500000D01*
X146785715Y-115547619D01*
X146833334Y-115642857D01*
X146833334Y-115785714D01*
X146785715Y-115880952D01*
X146738096Y-115928571D01*
X146642858Y-115976190D01*
X146261905Y-115976190D01*
X147785715Y-116452381D02*
X147214286Y-116452381D01*
X147500000Y-116452381D02*
X147500000Y-115452381D01*
X147404762Y-115595238D01*
X147309524Y-115690476D01*
X147214286Y-115738095D01*
X129652381Y-101666666D02*
X129176190Y-102000000D01*
X129652381Y-102238095D02*
X128652381Y-102238095D01*
X128652381Y-101857142D01*
X128700000Y-101761904D01*
X128747619Y-101714285D01*
X128842857Y-101666666D01*
X128985714Y-101666666D01*
X129080952Y-101714285D01*
X129128571Y-101761904D01*
X129176190Y-101857142D01*
X129176190Y-102238095D01*
X128652381Y-101333333D02*
X128652381Y-100714285D01*
X129033333Y-101047619D01*
X129033333Y-100904761D01*
X129080952Y-100809523D01*
X129128571Y-100761904D01*
X129223810Y-100714285D01*
X129461905Y-100714285D01*
X129557143Y-100761904D01*
X129604762Y-100809523D01*
X129652381Y-100904761D01*
X129652381Y-101190476D01*
X129604762Y-101285714D01*
X129557143Y-101333333D01*
X145233334Y-105452381D02*
X144900000Y-104976190D01*
X144661905Y-105452381D02*
X144661905Y-104452381D01*
X145042858Y-104452381D01*
X145138096Y-104500000D01*
X145185715Y-104547619D01*
X145233334Y-104642857D01*
X145233334Y-104785714D01*
X145185715Y-104880952D01*
X145138096Y-104928571D01*
X145042858Y-104976190D01*
X144661905Y-104976190D01*
X146090477Y-104785714D02*
X146090477Y-105452381D01*
X145852381Y-104404762D02*
X145614286Y-105119048D01*
X146233334Y-105119048D01*
X145233334Y-103752381D02*
X144900000Y-103276190D01*
X144661905Y-103752381D02*
X144661905Y-102752381D01*
X145042858Y-102752381D01*
X145138096Y-102800000D01*
X145185715Y-102847619D01*
X145233334Y-102942857D01*
X145233334Y-103085714D01*
X145185715Y-103180952D01*
X145138096Y-103228571D01*
X145042858Y-103276190D01*
X144661905Y-103276190D01*
X146138096Y-102752381D02*
X145661905Y-102752381D01*
X145614286Y-103228571D01*
X145661905Y-103180952D01*
X145757143Y-103133333D01*
X145995239Y-103133333D01*
X146090477Y-103180952D01*
X146138096Y-103228571D01*
X146185715Y-103323810D01*
X146185715Y-103561905D01*
X146138096Y-103657143D01*
X146090477Y-103704762D01*
X145995239Y-103752381D01*
X145757143Y-103752381D01*
X145661905Y-103704762D01*
X145614286Y-103657143D01*
X146833334Y-100752381D02*
X146500000Y-100276190D01*
X146261905Y-100752381D02*
X146261905Y-99752381D01*
X146642858Y-99752381D01*
X146738096Y-99800000D01*
X146785715Y-99847619D01*
X146833334Y-99942857D01*
X146833334Y-100085714D01*
X146785715Y-100180952D01*
X146738096Y-100228571D01*
X146642858Y-100276190D01*
X146261905Y-100276190D01*
X147690477Y-99752381D02*
X147500000Y-99752381D01*
X147404762Y-99800000D01*
X147357143Y-99847619D01*
X147261905Y-99990476D01*
X147214286Y-100180952D01*
X147214286Y-100561905D01*
X147261905Y-100657143D01*
X147309524Y-100704762D01*
X147404762Y-100752381D01*
X147595239Y-100752381D01*
X147690477Y-100704762D01*
X147738096Y-100657143D01*
X147785715Y-100561905D01*
X147785715Y-100323810D01*
X147738096Y-100228571D01*
X147690477Y-100180952D01*
X147595239Y-100133333D01*
X147404762Y-100133333D01*
X147309524Y-100180952D01*
X147261905Y-100228571D01*
X147214286Y-100323810D01*
X128133334Y-107152381D02*
X127800000Y-106676190D01*
X127561905Y-107152381D02*
X127561905Y-106152381D01*
X127942858Y-106152381D01*
X128038096Y-106200000D01*
X128085715Y-106247619D01*
X128133334Y-106342857D01*
X128133334Y-106485714D01*
X128085715Y-106580952D01*
X128038096Y-106628571D01*
X127942858Y-106676190D01*
X127561905Y-106676190D01*
X128466667Y-106152381D02*
X129133334Y-106152381D01*
X128704762Y-107152381D01*
X128133334Y-108752381D02*
X127800000Y-108276190D01*
X127561905Y-108752381D02*
X127561905Y-107752381D01*
X127942858Y-107752381D01*
X128038096Y-107800000D01*
X128085715Y-107847619D01*
X128133334Y-107942857D01*
X128133334Y-108085714D01*
X128085715Y-108180952D01*
X128038096Y-108228571D01*
X127942858Y-108276190D01*
X127561905Y-108276190D01*
X128704762Y-108180952D02*
X128609524Y-108133333D01*
X128561905Y-108085714D01*
X128514286Y-107990476D01*
X128514286Y-107942857D01*
X128561905Y-107847619D01*
X128609524Y-107800000D01*
X128704762Y-107752381D01*
X128895239Y-107752381D01*
X128990477Y-107800000D01*
X129038096Y-107847619D01*
X129085715Y-107942857D01*
X129085715Y-107990476D01*
X129038096Y-108085714D01*
X128990477Y-108133333D01*
X128895239Y-108180952D01*
X128704762Y-108180952D01*
X128609524Y-108228571D01*
X128561905Y-108276190D01*
X128514286Y-108371429D01*
X128514286Y-108561905D01*
X128561905Y-108657143D01*
X128609524Y-108704762D01*
X128704762Y-108752381D01*
X128895239Y-108752381D01*
X128990477Y-108704762D01*
X129038096Y-108657143D01*
X129085715Y-108561905D01*
X129085715Y-108371429D01*
X129038096Y-108276190D01*
X128990477Y-108228571D01*
X128895239Y-108180952D01*
X152833334Y-102352381D02*
X152500000Y-101876190D01*
X152261905Y-102352381D02*
X152261905Y-101352381D01*
X152642858Y-101352381D01*
X152738096Y-101400000D01*
X152785715Y-101447619D01*
X152833334Y-101542857D01*
X152833334Y-101685714D01*
X152785715Y-101780952D01*
X152738096Y-101828571D01*
X152642858Y-101876190D01*
X152261905Y-101876190D01*
X153309524Y-102352381D02*
X153500000Y-102352381D01*
X153595239Y-102304762D01*
X153642858Y-102257143D01*
X153738096Y-102114286D01*
X153785715Y-101923810D01*
X153785715Y-101542857D01*
X153738096Y-101447619D01*
X153690477Y-101400000D01*
X153595239Y-101352381D01*
X153404762Y-101352381D01*
X153309524Y-101400000D01*
X153261905Y-101447619D01*
X153214286Y-101542857D01*
X153214286Y-101780952D01*
X153261905Y-101876190D01*
X153309524Y-101923810D01*
X153404762Y-101971429D01*
X153595239Y-101971429D01*
X153690477Y-101923810D01*
X153738096Y-101876190D01*
X153785715Y-101780952D01*
X146857143Y-99452381D02*
X146523809Y-98976190D01*
X146285714Y-99452381D02*
X146285714Y-98452381D01*
X146666667Y-98452381D01*
X146761905Y-98500000D01*
X146809524Y-98547619D01*
X146857143Y-98642857D01*
X146857143Y-98785714D01*
X146809524Y-98880952D01*
X146761905Y-98928571D01*
X146666667Y-98976190D01*
X146285714Y-98976190D01*
X147809524Y-99452381D02*
X147238095Y-99452381D01*
X147523809Y-99452381D02*
X147523809Y-98452381D01*
X147428571Y-98595238D01*
X147333333Y-98690476D01*
X147238095Y-98738095D01*
X148190476Y-98547619D02*
X148238095Y-98500000D01*
X148333333Y-98452381D01*
X148571429Y-98452381D01*
X148666667Y-98500000D01*
X148714286Y-98547619D01*
X148761905Y-98642857D01*
X148761905Y-98738095D01*
X148714286Y-98880952D01*
X148142857Y-99452381D01*
X148761905Y-99452381D01*
X144357143Y-107552381D02*
X144023809Y-107076190D01*
X143785714Y-107552381D02*
X143785714Y-106552381D01*
X144166667Y-106552381D01*
X144261905Y-106600000D01*
X144309524Y-106647619D01*
X144357143Y-106742857D01*
X144357143Y-106885714D01*
X144309524Y-106980952D01*
X144261905Y-107028571D01*
X144166667Y-107076190D01*
X143785714Y-107076190D01*
X145309524Y-107552381D02*
X144738095Y-107552381D01*
X145023809Y-107552381D02*
X145023809Y-106552381D01*
X144928571Y-106695238D01*
X144833333Y-106790476D01*
X144738095Y-106838095D01*
X145642857Y-106552381D02*
X146261905Y-106552381D01*
X145928571Y-106933333D01*
X146071429Y-106933333D01*
X146166667Y-106980952D01*
X146214286Y-107028571D01*
X146261905Y-107123810D01*
X146261905Y-107361905D01*
X146214286Y-107457143D01*
X146166667Y-107504762D01*
X146071429Y-107552381D01*
X145785714Y-107552381D01*
X145690476Y-107504762D01*
X145642857Y-107457143D01*
X144357143Y-109052381D02*
X144023809Y-108576190D01*
X143785714Y-109052381D02*
X143785714Y-108052381D01*
X144166667Y-108052381D01*
X144261905Y-108100000D01*
X144309524Y-108147619D01*
X144357143Y-108242857D01*
X144357143Y-108385714D01*
X144309524Y-108480952D01*
X144261905Y-108528571D01*
X144166667Y-108576190D01*
X143785714Y-108576190D01*
X145309524Y-109052381D02*
X144738095Y-109052381D01*
X145023809Y-109052381D02*
X145023809Y-108052381D01*
X144928571Y-108195238D01*
X144833333Y-108290476D01*
X144738095Y-108338095D01*
X146166667Y-108385714D02*
X146166667Y-109052381D01*
X145928571Y-108004762D02*
X145690476Y-108719048D01*
X146309524Y-108719048D01*
X144357143Y-110452381D02*
X144023809Y-109976190D01*
X143785714Y-110452381D02*
X143785714Y-109452381D01*
X144166667Y-109452381D01*
X144261905Y-109500000D01*
X144309524Y-109547619D01*
X144357143Y-109642857D01*
X144357143Y-109785714D01*
X144309524Y-109880952D01*
X144261905Y-109928571D01*
X144166667Y-109976190D01*
X143785714Y-109976190D01*
X145309524Y-110452381D02*
X144738095Y-110452381D01*
X145023809Y-110452381D02*
X145023809Y-109452381D01*
X144928571Y-109595238D01*
X144833333Y-109690476D01*
X144738095Y-109738095D01*
X146214286Y-109452381D02*
X145738095Y-109452381D01*
X145690476Y-109928571D01*
X145738095Y-109880952D01*
X145833333Y-109833333D01*
X146071429Y-109833333D01*
X146166667Y-109880952D01*
X146214286Y-109928571D01*
X146261905Y-110023810D01*
X146261905Y-110261905D01*
X146214286Y-110357143D01*
X146166667Y-110404762D01*
X146071429Y-110452381D01*
X145833333Y-110452381D01*
X145738095Y-110404762D01*
X145690476Y-110357143D01*
X160304762Y-118261905D02*
X160352381Y-118119048D01*
X160352381Y-117880952D01*
X160304762Y-117785714D01*
X160257143Y-117738095D01*
X160161905Y-117690476D01*
X160066667Y-117690476D01*
X159971429Y-117738095D01*
X159923810Y-117785714D01*
X159876190Y-117880952D01*
X159828571Y-118071429D01*
X159780952Y-118166667D01*
X159733333Y-118214286D01*
X159638095Y-118261905D01*
X159542857Y-118261905D01*
X159447619Y-118214286D01*
X159400000Y-118166667D01*
X159352381Y-118071429D01*
X159352381Y-117833333D01*
X159400000Y-117690476D01*
X160352381Y-117261905D02*
X159352381Y-117261905D01*
X159352381Y-116880952D01*
X159400000Y-116785714D01*
X159447619Y-116738095D01*
X159542857Y-116690476D01*
X159685714Y-116690476D01*
X159780952Y-116738095D01*
X159828571Y-116785714D01*
X159876190Y-116880952D01*
X159876190Y-117261905D01*
X160352381Y-115738095D02*
X160352381Y-116309524D01*
X160352381Y-116023810D02*
X159352381Y-116023810D01*
X159495238Y-116119048D01*
X159590476Y-116214286D01*
X159638095Y-116309524D01*
X141852381Y-117561905D02*
X142661905Y-117561905D01*
X142757143Y-117514286D01*
X142804762Y-117466667D01*
X142852381Y-117371429D01*
X142852381Y-117180952D01*
X142804762Y-117085714D01*
X142757143Y-117038095D01*
X142661905Y-116990476D01*
X141852381Y-116990476D01*
X141852381Y-116609524D02*
X141852381Y-115990476D01*
X142233333Y-116323810D01*
X142233333Y-116180952D01*
X142280952Y-116085714D01*
X142328571Y-116038095D01*
X142423810Y-115990476D01*
X142661905Y-115990476D01*
X142757143Y-116038095D01*
X142804762Y-116085714D01*
X142852381Y-116180952D01*
X142852381Y-116466667D01*
X142804762Y-116561905D01*
X142757143Y-116609524D01*
X142823809Y-114376190D02*
X142823809Y-114852381D01*
X142490476Y-113852381D02*
X142823809Y-114376190D01*
X143157143Y-113852381D01*
X144014286Y-114852381D02*
X143442857Y-114852381D01*
X143728571Y-114852381D02*
X143728571Y-113852381D01*
X143633333Y-113995238D01*
X143538095Y-114090476D01*
X143442857Y-114138095D01*
X117252381Y-112438095D02*
X116252381Y-112438095D01*
X116252381Y-112200000D01*
X116300000Y-112057142D01*
X116395238Y-111961904D01*
X116490476Y-111914285D01*
X116680952Y-111866666D01*
X116823810Y-111866666D01*
X117014286Y-111914285D01*
X117109524Y-111961904D01*
X117204762Y-112057142D01*
X117252381Y-112200000D01*
X117252381Y-112438095D01*
X116347619Y-111485714D02*
X116300000Y-111438095D01*
X116252381Y-111342857D01*
X116252381Y-111104761D01*
X116300000Y-111009523D01*
X116347619Y-110961904D01*
X116442857Y-110914285D01*
X116538095Y-110914285D01*
X116680952Y-110961904D01*
X117252381Y-111533333D01*
X117252381Y-110914285D01*
X119938095Y-110152381D02*
X119938095Y-109152381D01*
X120509524Y-110152381D02*
X120080952Y-109580952D01*
X120509524Y-109152381D02*
X119938095Y-109723810D01*
X113561905Y-109766667D02*
X114038096Y-109766667D01*
X113466667Y-110052381D02*
X113800000Y-109052381D01*
X114133334Y-110052381D01*
X117452381Y-122438095D02*
X116452381Y-122438095D01*
X116452381Y-122200000D01*
X116500000Y-122057142D01*
X116595238Y-121961904D01*
X116690476Y-121914285D01*
X116880952Y-121866666D01*
X117023810Y-121866666D01*
X117214286Y-121914285D01*
X117309524Y-121961904D01*
X117404762Y-122057142D01*
X117452381Y-122200000D01*
X117452381Y-122438095D01*
X117452381Y-120914285D02*
X117452381Y-121485714D01*
X117452381Y-121200000D02*
X116452381Y-121200000D01*
X116595238Y-121295238D01*
X116690476Y-121390476D01*
X116738095Y-121485714D01*
X113838095Y-124052381D02*
X113838095Y-123052381D01*
X114409524Y-124052381D02*
X113980952Y-123480952D01*
X114409524Y-123052381D02*
X113838095Y-123623810D01*
X119861905Y-123766667D02*
X120338096Y-123766667D01*
X119766667Y-124052381D02*
X120100000Y-123052381D01*
X120433334Y-124052381D01*
X116561905Y-97052381D02*
X116561905Y-96052381D01*
X116800000Y-96052381D01*
X116942858Y-96100000D01*
X117038096Y-96195238D01*
X117085715Y-96290476D01*
X117133334Y-96480952D01*
X117133334Y-96623810D01*
X117085715Y-96814286D01*
X117038096Y-96909524D01*
X116942858Y-97004762D01*
X116800000Y-97052381D01*
X116561905Y-97052381D01*
X118038096Y-96052381D02*
X117561905Y-96052381D01*
X117514286Y-96528571D01*
X117561905Y-96480952D01*
X117657143Y-96433333D01*
X117895239Y-96433333D01*
X117990477Y-96480952D01*
X118038096Y-96528571D01*
X118085715Y-96623810D01*
X118085715Y-96861905D01*
X118038096Y-96957143D01*
X117990477Y-97004762D01*
X117895239Y-97052381D01*
X117657143Y-97052381D01*
X117561905Y-97004762D01*
X117514286Y-96957143D01*
X158352381Y-103361905D02*
X159161905Y-103361905D01*
X159257143Y-103314286D01*
X159304762Y-103266667D01*
X159352381Y-103171429D01*
X159352381Y-102980952D01*
X159304762Y-102885714D01*
X159257143Y-102838095D01*
X159161905Y-102790476D01*
X158352381Y-102790476D01*
X158685714Y-101885714D02*
X159352381Y-101885714D01*
X158304762Y-102123810D02*
X159019048Y-102361905D01*
X159019048Y-101742857D01*
X132252381Y-117766666D02*
X132252381Y-118242857D01*
X131252381Y-118242857D01*
X132252381Y-116909523D02*
X132252381Y-117480952D01*
X132252381Y-117195238D02*
X131252381Y-117195238D01*
X131395238Y-117290476D01*
X131490476Y-117385714D01*
X131538095Y-117480952D01*
X126352381Y-105742857D02*
X125876190Y-106076191D01*
X126352381Y-106314286D02*
X125352381Y-106314286D01*
X125352381Y-105933333D01*
X125400000Y-105838095D01*
X125447619Y-105790476D01*
X125542857Y-105742857D01*
X125685714Y-105742857D01*
X125780952Y-105790476D01*
X125828571Y-105838095D01*
X125876190Y-105933333D01*
X125876190Y-106314286D01*
X126352381Y-104790476D02*
X126352381Y-105361905D01*
X126352381Y-105076191D02*
X125352381Y-105076191D01*
X125495238Y-105171429D01*
X125590476Y-105266667D01*
X125638095Y-105361905D01*
X125352381Y-103933333D02*
X125352381Y-104123810D01*
X125400000Y-104219048D01*
X125447619Y-104266667D01*
X125590476Y-104361905D01*
X125780952Y-104409524D01*
X126161905Y-104409524D01*
X126257143Y-104361905D01*
X126304762Y-104314286D01*
X126352381Y-104219048D01*
X126352381Y-104028571D01*
X126304762Y-103933333D01*
X126257143Y-103885714D01*
X126161905Y-103838095D01*
X125923810Y-103838095D01*
X125828571Y-103885714D01*
X125780952Y-103933333D01*
X125733333Y-104028571D01*
X125733333Y-104219048D01*
X125780952Y-104314286D01*
X125828571Y-104361905D01*
X125923810Y-104409524D01*
X132057143Y-101652381D02*
X131723809Y-101176190D01*
X131485714Y-101652381D02*
X131485714Y-100652381D01*
X131866667Y-100652381D01*
X131961905Y-100700000D01*
X132009524Y-100747619D01*
X132057143Y-100842857D01*
X132057143Y-100985714D01*
X132009524Y-101080952D01*
X131961905Y-101128571D01*
X131866667Y-101176190D01*
X131485714Y-101176190D01*
X133009524Y-101652381D02*
X132438095Y-101652381D01*
X132723809Y-101652381D02*
X132723809Y-100652381D01*
X132628571Y-100795238D01*
X132533333Y-100890476D01*
X132438095Y-100938095D01*
X133342857Y-100652381D02*
X134009524Y-100652381D01*
X133580952Y-101652381D01*
X126257143Y-102242857D02*
X126304762Y-102290476D01*
X126352381Y-102433333D01*
X126352381Y-102528571D01*
X126304762Y-102671429D01*
X126209524Y-102766667D01*
X126114286Y-102814286D01*
X125923810Y-102861905D01*
X125780952Y-102861905D01*
X125590476Y-102814286D01*
X125495238Y-102766667D01*
X125400000Y-102671429D01*
X125352381Y-102528571D01*
X125352381Y-102433333D01*
X125400000Y-102290476D01*
X125447619Y-102242857D01*
X126352381Y-101290476D02*
X126352381Y-101861905D01*
X126352381Y-101576191D02*
X125352381Y-101576191D01*
X125495238Y-101671429D01*
X125590476Y-101766667D01*
X125638095Y-101861905D01*
X126352381Y-100338095D02*
X126352381Y-100909524D01*
X126352381Y-100623810D02*
X125352381Y-100623810D01*
X125495238Y-100719048D01*
X125590476Y-100814286D01*
X125638095Y-100909524D01*
D17*
X102744857Y-105616857D02*
X102962571Y-105689429D01*
X103325428Y-105689429D01*
X103470571Y-105616857D01*
X103543142Y-105544286D01*
X103615714Y-105399143D01*
X103615714Y-105254000D01*
X103543142Y-105108857D01*
X103470571Y-105036286D01*
X103325428Y-104963714D01*
X103035142Y-104891143D01*
X102890000Y-104818571D01*
X102817428Y-104746000D01*
X102744857Y-104600857D01*
X102744857Y-104455714D01*
X102817428Y-104310571D01*
X102890000Y-104238000D01*
X103035142Y-104165429D01*
X103398000Y-104165429D01*
X103615714Y-104238000D01*
X104268857Y-105689429D02*
X104268857Y-104165429D01*
X104776857Y-105254000D01*
X105284857Y-104165429D01*
X105284857Y-105689429D01*
X105938000Y-105254000D02*
X106663714Y-105254000D01*
X105792857Y-105689429D02*
X106300857Y-104165429D01*
X106808857Y-105689429D01*
X106954000Y-105834571D02*
X108115143Y-105834571D01*
X108478000Y-104891143D02*
X108986000Y-104891143D01*
X109203714Y-105689429D02*
X108478000Y-105689429D01*
X108478000Y-104165429D01*
X109203714Y-104165429D01*
X110655143Y-105689429D02*
X109784286Y-105689429D01*
X110219714Y-105689429D02*
X110219714Y-104165429D01*
X110074571Y-104383143D01*
X109929429Y-104528286D01*
X109784286Y-104600857D01*
%LPC*%
D18*
X115250000Y-118020000D03*
X115250000Y-115480000D03*
D19*
X123700000Y-119075000D03*
X123700000Y-117575000D03*
D20*
X121800000Y-118225000D03*
X121800000Y-115225000D03*
D21*
X126950000Y-116325000D03*
X125450000Y-116325000D03*
D22*
X127900000Y-113225000D03*
X124900000Y-113225000D03*
D23*
X130600000Y-112875000D03*
X130600000Y-111375000D03*
X128400000Y-121275000D03*
X128400000Y-122775000D03*
D24*
X125200000Y-118475000D03*
X125200000Y-118975000D03*
X125200000Y-119475000D03*
X125200000Y-119975000D03*
X127000000Y-119975000D03*
X127000000Y-119475000D03*
X127000000Y-118975000D03*
X127000000Y-118475000D03*
D25*
X126100000Y-119665000D03*
X126100000Y-118785000D03*
D21*
X126950000Y-115025000D03*
X125450000Y-115025000D03*
D23*
X122000000Y-111775000D03*
X122000000Y-110275000D03*
D26*
X127050000Y-123150000D03*
X125550000Y-123150000D03*
X127050000Y-121650000D03*
X125550000Y-121650000D03*
D21*
X142550000Y-99700000D03*
X144050000Y-99700000D03*
D19*
X137750000Y-112500000D03*
X137750000Y-114000000D03*
X139250000Y-112500000D03*
X139250000Y-114000000D03*
D21*
X143950000Y-101500000D03*
X145450000Y-101500000D03*
D22*
X146400000Y-97700000D03*
X143400000Y-97700000D03*
D21*
X131250000Y-105000000D03*
X129750000Y-105000000D03*
D22*
X139800000Y-116100000D03*
X136800000Y-116100000D03*
D19*
X145600000Y-114250000D03*
X145600000Y-112750000D03*
D27*
X150200000Y-98549300D03*
X150200000Y-97050700D03*
X152500000Y-98549300D03*
X152500000Y-97050700D03*
D28*
X135200000Y-110250000D03*
X136000000Y-110250000D03*
X136800000Y-110250000D03*
X137600000Y-110250000D03*
X138400000Y-110250000D03*
X139200000Y-110250000D03*
X140000000Y-110250000D03*
X140800000Y-110250000D03*
D29*
X142250000Y-108800000D03*
X142250000Y-108000000D03*
X142250000Y-107200000D03*
X142250000Y-106400000D03*
X142250000Y-105600000D03*
X142250000Y-104800000D03*
X142250000Y-104000000D03*
X142250000Y-103200000D03*
D28*
X140800000Y-101750000D03*
X140000000Y-101750000D03*
X139200000Y-101750000D03*
X138400000Y-101750000D03*
X137600000Y-101750000D03*
X136800000Y-101750000D03*
X136000000Y-101750000D03*
X135200000Y-101750000D03*
D29*
X133750000Y-103200000D03*
X133750000Y-104000000D03*
X133750000Y-104800000D03*
X133750000Y-105600000D03*
X133750000Y-106400000D03*
X133750000Y-107200000D03*
X133750000Y-108000000D03*
X133750000Y-108800000D03*
D30*
X144400000Y-120500000D03*
D31*
X141860000Y-120500000D03*
X139320000Y-120500000D03*
X136780000Y-120500000D03*
X134240000Y-120500000D03*
D30*
X132800000Y-98800000D03*
D31*
X135340000Y-98800000D03*
X137880000Y-98800000D03*
X140420000Y-98800000D03*
D23*
X147000000Y-117050000D03*
X147000000Y-118550000D03*
D26*
X131250000Y-103000000D03*
X129750000Y-103000000D03*
X148250000Y-105000000D03*
X146750000Y-105000000D03*
X148250000Y-103250000D03*
X146750000Y-103250000D03*
X148250000Y-101500000D03*
X146750000Y-101500000D03*
X129750000Y-106600000D03*
X131250000Y-106600000D03*
X129750000Y-108300000D03*
X131250000Y-108300000D03*
X152850000Y-100400000D03*
X151350000Y-100400000D03*
X150150000Y-100000000D03*
X148650000Y-100000000D03*
X148250000Y-107100000D03*
X146750000Y-107100000D03*
X148250000Y-108700000D03*
X146750000Y-108700000D03*
X148250000Y-110300000D03*
X146750000Y-110300000D03*
D32*
X161700000Y-113200160D03*
X161700000Y-120799840D03*
D33*
X143649760Y-117749960D03*
X144300000Y-117749960D03*
X144950240Y-117749960D03*
X144950240Y-115850040D03*
X144300000Y-115850040D03*
X143649760Y-115850040D03*
D34*
X143250000Y-111050000D03*
X143250000Y-112000000D03*
X143250000Y-112950000D03*
D35*
X118898840Y-111750000D03*
X114601160Y-111750000D03*
D36*
X115001020Y-121750000D03*
X118998980Y-121750000D03*
D37*
X122239720Y-96500000D03*
X119400000Y-96500000D03*
D38*
X155100000Y-102600000D03*
X155100000Y-100100000D03*
X155100000Y-105100000D03*
X159950000Y-97200000D03*
X159950000Y-108000000D03*
D39*
X158900000Y-105100000D03*
X158900000Y-100100000D03*
D40*
X126000000Y-98800000D03*
D41*
X128540000Y-98800000D03*
D42*
X129400000Y-116500000D03*
X129400000Y-118700000D03*
D23*
X127500000Y-104000000D03*
X127500000Y-105500000D03*
X130500000Y-100050000D03*
X130500000Y-101550000D03*
D19*
X127500000Y-102700000D03*
X127500000Y-101200000D03*
D43*
X154530000Y-111785000D03*
X157070000Y-113055000D03*
X154530000Y-114325000D03*
X157070000Y-115595000D03*
X154530000Y-116865000D03*
X157070000Y-118135000D03*
X154530000Y-119405000D03*
X157070000Y-120675000D03*
X154530000Y-121945000D03*
X157070000Y-123215000D03*
D44*
X156330000Y-110385000D03*
D45*
X115600000Y-108100000D03*
X115600000Y-99300000D03*
M02*
