G04 #@! TF.FileFunction,Copper,L2,Bot,Signal*
%FSLAX46Y46*%
G04 Gerber Fmt 4.6, Leading zero omitted, Abs format (unit mm)*
G04 Created by KiCad (PCBNEW (2016-03-18 BZR 6629)-product) date Fr 15 Apr 2016 01:16:20 CEST*
%MOMM*%
G01*
G04 APERTURE LIST*
%ADD10C,0.100000*%
%ADD11O,3.500120X1.800860*%
%ADD12O,3.500000X1.600000*%
%ADD13R,1.727200X2.032000*%
%ADD14O,1.727200X2.032000*%
%ADD15C,2.000000*%
%ADD16R,2.032000X2.032000*%
%ADD17O,2.032000X2.032000*%
%ADD18C,1.450000*%
%ADD19R,4.572000X2.413000*%
%ADD20R,4.071620X2.200000*%
%ADD21C,0.600000*%
%ADD22C,0.800000*%
%ADD23C,1.016000*%
%ADD24C,0.406400*%
%ADD25C,0.508000*%
%ADD26C,0.254000*%
%ADD27C,0.250000*%
%ADD28C,0.203200*%
%ADD29C,0.200000*%
G04 APERTURE END LIST*
D10*
D11*
X115250000Y-118020000D03*
X115250000Y-115480000D03*
D12*
X121260000Y-107170000D03*
X121260000Y-104630000D03*
X121260000Y-102090000D03*
X150060000Y-102090000D03*
X150060000Y-104630000D03*
X150060000Y-107170000D03*
X150060000Y-109710000D03*
X150060000Y-112250000D03*
X150060000Y-114790000D03*
X150060000Y-117330000D03*
X150060000Y-119870000D03*
X150060000Y-122410000D03*
D13*
X144400000Y-120500000D03*
D14*
X141860000Y-120500000D03*
X139320000Y-120500000D03*
X136780000Y-120500000D03*
X134240000Y-120500000D03*
D13*
X132800000Y-98800000D03*
D14*
X135340000Y-98800000D03*
X137880000Y-98800000D03*
X140420000Y-98800000D03*
D15*
X161700000Y-113200160D03*
X161700000Y-120799840D03*
D16*
X126000000Y-98800000D03*
D17*
X128540000Y-98800000D03*
D18*
X154530000Y-111785000D03*
X157070000Y-113055000D03*
X154530000Y-114325000D03*
X157070000Y-115595000D03*
X154530000Y-116865000D03*
X157070000Y-118135000D03*
X154530000Y-119405000D03*
X157070000Y-120675000D03*
X154530000Y-121945000D03*
X157070000Y-123215000D03*
D19*
X115600000Y-108100000D03*
D10*
G36*
X113808190Y-102730510D02*
X113808190Y-104729490D01*
X113307810Y-104130050D01*
X113307810Y-103329950D01*
X113808190Y-102730510D01*
X113808190Y-102730510D01*
G37*
D19*
X115600000Y-99300000D03*
D20*
X115844000Y-103730000D03*
D21*
X158800000Y-108000000D03*
X129300000Y-103000000D03*
X121260000Y-107170000D03*
X143800000Y-97700000D03*
X149200000Y-97200000D03*
X146200000Y-112600000D03*
X141212895Y-112939127D03*
X139250000Y-114000000D03*
X121200000Y-102100000D03*
X128000000Y-120325000D03*
X128100000Y-115925000D03*
X146102833Y-114020552D03*
X131761631Y-112503487D03*
X146400000Y-98906400D03*
X138500000Y-112500000D03*
X127500000Y-106000000D03*
X126000000Y-107500000D03*
D22*
X119250000Y-118250000D03*
X119000000Y-113250000D03*
D21*
X154100000Y-102700000D03*
X137700000Y-106600000D03*
X137135136Y-107615658D03*
X155100000Y-106100000D03*
X146750000Y-103250000D03*
X145900000Y-105500000D03*
X145061384Y-105405504D03*
X145500000Y-103200000D03*
X135966563Y-106505232D03*
X154100000Y-100100000D03*
X127006116Y-108298931D03*
X129750000Y-108300000D03*
X142908954Y-116803992D03*
X142655774Y-118797870D03*
X145267633Y-115819241D03*
X133068060Y-118955820D03*
X129400000Y-112825000D03*
X127000000Y-117525000D03*
X124400000Y-120625000D03*
X125100000Y-120625000D03*
X124900000Y-117525000D03*
X126100000Y-117925000D03*
X125500000Y-117525000D03*
X126200000Y-120750000D03*
X148115998Y-115769392D03*
X145883273Y-119869483D03*
X143344860Y-115474700D03*
X147000000Y-115369218D03*
X135225872Y-104517662D03*
X137000000Y-104100000D03*
X148100000Y-100000000D03*
X149200000Y-115100000D03*
X138784476Y-108419197D03*
X136923721Y-103173035D03*
X131800000Y-103000000D03*
X150100000Y-102100000D03*
X150060000Y-104630000D03*
X149900000Y-107100000D03*
X151600000Y-100500000D03*
X142300000Y-102200000D03*
X137763135Y-103693109D03*
X137715585Y-104569790D03*
D23*
X121260000Y-107170000D02*
X121260000Y-107540000D01*
X121260000Y-107540000D02*
X120700000Y-108100000D01*
X120700000Y-108100000D02*
X115600000Y-108100000D01*
X121260000Y-102090000D02*
X121260000Y-100960000D01*
X119600000Y-99300000D02*
X115600000Y-99300000D01*
X121260000Y-100960000D02*
X119600000Y-99300000D01*
D24*
X128540000Y-98800000D02*
X130087780Y-100347780D01*
X130087780Y-100347780D02*
X134317740Y-100347780D01*
X134317740Y-100347780D02*
X135340000Y-99325520D01*
X135340000Y-99325520D02*
X135340000Y-98952400D01*
X138700000Y-113450000D02*
X139250000Y-114000000D01*
X138700000Y-113400000D02*
X138700000Y-113450000D01*
X132100000Y-120800000D02*
X132100000Y-114100000D01*
X133900000Y-122600000D02*
X132100000Y-120800000D01*
X143722400Y-122600000D02*
X133900000Y-122600000D01*
X144400000Y-121922400D02*
X143722400Y-122600000D01*
X144400000Y-120500000D02*
X144400000Y-121922400D01*
X132100000Y-114100000D02*
X132800000Y-113400000D01*
X132800000Y-113400000D02*
X138700000Y-113400000D01*
D25*
X144400000Y-120652400D02*
X144400000Y-120500000D01*
D26*
X158800000Y-108000000D02*
X158200000Y-108000000D01*
X158200000Y-108000000D02*
X157100000Y-109100000D01*
D25*
X147200000Y-111595224D02*
X147194317Y-111595224D01*
X147194317Y-111595224D02*
X146200000Y-112589541D01*
X146200000Y-112589541D02*
X146200000Y-112600000D01*
X150060000Y-109710000D02*
X149085224Y-109710000D01*
X149085224Y-109710000D02*
X147200000Y-111595224D01*
D24*
X132792400Y-101500000D02*
X129100000Y-101500000D01*
X129100000Y-101500000D02*
X127800000Y-101500000D01*
D26*
X129300000Y-103000000D02*
X129300000Y-101700000D01*
X129300000Y-101700000D02*
X129100000Y-101500000D01*
D24*
X135340000Y-98952400D02*
X135340000Y-98800000D01*
X148700000Y-97700000D02*
X143800000Y-97700000D01*
X149200000Y-97200000D02*
X148700000Y-97700000D01*
X155100000Y-109100000D02*
X154490000Y-109710000D01*
X154490000Y-109710000D02*
X150060000Y-109710000D01*
X157100000Y-109100000D02*
X155100000Y-109100000D01*
X157794999Y-109794999D02*
X157100000Y-109100000D01*
X157070000Y-113055000D02*
X157794999Y-112330001D01*
X157794999Y-112330001D02*
X157794999Y-109794999D01*
X140152022Y-114000000D02*
X141212895Y-112939127D01*
X139250000Y-114000000D02*
X140152022Y-114000000D01*
X135340000Y-98952400D02*
X132792400Y-101500000D01*
D25*
X150060000Y-122410000D02*
X146157600Y-122410000D01*
X146157600Y-122410000D02*
X144400000Y-120652400D01*
D26*
X121200000Y-102100000D02*
X121210000Y-102090000D01*
X121210000Y-102090000D02*
X121260000Y-102090000D01*
D24*
X127200000Y-102100000D02*
X127800000Y-101500000D01*
X123426400Y-102100000D02*
X127200000Y-102100000D01*
X121260000Y-102090000D02*
X123416400Y-102090000D01*
X123416400Y-102090000D02*
X123426400Y-102100000D01*
D26*
X127700000Y-116325000D02*
X127700000Y-117925000D01*
X127700000Y-117925000D02*
X127300000Y-118325000D01*
X127300000Y-118325000D02*
X127300000Y-120125000D01*
X127300000Y-120125000D02*
X127500000Y-120325000D01*
X127500000Y-120325000D02*
X128000000Y-120325000D01*
X127700000Y-116325000D02*
X128100000Y-115925000D01*
D25*
X147339448Y-114020552D02*
X146527097Y-114020552D01*
X149110000Y-112250000D02*
X147339448Y-114020552D01*
X146527097Y-114020552D02*
X146102833Y-114020552D01*
X150060000Y-112250000D02*
X149110000Y-112250000D01*
X138500000Y-112500000D02*
X131765118Y-112500000D01*
X131765118Y-112500000D02*
X131761631Y-112503487D01*
D24*
X141100000Y-97000000D02*
X143006400Y-98906400D01*
X143006400Y-98906400D02*
X146400000Y-98906400D01*
X134447600Y-97000000D02*
X141100000Y-97000000D01*
X132800000Y-98800000D02*
X132800000Y-98647600D01*
X132800000Y-98647600D02*
X134447600Y-97000000D01*
X132800000Y-98800000D02*
X133391535Y-98800000D01*
X150060000Y-112250000D02*
X154065000Y-112250000D01*
X154065000Y-112250000D02*
X154530000Y-111785000D01*
D27*
X126000000Y-107500000D02*
X127500000Y-106000000D01*
D23*
X119250000Y-113500000D02*
X119250000Y-118250000D01*
X119000000Y-113250000D02*
X119250000Y-113500000D01*
D26*
X137700000Y-106600000D02*
X138124264Y-106600000D01*
X138124264Y-106600000D02*
X138367054Y-106357210D01*
X146391880Y-106587410D02*
X146939500Y-106039790D01*
X138367054Y-106357210D02*
X144433800Y-106357210D01*
X144433800Y-106357210D02*
X144664001Y-106587411D01*
X146960210Y-106039790D02*
X147100000Y-105900000D01*
X144664001Y-106587411D02*
X146391880Y-106587410D01*
X147100000Y-105900000D02*
X152141865Y-105900000D01*
X146939500Y-106039790D02*
X146960210Y-106039790D01*
X152141865Y-105900000D02*
X153000000Y-105041865D01*
X153000000Y-105041865D02*
X153000000Y-103000000D01*
X153300000Y-102700000D02*
X154100000Y-102700000D01*
X153000000Y-103000000D02*
X153300000Y-102700000D01*
X155100000Y-106100000D02*
X152773222Y-108426778D01*
X152773222Y-108426778D02*
X140026778Y-108426778D01*
X140026778Y-108426778D02*
X139282285Y-107682285D01*
X139282285Y-107682285D02*
X137201763Y-107682285D01*
X137201763Y-107682285D02*
X137135136Y-107615658D01*
X145900000Y-105500000D02*
X146750000Y-104650000D01*
X146750000Y-104650000D02*
X146750000Y-103250000D01*
X145500000Y-104966888D02*
X145061384Y-105405504D01*
X145500000Y-103200000D02*
X145500000Y-104966888D01*
X136571795Y-105900000D02*
X136266562Y-106205233D01*
X147207209Y-104192791D02*
X147207209Y-105125489D01*
X144623182Y-105900000D02*
X136571795Y-105900000D01*
X144853383Y-106130201D02*
X144623182Y-105900000D01*
X147207209Y-105125489D02*
X146202497Y-106130201D01*
X146202497Y-106130201D02*
X144853383Y-106130201D01*
X148000000Y-103400000D02*
X147207209Y-104192791D01*
X136266562Y-106205233D02*
X135966563Y-106505232D01*
X154100000Y-100100000D02*
X154100000Y-101100708D01*
X154100000Y-101100708D02*
X151800708Y-103400000D01*
X151800708Y-103400000D02*
X148000000Y-103400000D01*
D24*
X127007185Y-108300000D02*
X127006116Y-108298931D01*
X129750000Y-108300000D02*
X127007185Y-108300000D01*
D26*
X145267633Y-115819241D02*
X145263823Y-115823051D01*
X145263823Y-115823051D02*
X144314159Y-115823051D01*
X144314159Y-115823051D02*
X143333218Y-116803992D01*
X143333218Y-116803992D02*
X142908954Y-116803992D01*
X142497824Y-118955820D02*
X142655774Y-118797870D01*
X133068060Y-118955820D02*
X142497824Y-118955820D01*
X128800000Y-112825000D02*
X129400000Y-112825000D01*
X127000000Y-114625000D02*
X128800000Y-112825000D01*
X127000000Y-117525000D02*
X127000000Y-114625000D01*
X113558000Y-103730000D02*
X115844000Y-103730000D01*
D23*
X121260000Y-104630000D02*
X119230000Y-104630000D01*
X118330000Y-103730000D02*
X115844000Y-103730000D01*
X119230000Y-104630000D02*
X118330000Y-103730000D01*
D26*
X121165160Y-104535160D02*
X121260000Y-104630000D01*
D25*
X121150000Y-104520000D02*
X121260000Y-104630000D01*
D28*
X125100000Y-120625000D02*
X124400000Y-120625000D01*
D26*
X148415997Y-116069391D02*
X148115998Y-115769392D01*
X152805000Y-115595000D02*
X152330609Y-116069391D01*
X157070000Y-115595000D02*
X152805000Y-115595000D01*
X152330609Y-116069391D02*
X148415997Y-116069391D01*
X145883790Y-119870000D02*
X145883273Y-119869483D01*
X150060000Y-119870000D02*
X145883790Y-119870000D01*
D28*
X143344860Y-114424783D02*
X143344860Y-115050436D01*
D26*
X143644859Y-115174701D02*
X143344860Y-115474700D01*
D28*
X143344860Y-115050436D02*
X143344860Y-115474700D01*
D26*
X146381219Y-115174701D02*
X143644859Y-115174701D01*
D28*
X143500000Y-114269643D02*
X143344860Y-114424783D01*
D26*
X146575736Y-115369218D02*
X146381219Y-115174701D01*
X147000000Y-115369218D02*
X146575736Y-115369218D01*
X143500000Y-114269643D02*
X143500000Y-113172938D01*
X143500000Y-113172938D02*
X139912878Y-109585816D01*
X139912878Y-109585816D02*
X135673448Y-109585816D01*
X135673448Y-109585816D02*
X135225872Y-109138240D01*
X135225872Y-109138240D02*
X135225872Y-104517662D01*
X137200000Y-105200000D02*
X137000000Y-105000000D01*
X137000000Y-105000000D02*
X137000000Y-104100000D01*
X138300000Y-105200000D02*
X137200000Y-105200000D01*
X143500000Y-100000000D02*
X138300000Y-105200000D01*
X148100000Y-100000000D02*
X143500000Y-100000000D01*
X149200000Y-115100000D02*
X149510000Y-114790000D01*
X149510000Y-114790000D02*
X150060000Y-114790000D01*
X148150000Y-114790000D02*
X150060000Y-114790000D01*
D28*
X147982253Y-114665453D02*
X146101788Y-114665453D01*
X145561591Y-114623857D02*
X139356931Y-108419197D01*
X146101788Y-114665453D02*
X146060192Y-114623857D01*
X148150000Y-114790000D02*
X148106800Y-114790000D01*
X139208740Y-108419197D02*
X138784476Y-108419197D01*
X146060192Y-114623857D02*
X145561591Y-114623857D01*
X148106800Y-114790000D02*
X147982253Y-114665453D01*
X139356931Y-108419197D02*
X139208740Y-108419197D01*
D26*
X150060000Y-114790000D02*
X150060000Y-114971014D01*
X134138462Y-109344014D02*
X134138461Y-103714947D01*
X139969852Y-110557210D02*
X135351658Y-110557210D01*
X142278753Y-112866111D02*
X139969852Y-110557210D01*
X142278753Y-117106487D02*
X142278753Y-112866111D01*
X143738498Y-118566232D02*
X142278753Y-117106487D01*
X154238302Y-120675000D02*
X152129534Y-118566232D01*
X157070000Y-120675000D02*
X154238302Y-120675000D01*
X135351658Y-110557210D02*
X134138462Y-109344014D01*
X152129534Y-118566232D02*
X143738498Y-118566232D01*
X136381809Y-103714947D02*
X136923721Y-103173035D01*
X134138461Y-103714947D02*
X136381809Y-103714947D01*
X131800000Y-103000000D02*
X133423514Y-103000000D01*
X133423514Y-103000000D02*
X134138461Y-103714947D01*
D28*
X150100000Y-102100000D02*
X150090000Y-102090000D01*
X150090000Y-102090000D02*
X150060000Y-102090000D01*
X150970000Y-104630000D02*
X150060000Y-104630000D01*
X151000000Y-104600000D02*
X150970000Y-104630000D01*
X149900000Y-107100000D02*
X149970000Y-107170000D01*
X149970000Y-107170000D02*
X150060000Y-107170000D01*
D26*
X150957684Y-100718052D02*
X151175736Y-100500000D01*
X143781948Y-100718052D02*
X150957684Y-100718052D01*
X142300000Y-102200000D02*
X143781948Y-100718052D01*
X151175736Y-100500000D02*
X151600000Y-100500000D01*
X137880000Y-98800000D02*
X137880000Y-103576244D01*
X137880000Y-103576244D02*
X137763135Y-103693109D01*
X138139849Y-104569790D02*
X137715585Y-104569790D01*
X140420000Y-98800000D02*
X140420000Y-102289639D01*
X140420000Y-102289639D02*
X138139849Y-104569790D01*
D24*
X150060000Y-117330000D02*
X152216400Y-117330000D01*
X152216400Y-117330000D02*
X153021400Y-118135000D01*
X153021400Y-118135000D02*
X157070000Y-118135000D01*
D26*
G36*
X128773000Y-112319647D02*
X128753300Y-112321579D01*
X128706552Y-112325669D01*
X128703986Y-112326414D01*
X128701329Y-112326675D01*
X128656411Y-112340237D01*
X128611344Y-112353330D01*
X128608973Y-112354559D01*
X128606416Y-112355331D01*
X128564966Y-112377370D01*
X128523323Y-112398956D01*
X128521237Y-112400621D01*
X128518877Y-112401876D01*
X128482488Y-112431554D01*
X128445840Y-112460810D01*
X128442120Y-112464477D01*
X128442046Y-112464538D01*
X128441989Y-112464607D01*
X128440789Y-112465790D01*
X126640790Y-114265790D01*
X126611024Y-114302028D01*
X126580842Y-114337997D01*
X126579554Y-114340339D01*
X126577860Y-114342402D01*
X126555690Y-114383749D01*
X126533079Y-114424878D01*
X126532272Y-114427423D01*
X126531009Y-114429778D01*
X126517284Y-114474670D01*
X126503101Y-114519381D01*
X126502803Y-114522034D01*
X126502022Y-114524590D01*
X126497276Y-114571313D01*
X126492050Y-114617907D01*
X126492013Y-114623127D01*
X126492003Y-114623227D01*
X126492012Y-114623321D01*
X126492000Y-114625000D01*
X126492000Y-117069280D01*
X126475800Y-117085144D01*
X126400348Y-117195338D01*
X126347736Y-117318090D01*
X126319970Y-117448722D01*
X126318105Y-117582260D01*
X126342213Y-117713617D01*
X126391377Y-117837790D01*
X126463722Y-117950048D01*
X126556495Y-118046117D01*
X126666160Y-118122336D01*
X126788541Y-118175803D01*
X126815074Y-118181637D01*
X126803101Y-118219381D01*
X126802803Y-118222034D01*
X126802022Y-118224590D01*
X126797276Y-118271313D01*
X126792050Y-118317907D01*
X126792013Y-118323127D01*
X126792003Y-118323227D01*
X126792012Y-118323321D01*
X126792000Y-118325000D01*
X126792000Y-120125000D01*
X126796579Y-120171704D01*
X126800669Y-120218448D01*
X126801414Y-120221014D01*
X126801675Y-120223671D01*
X126815227Y-120268556D01*
X126828329Y-120313655D01*
X126829560Y-120316029D01*
X126830331Y-120318584D01*
X126852340Y-120359977D01*
X126873955Y-120401677D01*
X126875623Y-120403766D01*
X126876876Y-120406123D01*
X126906552Y-120442509D01*
X126935810Y-120479159D01*
X126939473Y-120482874D01*
X126939538Y-120482954D01*
X126939612Y-120483015D01*
X126940790Y-120484210D01*
X127140790Y-120684210D01*
X127177028Y-120713976D01*
X127212997Y-120744158D01*
X127215339Y-120745446D01*
X127217402Y-120747140D01*
X127258731Y-120769300D01*
X127299878Y-120791921D01*
X127302426Y-120792729D01*
X127304779Y-120793991D01*
X127349656Y-120807711D01*
X127394381Y-120821899D01*
X127397034Y-120822197D01*
X127399590Y-120822978D01*
X127446313Y-120827724D01*
X127492907Y-120832950D01*
X127498127Y-120832987D01*
X127498227Y-120832997D01*
X127498321Y-120832988D01*
X127500000Y-120833000D01*
X127543828Y-120833000D01*
X127556495Y-120846117D01*
X127666160Y-120922336D01*
X127788541Y-120975803D01*
X127918977Y-121004481D01*
X128052498Y-121007278D01*
X128184020Y-120984087D01*
X128308533Y-120935792D01*
X128421294Y-120864232D01*
X128518008Y-120772132D01*
X128594991Y-120663002D01*
X128649311Y-120540997D01*
X128678899Y-120410765D01*
X128681029Y-120258225D01*
X128655089Y-120127217D01*
X128604197Y-120003743D01*
X128530291Y-119892506D01*
X128436186Y-119797742D01*
X128325467Y-119723061D01*
X128202352Y-119671308D01*
X128071528Y-119644454D01*
X127937981Y-119643521D01*
X127808000Y-119668316D01*
X127808000Y-118535420D01*
X128059210Y-118284211D01*
X128088997Y-118247948D01*
X128119158Y-118212003D01*
X128120446Y-118209661D01*
X128122140Y-118207598D01*
X128144291Y-118166286D01*
X128166921Y-118125122D01*
X128167730Y-118122572D01*
X128168990Y-118120222D01*
X128182701Y-118075376D01*
X128196899Y-118030619D01*
X128197197Y-118027966D01*
X128197978Y-118025410D01*
X128202724Y-117978682D01*
X128207950Y-117932093D01*
X128207987Y-117926875D01*
X128207997Y-117926774D01*
X128207988Y-117926680D01*
X128208000Y-117925000D01*
X128208000Y-116597491D01*
X128284020Y-116584087D01*
X128408533Y-116535792D01*
X128521294Y-116464232D01*
X128618008Y-116372132D01*
X128694991Y-116263002D01*
X128749311Y-116140997D01*
X128778899Y-116010765D01*
X128781029Y-115858225D01*
X128755089Y-115727217D01*
X128704197Y-115603743D01*
X128630291Y-115492506D01*
X128536186Y-115397742D01*
X128425467Y-115323061D01*
X128302352Y-115271308D01*
X128171528Y-115244454D01*
X128037981Y-115243521D01*
X127906795Y-115268546D01*
X127782969Y-115318575D01*
X127671218Y-115391703D01*
X127575800Y-115485144D01*
X127508000Y-115584163D01*
X127508000Y-114835420D01*
X128980571Y-113362850D01*
X129066160Y-113422336D01*
X129188541Y-113475803D01*
X129318977Y-113504481D01*
X129423911Y-113506679D01*
X131373000Y-114406259D01*
X131373000Y-123498000D01*
X123963797Y-123498000D01*
X120827000Y-119282930D01*
X120827000Y-111252000D01*
X128773000Y-111252000D01*
X128773000Y-112319647D01*
X128773000Y-112319647D01*
G37*
X128773000Y-112319647D02*
X128753300Y-112321579D01*
X128706552Y-112325669D01*
X128703986Y-112326414D01*
X128701329Y-112326675D01*
X128656411Y-112340237D01*
X128611344Y-112353330D01*
X128608973Y-112354559D01*
X128606416Y-112355331D01*
X128564966Y-112377370D01*
X128523323Y-112398956D01*
X128521237Y-112400621D01*
X128518877Y-112401876D01*
X128482488Y-112431554D01*
X128445840Y-112460810D01*
X128442120Y-112464477D01*
X128442046Y-112464538D01*
X128441989Y-112464607D01*
X128440789Y-112465790D01*
X126640790Y-114265790D01*
X126611024Y-114302028D01*
X126580842Y-114337997D01*
X126579554Y-114340339D01*
X126577860Y-114342402D01*
X126555690Y-114383749D01*
X126533079Y-114424878D01*
X126532272Y-114427423D01*
X126531009Y-114429778D01*
X126517284Y-114474670D01*
X126503101Y-114519381D01*
X126502803Y-114522034D01*
X126502022Y-114524590D01*
X126497276Y-114571313D01*
X126492050Y-114617907D01*
X126492013Y-114623127D01*
X126492003Y-114623227D01*
X126492012Y-114623321D01*
X126492000Y-114625000D01*
X126492000Y-117069280D01*
X126475800Y-117085144D01*
X126400348Y-117195338D01*
X126347736Y-117318090D01*
X126319970Y-117448722D01*
X126318105Y-117582260D01*
X126342213Y-117713617D01*
X126391377Y-117837790D01*
X126463722Y-117950048D01*
X126556495Y-118046117D01*
X126666160Y-118122336D01*
X126788541Y-118175803D01*
X126815074Y-118181637D01*
X126803101Y-118219381D01*
X126802803Y-118222034D01*
X126802022Y-118224590D01*
X126797276Y-118271313D01*
X126792050Y-118317907D01*
X126792013Y-118323127D01*
X126792003Y-118323227D01*
X126792012Y-118323321D01*
X126792000Y-118325000D01*
X126792000Y-120125000D01*
X126796579Y-120171704D01*
X126800669Y-120218448D01*
X126801414Y-120221014D01*
X126801675Y-120223671D01*
X126815227Y-120268556D01*
X126828329Y-120313655D01*
X126829560Y-120316029D01*
X126830331Y-120318584D01*
X126852340Y-120359977D01*
X126873955Y-120401677D01*
X126875623Y-120403766D01*
X126876876Y-120406123D01*
X126906552Y-120442509D01*
X126935810Y-120479159D01*
X126939473Y-120482874D01*
X126939538Y-120482954D01*
X126939612Y-120483015D01*
X126940790Y-120484210D01*
X127140790Y-120684210D01*
X127177028Y-120713976D01*
X127212997Y-120744158D01*
X127215339Y-120745446D01*
X127217402Y-120747140D01*
X127258731Y-120769300D01*
X127299878Y-120791921D01*
X127302426Y-120792729D01*
X127304779Y-120793991D01*
X127349656Y-120807711D01*
X127394381Y-120821899D01*
X127397034Y-120822197D01*
X127399590Y-120822978D01*
X127446313Y-120827724D01*
X127492907Y-120832950D01*
X127498127Y-120832987D01*
X127498227Y-120832997D01*
X127498321Y-120832988D01*
X127500000Y-120833000D01*
X127543828Y-120833000D01*
X127556495Y-120846117D01*
X127666160Y-120922336D01*
X127788541Y-120975803D01*
X127918977Y-121004481D01*
X128052498Y-121007278D01*
X128184020Y-120984087D01*
X128308533Y-120935792D01*
X128421294Y-120864232D01*
X128518008Y-120772132D01*
X128594991Y-120663002D01*
X128649311Y-120540997D01*
X128678899Y-120410765D01*
X128681029Y-120258225D01*
X128655089Y-120127217D01*
X128604197Y-120003743D01*
X128530291Y-119892506D01*
X128436186Y-119797742D01*
X128325467Y-119723061D01*
X128202352Y-119671308D01*
X128071528Y-119644454D01*
X127937981Y-119643521D01*
X127808000Y-119668316D01*
X127808000Y-118535420D01*
X128059210Y-118284211D01*
X128088997Y-118247948D01*
X128119158Y-118212003D01*
X128120446Y-118209661D01*
X128122140Y-118207598D01*
X128144291Y-118166286D01*
X128166921Y-118125122D01*
X128167730Y-118122572D01*
X128168990Y-118120222D01*
X128182701Y-118075376D01*
X128196899Y-118030619D01*
X128197197Y-118027966D01*
X128197978Y-118025410D01*
X128202724Y-117978682D01*
X128207950Y-117932093D01*
X128207987Y-117926875D01*
X128207997Y-117926774D01*
X128207988Y-117926680D01*
X128208000Y-117925000D01*
X128208000Y-116597491D01*
X128284020Y-116584087D01*
X128408533Y-116535792D01*
X128521294Y-116464232D01*
X128618008Y-116372132D01*
X128694991Y-116263002D01*
X128749311Y-116140997D01*
X128778899Y-116010765D01*
X128781029Y-115858225D01*
X128755089Y-115727217D01*
X128704197Y-115603743D01*
X128630291Y-115492506D01*
X128536186Y-115397742D01*
X128425467Y-115323061D01*
X128302352Y-115271308D01*
X128171528Y-115244454D01*
X128037981Y-115243521D01*
X127906795Y-115268546D01*
X127782969Y-115318575D01*
X127671218Y-115391703D01*
X127575800Y-115485144D01*
X127508000Y-115584163D01*
X127508000Y-114835420D01*
X128980571Y-113362850D01*
X129066160Y-113422336D01*
X129188541Y-113475803D01*
X129318977Y-113504481D01*
X129423911Y-113506679D01*
X131373000Y-114406259D01*
X131373000Y-123498000D01*
X123963797Y-123498000D01*
X120827000Y-119282930D01*
X120827000Y-111252000D01*
X128773000Y-111252000D01*
X128773000Y-112319647D01*
D29*
G36*
X163096000Y-124096000D02*
X157695563Y-124096000D01*
X157737513Y-124069378D01*
X157890750Y-123923452D01*
X158012725Y-123750542D01*
X158098791Y-123557233D01*
X158145672Y-123350889D01*
X158149046Y-123109199D01*
X158107946Y-122901626D01*
X158027310Y-122705989D01*
X157910211Y-122529741D01*
X157761108Y-122379593D01*
X157585682Y-122261267D01*
X157390613Y-122179267D01*
X157183332Y-122136718D01*
X156971734Y-122135241D01*
X156763879Y-122174892D01*
X156567685Y-122254159D01*
X156390623Y-122370025D01*
X156239439Y-122518076D01*
X156119890Y-122692673D01*
X156036531Y-122887164D01*
X155992536Y-123094143D01*
X155989582Y-123305725D01*
X156027780Y-123513852D01*
X156105676Y-123710595D01*
X156220303Y-123888461D01*
X156367295Y-124040676D01*
X156446896Y-124096000D01*
X113404000Y-124096000D01*
X113404000Y-118785825D01*
X113493933Y-118897679D01*
X113681477Y-119055047D01*
X113896016Y-119172991D01*
X114129378Y-119247018D01*
X114372674Y-119274308D01*
X114390189Y-119274430D01*
X116109811Y-119274430D01*
X116353464Y-119250540D01*
X116587837Y-119179778D01*
X116804002Y-119064841D01*
X116993725Y-118910107D01*
X117149781Y-118721468D01*
X117266224Y-118506111D01*
X117338620Y-118272238D01*
X117364210Y-118028758D01*
X117342022Y-117784943D01*
X117272898Y-117550082D01*
X117159473Y-117333120D01*
X117006067Y-117142321D01*
X116818523Y-116984953D01*
X116603984Y-116867009D01*
X116370622Y-116792982D01*
X116127326Y-116765692D01*
X116109811Y-116765570D01*
X114390189Y-116765570D01*
X114146536Y-116789460D01*
X113912163Y-116860222D01*
X113695998Y-116975159D01*
X113506275Y-117129893D01*
X113404000Y-117253522D01*
X113404000Y-116245825D01*
X113493933Y-116357679D01*
X113681477Y-116515047D01*
X113896016Y-116632991D01*
X114129378Y-116707018D01*
X114372674Y-116734308D01*
X114390189Y-116734430D01*
X116109811Y-116734430D01*
X116353464Y-116710540D01*
X116587837Y-116639778D01*
X116804002Y-116524841D01*
X116993725Y-116370107D01*
X117149781Y-116181468D01*
X117266224Y-115966111D01*
X117338620Y-115732238D01*
X117364210Y-115488758D01*
X117342022Y-115244943D01*
X117272898Y-115010082D01*
X117159473Y-114793120D01*
X117006067Y-114602321D01*
X116818523Y-114444953D01*
X116603984Y-114327009D01*
X116370622Y-114252982D01*
X116127326Y-114225692D01*
X116109811Y-114225570D01*
X114390189Y-114225570D01*
X114146536Y-114249460D01*
X113912163Y-114320222D01*
X113695998Y-114435159D01*
X113506275Y-114589893D01*
X113404000Y-114713522D01*
X113404000Y-113240974D01*
X118138047Y-113240974D01*
X118152709Y-113408566D01*
X118199645Y-113570119D01*
X118277066Y-113719479D01*
X118382023Y-113850957D01*
X118388000Y-113857017D01*
X118388000Y-118250000D01*
X118404417Y-118417430D01*
X118453041Y-118578483D01*
X118532022Y-118727024D01*
X118638350Y-118857395D01*
X118767976Y-118964630D01*
X118915962Y-119044646D01*
X119076671Y-119094394D01*
X119243982Y-119111979D01*
X119411523Y-119096732D01*
X119572911Y-119049232D01*
X119721999Y-118971291D01*
X119853110Y-118865875D01*
X119961248Y-118737002D01*
X120042295Y-118589578D01*
X120093163Y-118429220D01*
X120111916Y-118262035D01*
X120112000Y-118250000D01*
X120112000Y-113500000D01*
X120104227Y-113420727D01*
X120097290Y-113341434D01*
X120096025Y-113337081D01*
X120095583Y-113332570D01*
X120072572Y-113256353D01*
X120050355Y-113179880D01*
X120048269Y-113175855D01*
X120046959Y-113171517D01*
X120009578Y-113101215D01*
X119972934Y-113030521D01*
X119970106Y-113026979D01*
X119967978Y-113022976D01*
X119917632Y-112961246D01*
X119867976Y-112899043D01*
X119861758Y-112892737D01*
X119861650Y-112892605D01*
X119861527Y-112892504D01*
X119859526Y-112890474D01*
X119609526Y-112640474D01*
X119479527Y-112533692D01*
X119331263Y-112454192D01*
X119170380Y-112405006D01*
X119003009Y-112388005D01*
X118835523Y-112403838D01*
X118674301Y-112451900D01*
X118525485Y-112530361D01*
X118394744Y-112636233D01*
X118287056Y-112765484D01*
X118206525Y-112913190D01*
X118156217Y-113073724D01*
X118138047Y-113240974D01*
X113404000Y-113240974D01*
X113404000Y-111125000D01*
X120346000Y-111125000D01*
X120346000Y-119325000D01*
X120356750Y-119411576D01*
X120416009Y-119536342D01*
X123616009Y-123836342D01*
X123764530Y-123952053D01*
X123900000Y-123979000D01*
X131500000Y-123979000D01*
X131635470Y-123952053D01*
X131750316Y-123875316D01*
X131827053Y-123760470D01*
X131854000Y-123625000D01*
X131854000Y-123016260D01*
X147839207Y-123016260D01*
X147988517Y-123354037D01*
X148194238Y-123554688D01*
X148435152Y-123711349D01*
X148702000Y-123818000D01*
X149652000Y-123818000D01*
X149652000Y-122810000D01*
X150468000Y-122810000D01*
X150468000Y-123818000D01*
X151418000Y-123818000D01*
X151684848Y-123711349D01*
X151925762Y-123554688D01*
X152131483Y-123354037D01*
X152280793Y-123016260D01*
X152200603Y-122810000D01*
X150468000Y-122810000D01*
X149652000Y-122810000D01*
X147919397Y-122810000D01*
X147839207Y-123016260D01*
X131854000Y-123016260D01*
X131854000Y-114325000D01*
X131832173Y-114202620D01*
X131760056Y-114084819D01*
X131648347Y-114003582D01*
X129928825Y-113209956D01*
X129971401Y-113149601D01*
X130023567Y-113032433D01*
X130051982Y-112907364D01*
X130054028Y-112760872D01*
X130029116Y-112635059D01*
X129997552Y-112558477D01*
X131106772Y-112558477D01*
X131129924Y-112684626D01*
X131177139Y-112803875D01*
X131246616Y-112911683D01*
X131335710Y-113003943D01*
X131441027Y-113077140D01*
X131558556Y-113128487D01*
X131683820Y-113156028D01*
X131812048Y-113158714D01*
X131938355Y-113136443D01*
X132011685Y-113108000D01*
X138258013Y-113108000D01*
X138296925Y-113125000D01*
X138422189Y-113152541D01*
X138550417Y-113155227D01*
X138676724Y-113132956D01*
X138796300Y-113086575D01*
X138904591Y-113017852D01*
X138997470Y-112929404D01*
X139071401Y-112824601D01*
X139123567Y-112707433D01*
X139151982Y-112582364D01*
X139154028Y-112435872D01*
X139129116Y-112310059D01*
X139080241Y-112191480D01*
X139009266Y-112084653D01*
X138918892Y-111993646D01*
X138812563Y-111921927D01*
X138694329Y-111872225D01*
X138568692Y-111846436D01*
X138440440Y-111845541D01*
X138314455Y-111869573D01*
X138258947Y-111892000D01*
X131994707Y-111892000D01*
X131955960Y-111875712D01*
X131830323Y-111849923D01*
X131702071Y-111849028D01*
X131576086Y-111873060D01*
X131457170Y-111921106D01*
X131349850Y-111991334D01*
X131258214Y-112081070D01*
X131185754Y-112186896D01*
X131135228Y-112304780D01*
X131108562Y-112430234D01*
X131106772Y-112558477D01*
X129997552Y-112558477D01*
X129980241Y-112516480D01*
X129909266Y-112409653D01*
X129818892Y-112318646D01*
X129712563Y-112246927D01*
X129594329Y-112197225D01*
X129468692Y-112171436D01*
X129340440Y-112170541D01*
X129254000Y-112187030D01*
X129254000Y-111125000D01*
X129227053Y-110989530D01*
X129150316Y-110874684D01*
X129035470Y-110797947D01*
X128900000Y-110771000D01*
X120700000Y-110771000D01*
X120564530Y-110797947D01*
X120449684Y-110874684D01*
X120372947Y-110989530D01*
X120346000Y-111125000D01*
X113404000Y-111125000D01*
X113404000Y-109914500D01*
X115040000Y-109914500D01*
X115192000Y-109762500D01*
X115192000Y-108508000D01*
X116008000Y-108508000D01*
X116008000Y-109762500D01*
X116160000Y-109914500D01*
X117945883Y-109914500D01*
X118063347Y-109891135D01*
X118173996Y-109845303D01*
X118273578Y-109778764D01*
X118358265Y-109694077D01*
X118424803Y-109594496D01*
X118470635Y-109483847D01*
X118494000Y-109366383D01*
X118494000Y-108660000D01*
X118342000Y-108508000D01*
X116008000Y-108508000D01*
X115192000Y-108508000D01*
X115172000Y-108508000D01*
X115172000Y-107776260D01*
X119039207Y-107776260D01*
X119188517Y-108114037D01*
X119394238Y-108314688D01*
X119635152Y-108471349D01*
X119902000Y-108578000D01*
X120852000Y-108578000D01*
X120852000Y-107570000D01*
X121668000Y-107570000D01*
X121668000Y-108578000D01*
X122618000Y-108578000D01*
X122884848Y-108471349D01*
X123125762Y-108314688D01*
X123331483Y-108114037D01*
X123480793Y-107776260D01*
X123400603Y-107570000D01*
X121668000Y-107570000D01*
X120852000Y-107570000D01*
X119119397Y-107570000D01*
X119039207Y-107776260D01*
X115172000Y-107776260D01*
X115172000Y-107692000D01*
X115192000Y-107692000D01*
X115192000Y-106437500D01*
X116008000Y-106437500D01*
X116008000Y-107692000D01*
X118342000Y-107692000D01*
X118479010Y-107554990D01*
X125345141Y-107554990D01*
X125368293Y-107681139D01*
X125415508Y-107800388D01*
X125484985Y-107908196D01*
X125574079Y-108000456D01*
X125679396Y-108073653D01*
X125796925Y-108125000D01*
X125922189Y-108152541D01*
X126050417Y-108155227D01*
X126176724Y-108132956D01*
X126296300Y-108086575D01*
X126404591Y-108017852D01*
X126422209Y-108001074D01*
X126379713Y-108100224D01*
X126353047Y-108225678D01*
X126351257Y-108353921D01*
X126374409Y-108480070D01*
X126421624Y-108599319D01*
X126491101Y-108707127D01*
X126580195Y-108799387D01*
X126685512Y-108872584D01*
X126803041Y-108923931D01*
X126928305Y-108951472D01*
X127056533Y-108954158D01*
X127182840Y-108931887D01*
X127302416Y-108885506D01*
X127347019Y-108857200D01*
X129405723Y-108857200D01*
X129429396Y-108873653D01*
X129546925Y-108925000D01*
X129672189Y-108952541D01*
X129800417Y-108955227D01*
X129926724Y-108932956D01*
X130046300Y-108886575D01*
X130154591Y-108817852D01*
X130247470Y-108729404D01*
X130321401Y-108624601D01*
X130373567Y-108507433D01*
X130401982Y-108382364D01*
X130404028Y-108235872D01*
X130379116Y-108110059D01*
X130330241Y-107991480D01*
X130259266Y-107884653D01*
X130168892Y-107793646D01*
X130062563Y-107721927D01*
X129944329Y-107672225D01*
X129818692Y-107646436D01*
X129690440Y-107645541D01*
X129564455Y-107669573D01*
X129445539Y-107717619D01*
X129407058Y-107742800D01*
X127351210Y-107742800D01*
X127318679Y-107720858D01*
X127200445Y-107671156D01*
X127074808Y-107645367D01*
X126946556Y-107644472D01*
X126820571Y-107668504D01*
X126701655Y-107716550D01*
X126594335Y-107786778D01*
X126583530Y-107797359D01*
X126623567Y-107707433D01*
X126651982Y-107582364D01*
X126652788Y-107524620D01*
X127522760Y-106654648D01*
X127550417Y-106655227D01*
X127676724Y-106632956D01*
X127796300Y-106586575D01*
X127904591Y-106517852D01*
X127997470Y-106429404D01*
X128071401Y-106324601D01*
X128123567Y-106207433D01*
X128151982Y-106082364D01*
X128154028Y-105935872D01*
X128129116Y-105810059D01*
X128080241Y-105691480D01*
X128009266Y-105584653D01*
X127918892Y-105493646D01*
X127812563Y-105421927D01*
X127694329Y-105372225D01*
X127568692Y-105346436D01*
X127440440Y-105345541D01*
X127314455Y-105369573D01*
X127195539Y-105417619D01*
X127088219Y-105487847D01*
X126996583Y-105577583D01*
X126924123Y-105683409D01*
X126873597Y-105801293D01*
X126846931Y-105926747D01*
X126846239Y-105976353D01*
X125976797Y-106845795D01*
X125940440Y-106845541D01*
X125814455Y-106869573D01*
X125695539Y-106917619D01*
X125588219Y-106987847D01*
X125496583Y-107077583D01*
X125424123Y-107183409D01*
X125373597Y-107301293D01*
X125346931Y-107426747D01*
X125345141Y-107554990D01*
X118479010Y-107554990D01*
X118494000Y-107540000D01*
X118494000Y-106833617D01*
X118470635Y-106716153D01*
X118424803Y-106605504D01*
X118358265Y-106505923D01*
X118273578Y-106421236D01*
X118173996Y-106354697D01*
X118063347Y-106308865D01*
X117945883Y-106285500D01*
X116160000Y-106285500D01*
X116008000Y-106437500D01*
X115192000Y-106437500D01*
X115040000Y-106285500D01*
X113404000Y-106285500D01*
X113404000Y-104800368D01*
X113455654Y-104862249D01*
X113459313Y-104899396D01*
X113479555Y-104966125D01*
X113512426Y-105027623D01*
X113556664Y-105081526D01*
X113610567Y-105125764D01*
X113672065Y-105158635D01*
X113738794Y-105178877D01*
X113808190Y-105185712D01*
X117879810Y-105185712D01*
X117949206Y-105178877D01*
X118015935Y-105158635D01*
X118077433Y-105125764D01*
X118131336Y-105081526D01*
X118175574Y-105027623D01*
X118208445Y-104966125D01*
X118228687Y-104899396D01*
X118233319Y-104852371D01*
X118620474Y-105239526D01*
X118681976Y-105290044D01*
X118742998Y-105341248D01*
X118746974Y-105343434D01*
X118750473Y-105346308D01*
X118820633Y-105383928D01*
X118890422Y-105422295D01*
X118894740Y-105423665D01*
X118898737Y-105425808D01*
X118974921Y-105449100D01*
X119050780Y-105473163D01*
X119055283Y-105473668D01*
X119059620Y-105474994D01*
X119138868Y-105483044D01*
X119217965Y-105491916D01*
X119226822Y-105491978D01*
X119226991Y-105491995D01*
X119227149Y-105491980D01*
X119230000Y-105492000D01*
X119540375Y-105492000D01*
X119647848Y-105582181D01*
X119845211Y-105690682D01*
X120059890Y-105758782D01*
X120088578Y-105762000D01*
X119902000Y-105762000D01*
X119635152Y-105868651D01*
X119394238Y-106025312D01*
X119188517Y-106225963D01*
X119039207Y-106563740D01*
X119119397Y-106770000D01*
X120852000Y-106770000D01*
X120852000Y-106742000D01*
X121668000Y-106742000D01*
X121668000Y-106770000D01*
X123400603Y-106770000D01*
X123480793Y-106563740D01*
X123331483Y-106225963D01*
X123125762Y-106025312D01*
X122884848Y-105868651D01*
X122618000Y-105762000D01*
X122444399Y-105762000D01*
X122659935Y-105696926D01*
X122858794Y-105591191D01*
X123033328Y-105448845D01*
X123176889Y-105275309D01*
X123284010Y-105077193D01*
X123350610Y-104862044D01*
X123374152Y-104638056D01*
X123353739Y-104413762D01*
X123290150Y-104197704D01*
X123185806Y-103998112D01*
X123044681Y-103822589D01*
X122872152Y-103677819D01*
X122674789Y-103569318D01*
X122460110Y-103501218D01*
X122431422Y-103498000D01*
X122618000Y-103498000D01*
X122884848Y-103391349D01*
X123125762Y-103234688D01*
X123310000Y-103054990D01*
X131145141Y-103054990D01*
X131168293Y-103181139D01*
X131215508Y-103300388D01*
X131284985Y-103408196D01*
X131374079Y-103500456D01*
X131479396Y-103573653D01*
X131596925Y-103625000D01*
X131722189Y-103652541D01*
X131850417Y-103655227D01*
X131976724Y-103632956D01*
X132096300Y-103586575D01*
X132204591Y-103517852D01*
X132243289Y-103481000D01*
X133224278Y-103481000D01*
X133657461Y-103914184D01*
X133657462Y-109344014D01*
X133661798Y-109388237D01*
X133665670Y-109432495D01*
X133666376Y-109434927D01*
X133666623Y-109437441D01*
X133679457Y-109479951D01*
X133691860Y-109522642D01*
X133693024Y-109524887D01*
X133693755Y-109527309D01*
X133714606Y-109566523D01*
X133735061Y-109605985D01*
X133736641Y-109607964D01*
X133737827Y-109610195D01*
X133765913Y-109644633D01*
X133793628Y-109679350D01*
X133797094Y-109682864D01*
X133797158Y-109682943D01*
X133797231Y-109683003D01*
X133798344Y-109684132D01*
X135011539Y-110897328D01*
X135045860Y-110925519D01*
X135079909Y-110954090D01*
X135082129Y-110955310D01*
X135084080Y-110956913D01*
X135123201Y-110977890D01*
X135162172Y-110999314D01*
X135164583Y-111000079D01*
X135166812Y-111001274D01*
X135209286Y-111014259D01*
X135251652Y-111027699D01*
X135254167Y-111027981D01*
X135256584Y-111028720D01*
X135300774Y-111033209D01*
X135344942Y-111038163D01*
X135349885Y-111038198D01*
X135349978Y-111038207D01*
X135350064Y-111038199D01*
X135351658Y-111038210D01*
X139770616Y-111038210D01*
X141797753Y-113065347D01*
X141797753Y-117106487D01*
X141802089Y-117150710D01*
X141805961Y-117194968D01*
X141806667Y-117197400D01*
X141806914Y-117199914D01*
X141819748Y-117242424D01*
X141832151Y-117285115D01*
X141833315Y-117287360D01*
X141834046Y-117289782D01*
X141854897Y-117328996D01*
X141875352Y-117368458D01*
X141876932Y-117370437D01*
X141878118Y-117372668D01*
X141906204Y-117407106D01*
X141933919Y-117441823D01*
X141937385Y-117445337D01*
X141937449Y-117445416D01*
X141937522Y-117445476D01*
X141938635Y-117446605D01*
X142635717Y-118143687D01*
X142596214Y-118143411D01*
X142470229Y-118167443D01*
X142351313Y-118215489D01*
X142243993Y-118285717D01*
X142152357Y-118375453D01*
X142084320Y-118474820D01*
X133512130Y-118474820D01*
X133486952Y-118449466D01*
X133380623Y-118377747D01*
X133262389Y-118328045D01*
X133136752Y-118302256D01*
X133008500Y-118301361D01*
X132882515Y-118325393D01*
X132763599Y-118373439D01*
X132656279Y-118443667D01*
X132564643Y-118533403D01*
X132492183Y-118639229D01*
X132441657Y-118757113D01*
X132414991Y-118882567D01*
X132413201Y-119010810D01*
X132436353Y-119136959D01*
X132483568Y-119256208D01*
X132553045Y-119364016D01*
X132642139Y-119456276D01*
X132747456Y-119529473D01*
X132864985Y-119580820D01*
X132990249Y-119608361D01*
X133118477Y-119611047D01*
X133244784Y-119588776D01*
X133310763Y-119563184D01*
X133235342Y-119653067D01*
X133120861Y-119861307D01*
X133049007Y-120087818D01*
X133022519Y-120323971D01*
X133022400Y-120340971D01*
X133022400Y-120659029D01*
X133045589Y-120895529D01*
X133114273Y-121123020D01*
X133225835Y-121332839D01*
X133376027Y-121516992D01*
X133559127Y-121668465D01*
X133768161Y-121781490D01*
X133995168Y-121851760D01*
X134231500Y-121876599D01*
X134468155Y-121855062D01*
X134696121Y-121787968D01*
X134906713Y-121677873D01*
X135091910Y-121528971D01*
X135244658Y-121346933D01*
X135359139Y-121138693D01*
X135430993Y-120912182D01*
X135457481Y-120676029D01*
X135457600Y-120659029D01*
X135457600Y-120340971D01*
X135434411Y-120104471D01*
X135365727Y-119876980D01*
X135254165Y-119667161D01*
X135103973Y-119483008D01*
X135048141Y-119436820D01*
X135970637Y-119436820D01*
X135928090Y-119471029D01*
X135775342Y-119653067D01*
X135660861Y-119861307D01*
X135589007Y-120087818D01*
X135562519Y-120323971D01*
X135562400Y-120340971D01*
X135562400Y-120659029D01*
X135585589Y-120895529D01*
X135654273Y-121123020D01*
X135765835Y-121332839D01*
X135916027Y-121516992D01*
X136099127Y-121668465D01*
X136308161Y-121781490D01*
X136535168Y-121851760D01*
X136771500Y-121876599D01*
X137008155Y-121855062D01*
X137236121Y-121787968D01*
X137446713Y-121677873D01*
X137631910Y-121528971D01*
X137784658Y-121346933D01*
X137899139Y-121138693D01*
X137970993Y-120912182D01*
X137997481Y-120676029D01*
X137997600Y-120659029D01*
X137997600Y-120340971D01*
X137974411Y-120104471D01*
X137905727Y-119876980D01*
X137794165Y-119667161D01*
X137643973Y-119483008D01*
X137588141Y-119436820D01*
X138510637Y-119436820D01*
X138468090Y-119471029D01*
X138315342Y-119653067D01*
X138200861Y-119861307D01*
X138129007Y-120087818D01*
X138102519Y-120323971D01*
X138102400Y-120340971D01*
X138102400Y-120659029D01*
X138125589Y-120895529D01*
X138194273Y-121123020D01*
X138305835Y-121332839D01*
X138456027Y-121516992D01*
X138639127Y-121668465D01*
X138848161Y-121781490D01*
X139075168Y-121851760D01*
X139311500Y-121876599D01*
X139548155Y-121855062D01*
X139776121Y-121787968D01*
X139986713Y-121677873D01*
X140171910Y-121528971D01*
X140324658Y-121346933D01*
X140439139Y-121138693D01*
X140510993Y-120912182D01*
X140537481Y-120676029D01*
X140537600Y-120659029D01*
X140537600Y-120340971D01*
X140514411Y-120104471D01*
X140445727Y-119876980D01*
X140334165Y-119667161D01*
X140183973Y-119483008D01*
X140128141Y-119436820D01*
X141050637Y-119436820D01*
X141008090Y-119471029D01*
X140855342Y-119653067D01*
X140740861Y-119861307D01*
X140669007Y-120087818D01*
X140642519Y-120323971D01*
X140642400Y-120340971D01*
X140642400Y-120659029D01*
X140665589Y-120895529D01*
X140734273Y-121123020D01*
X140845835Y-121332839D01*
X140996027Y-121516992D01*
X141179127Y-121668465D01*
X141388161Y-121781490D01*
X141615168Y-121851760D01*
X141851500Y-121876599D01*
X142088155Y-121855062D01*
X142316121Y-121787968D01*
X142526713Y-121677873D01*
X142711910Y-121528971D01*
X142864658Y-121346933D01*
X142928400Y-121230987D01*
X142928400Y-121575883D01*
X142951765Y-121693347D01*
X142997597Y-121803996D01*
X143064136Y-121903578D01*
X143148823Y-121988265D01*
X143248404Y-122054803D01*
X143359053Y-122100635D01*
X143476517Y-122124000D01*
X143840000Y-122124000D01*
X143992000Y-121972000D01*
X143992000Y-120908000D01*
X143972000Y-120908000D01*
X143972000Y-120092000D01*
X143992000Y-120092000D01*
X143992000Y-120072000D01*
X144808000Y-120072000D01*
X144808000Y-120092000D01*
X144828000Y-120092000D01*
X144828000Y-120908000D01*
X144808000Y-120908000D01*
X144808000Y-121972000D01*
X144960000Y-122124000D01*
X145323483Y-122124000D01*
X145440947Y-122100635D01*
X145551596Y-122054803D01*
X145651177Y-121988265D01*
X145735864Y-121903578D01*
X145802403Y-121803996D01*
X145848235Y-121693347D01*
X145871600Y-121575883D01*
X145871600Y-121060000D01*
X145719602Y-120908002D01*
X145871600Y-120908002D01*
X145871600Y-120523409D01*
X145933690Y-120524710D01*
X146059997Y-120502439D01*
X146179573Y-120456058D01*
X146287864Y-120387335D01*
X146326019Y-120351000D01*
X148055312Y-120351000D01*
X148134194Y-120501888D01*
X148275319Y-120677411D01*
X148447848Y-120822181D01*
X148645211Y-120930682D01*
X148859890Y-120998782D01*
X148888578Y-121002000D01*
X148702000Y-121002000D01*
X148435152Y-121108651D01*
X148194238Y-121265312D01*
X147988517Y-121465963D01*
X147839207Y-121803740D01*
X147919397Y-122010000D01*
X149652000Y-122010000D01*
X149652000Y-121982000D01*
X150468000Y-121982000D01*
X150468000Y-122010000D01*
X152200603Y-122010000D01*
X152280793Y-121803740D01*
X152131483Y-121465963D01*
X151925762Y-121265312D01*
X151684848Y-121108651D01*
X151418000Y-121002000D01*
X151244399Y-121002000D01*
X151459935Y-120936926D01*
X151658794Y-120831191D01*
X151833328Y-120688845D01*
X151976889Y-120515309D01*
X152084010Y-120317193D01*
X152150610Y-120102044D01*
X152174152Y-119878056D01*
X152153739Y-119653762D01*
X152090150Y-119437704D01*
X151985806Y-119238112D01*
X151844681Y-119062589D01*
X151826379Y-119047232D01*
X151930298Y-119047232D01*
X153898183Y-121015118D01*
X153932504Y-121043309D01*
X153934603Y-121045070D01*
X153850623Y-121100025D01*
X153699439Y-121248076D01*
X153579890Y-121422673D01*
X153496531Y-121617164D01*
X153452536Y-121824143D01*
X153449582Y-122035725D01*
X153487780Y-122243852D01*
X153565676Y-122440595D01*
X153680303Y-122618461D01*
X153827295Y-122770676D01*
X154001052Y-122891440D01*
X154194957Y-122976155D01*
X154401624Y-123021594D01*
X154613180Y-123026026D01*
X154821569Y-122989281D01*
X155018851Y-122912760D01*
X155197513Y-122799378D01*
X155350750Y-122653452D01*
X155472725Y-122480542D01*
X155558791Y-122287233D01*
X155605672Y-122080889D01*
X155609046Y-121839199D01*
X155567946Y-121631626D01*
X155487310Y-121435989D01*
X155370211Y-121259741D01*
X155267192Y-121156000D01*
X156099897Y-121156000D01*
X156105676Y-121170595D01*
X156220303Y-121348461D01*
X156367295Y-121500676D01*
X156541052Y-121621440D01*
X156734957Y-121706155D01*
X156941624Y-121751594D01*
X157153180Y-121756026D01*
X157361569Y-121719281D01*
X157558851Y-121642760D01*
X157737513Y-121529378D01*
X157890750Y-121383452D01*
X158012725Y-121210542D01*
X158098791Y-121017233D01*
X158122316Y-120913688D01*
X160344221Y-120913688D01*
X160392154Y-121174859D01*
X160489904Y-121421745D01*
X160633745Y-121644943D01*
X160818200Y-121835952D01*
X161036242Y-121987495D01*
X161279567Y-122093801D01*
X161538905Y-122150820D01*
X161804380Y-122156381D01*
X162065879Y-122110272D01*
X162313442Y-122014249D01*
X162537639Y-121871969D01*
X162729930Y-121688852D01*
X162882992Y-121471873D01*
X162990994Y-121229297D01*
X163049823Y-120970362D01*
X163054058Y-120667073D01*
X163002482Y-120406597D01*
X162901295Y-120161100D01*
X162754351Y-119939932D01*
X162567248Y-119751517D01*
X162347111Y-119603033D01*
X162102326Y-119500135D01*
X161842216Y-119446742D01*
X161576690Y-119444888D01*
X161315860Y-119494644D01*
X161069662Y-119594115D01*
X160847474Y-119739511D01*
X160657757Y-119925295D01*
X160507740Y-120144390D01*
X160403135Y-120388450D01*
X160347928Y-120648181D01*
X160344221Y-120913688D01*
X158122316Y-120913688D01*
X158145672Y-120810889D01*
X158149046Y-120569199D01*
X158107946Y-120361626D01*
X158027310Y-120165989D01*
X157910211Y-119989741D01*
X157761108Y-119839593D01*
X157585682Y-119721267D01*
X157390613Y-119639267D01*
X157183332Y-119596718D01*
X156971734Y-119595241D01*
X156763879Y-119634892D01*
X156567685Y-119714159D01*
X156390623Y-119830025D01*
X156239439Y-119978076D01*
X156119890Y-120152673D01*
X156102177Y-120194000D01*
X155266166Y-120194000D01*
X155350750Y-120113452D01*
X155472725Y-119940542D01*
X155558791Y-119747233D01*
X155605672Y-119540889D01*
X155609046Y-119299199D01*
X155567946Y-119091626D01*
X155487310Y-118895989D01*
X155370211Y-118719741D01*
X155342862Y-118692200D01*
X156145378Y-118692200D01*
X156220303Y-118808461D01*
X156367295Y-118960676D01*
X156541052Y-119081440D01*
X156734957Y-119166155D01*
X156941624Y-119211594D01*
X157153180Y-119216026D01*
X157361569Y-119179281D01*
X157558851Y-119102760D01*
X157737513Y-118989378D01*
X157890750Y-118843452D01*
X158012725Y-118670542D01*
X158098791Y-118477233D01*
X158145672Y-118270889D01*
X158149046Y-118029199D01*
X158107946Y-117821626D01*
X158027310Y-117625989D01*
X157910211Y-117449741D01*
X157761108Y-117299593D01*
X157585682Y-117181267D01*
X157390613Y-117099267D01*
X157183332Y-117056718D01*
X156971734Y-117055241D01*
X156763879Y-117094892D01*
X156567685Y-117174159D01*
X156390623Y-117290025D01*
X156239439Y-117438076D01*
X156143768Y-117577800D01*
X155346184Y-117577800D01*
X155350750Y-117573452D01*
X155472725Y-117400542D01*
X155558791Y-117207233D01*
X155605672Y-117000889D01*
X155609046Y-116759199D01*
X155567946Y-116551626D01*
X155487310Y-116355989D01*
X155370211Y-116179741D01*
X155267192Y-116076000D01*
X156099897Y-116076000D01*
X156105676Y-116090595D01*
X156220303Y-116268461D01*
X156367295Y-116420676D01*
X156541052Y-116541440D01*
X156734957Y-116626155D01*
X156941624Y-116671594D01*
X157153180Y-116676026D01*
X157361569Y-116639281D01*
X157558851Y-116562760D01*
X157737513Y-116449378D01*
X157890750Y-116303452D01*
X158012725Y-116130542D01*
X158098791Y-115937233D01*
X158145672Y-115730889D01*
X158149046Y-115489199D01*
X158107946Y-115281626D01*
X158027310Y-115085989D01*
X157910211Y-114909741D01*
X157761108Y-114759593D01*
X157585682Y-114641267D01*
X157390613Y-114559267D01*
X157183332Y-114516718D01*
X156971734Y-114515241D01*
X156763879Y-114554892D01*
X156567685Y-114634159D01*
X156390623Y-114750025D01*
X156239439Y-114898076D01*
X156119890Y-115072673D01*
X156102177Y-115114000D01*
X155266166Y-115114000D01*
X155350750Y-115033452D01*
X155472725Y-114860542D01*
X155558791Y-114667233D01*
X155605672Y-114460889D01*
X155609046Y-114219199D01*
X155587603Y-114110899D01*
X156526754Y-114110899D01*
X156605340Y-114311271D01*
X156859355Y-114377783D01*
X157121464Y-114393461D01*
X157381596Y-114357702D01*
X157534660Y-114311271D01*
X157613246Y-114110899D01*
X157070000Y-113567652D01*
X156526754Y-114110899D01*
X155587603Y-114110899D01*
X155567946Y-114011626D01*
X155487310Y-113815989D01*
X155370211Y-113639741D01*
X155221108Y-113489593D01*
X155045682Y-113371267D01*
X154850613Y-113289267D01*
X154643332Y-113246718D01*
X154431734Y-113245241D01*
X154223879Y-113284892D01*
X154027685Y-113364159D01*
X153850623Y-113480025D01*
X153699439Y-113628076D01*
X153579890Y-113802673D01*
X153496531Y-113997164D01*
X153452536Y-114204143D01*
X153449582Y-114415725D01*
X153487780Y-114623852D01*
X153565676Y-114820595D01*
X153680303Y-114998461D01*
X153791877Y-115114000D01*
X152805000Y-115114000D01*
X152760777Y-115118336D01*
X152716519Y-115122208D01*
X152714087Y-115122914D01*
X152711573Y-115123161D01*
X152669016Y-115136009D01*
X152626372Y-115148399D01*
X152624131Y-115149561D01*
X152621705Y-115150293D01*
X152582456Y-115171163D01*
X152543029Y-115191599D01*
X152541050Y-115193179D01*
X152538819Y-115194365D01*
X152504381Y-115222451D01*
X152469664Y-115250166D01*
X152466150Y-115253632D01*
X152466071Y-115253696D01*
X152466011Y-115253769D01*
X152464882Y-115254882D01*
X152131373Y-115588391D01*
X151850249Y-115588391D01*
X151976889Y-115435309D01*
X152084010Y-115237193D01*
X152150610Y-115022044D01*
X152174152Y-114798056D01*
X152153739Y-114573762D01*
X152090150Y-114357704D01*
X151985806Y-114158112D01*
X151844681Y-113982589D01*
X151672152Y-113837819D01*
X151474789Y-113729318D01*
X151260110Y-113661218D01*
X151036292Y-113636112D01*
X151020180Y-113636000D01*
X149099820Y-113636000D01*
X148875674Y-113657978D01*
X148660065Y-113723074D01*
X148461206Y-113828809D01*
X148286672Y-113971155D01*
X148143111Y-114144691D01*
X148098759Y-114226718D01*
X148076978Y-114219809D01*
X148074594Y-114219542D01*
X148072306Y-114218842D01*
X148030493Y-114214595D01*
X148007794Y-114212048D01*
X148845595Y-113374247D01*
X148859890Y-113378782D01*
X149083708Y-113403888D01*
X149099820Y-113404000D01*
X151020180Y-113404000D01*
X151244326Y-113382022D01*
X151459935Y-113316926D01*
X151658794Y-113211191D01*
X151787202Y-113106464D01*
X155731539Y-113106464D01*
X155767298Y-113366596D01*
X155813729Y-113519660D01*
X156014101Y-113598246D01*
X156557348Y-113055000D01*
X157582652Y-113055000D01*
X158125899Y-113598246D01*
X158326271Y-113519660D01*
X158380119Y-113314008D01*
X160344221Y-113314008D01*
X160392154Y-113575179D01*
X160489904Y-113822065D01*
X160633745Y-114045263D01*
X160818200Y-114236272D01*
X161036242Y-114387815D01*
X161279567Y-114494121D01*
X161538905Y-114551140D01*
X161804380Y-114556701D01*
X162065879Y-114510592D01*
X162313442Y-114414569D01*
X162537639Y-114272289D01*
X162729930Y-114089172D01*
X162882992Y-113872193D01*
X162990994Y-113629617D01*
X163049823Y-113370682D01*
X163054058Y-113067393D01*
X163002482Y-112806917D01*
X162901295Y-112561420D01*
X162754351Y-112340252D01*
X162567248Y-112151837D01*
X162347111Y-112003353D01*
X162102326Y-111900455D01*
X161842216Y-111847062D01*
X161576690Y-111845208D01*
X161315860Y-111894964D01*
X161069662Y-111994435D01*
X160847474Y-112139831D01*
X160657757Y-112325615D01*
X160507740Y-112544710D01*
X160403135Y-112788770D01*
X160347928Y-113048501D01*
X160344221Y-113314008D01*
X158380119Y-113314008D01*
X158392783Y-113265645D01*
X158408461Y-113003536D01*
X158372702Y-112743404D01*
X158326271Y-112590340D01*
X158125899Y-112511754D01*
X157582652Y-113055000D01*
X156557348Y-113055000D01*
X156014101Y-112511754D01*
X155813729Y-112590340D01*
X155747217Y-112844355D01*
X155731539Y-113106464D01*
X151787202Y-113106464D01*
X151833328Y-113068845D01*
X151976889Y-112895309D01*
X152024529Y-112807200D01*
X154065000Y-112807200D01*
X154116215Y-112802178D01*
X154155166Y-112798771D01*
X154194957Y-112816155D01*
X154401624Y-112861594D01*
X154613180Y-112866026D01*
X154821569Y-112829281D01*
X155018851Y-112752760D01*
X155197513Y-112639378D01*
X155350750Y-112493452D01*
X155472725Y-112320542D01*
X155558791Y-112127233D01*
X155587902Y-111999101D01*
X156526754Y-111999101D01*
X157070000Y-112542348D01*
X157613246Y-111999101D01*
X157534660Y-111798729D01*
X157280645Y-111732217D01*
X157018536Y-111716539D01*
X156758404Y-111752298D01*
X156605340Y-111798729D01*
X156526754Y-111999101D01*
X155587902Y-111999101D01*
X155605672Y-111920889D01*
X155609046Y-111679199D01*
X155567946Y-111471626D01*
X155487310Y-111275989D01*
X155370211Y-111099741D01*
X155221108Y-110949593D01*
X155045682Y-110831267D01*
X154850613Y-110749267D01*
X154643332Y-110706718D01*
X154431734Y-110705241D01*
X154223879Y-110744892D01*
X154027685Y-110824159D01*
X153850623Y-110940025D01*
X153699439Y-111088076D01*
X153579890Y-111262673D01*
X153496531Y-111457164D01*
X153452536Y-111664143D01*
X153452136Y-111692800D01*
X152024852Y-111692800D01*
X151985806Y-111618112D01*
X151844681Y-111442589D01*
X151672152Y-111297819D01*
X151474789Y-111189318D01*
X151260110Y-111121218D01*
X151231422Y-111118000D01*
X151418000Y-111118000D01*
X151684848Y-111011349D01*
X151925762Y-110854688D01*
X152131483Y-110654037D01*
X152207516Y-110482031D01*
X155174483Y-110482031D01*
X155215336Y-110704625D01*
X155298647Y-110915043D01*
X155421242Y-111105273D01*
X155578451Y-111268068D01*
X155764286Y-111397226D01*
X155971669Y-111487830D01*
X156192701Y-111536427D01*
X156418962Y-111541166D01*
X156641835Y-111501868D01*
X156852830Y-111420028D01*
X157043911Y-111298765D01*
X157207799Y-111142696D01*
X157338252Y-110957767D01*
X157430301Y-110751022D01*
X157480440Y-110530334D01*
X157484050Y-110271844D01*
X157440092Y-110049843D01*
X157353852Y-109840608D01*
X157228613Y-109652109D01*
X157069147Y-109491525D01*
X156881526Y-109364974D01*
X156672898Y-109277274D01*
X156451210Y-109231768D01*
X156224904Y-109230188D01*
X156002601Y-109272595D01*
X155792769Y-109357373D01*
X155603400Y-109481292D01*
X155441707Y-109639634D01*
X155313849Y-109826366D01*
X155224695Y-110034377D01*
X155177643Y-110255742D01*
X155174483Y-110482031D01*
X152207516Y-110482031D01*
X152280793Y-110316260D01*
X152200603Y-110110000D01*
X150468000Y-110110000D01*
X150468000Y-110138000D01*
X149652000Y-110138000D01*
X149652000Y-110110000D01*
X147919397Y-110110000D01*
X147839207Y-110316260D01*
X147988517Y-110654037D01*
X148194238Y-110854688D01*
X148435152Y-111011349D01*
X148702000Y-111118000D01*
X148875601Y-111118000D01*
X148660065Y-111183074D01*
X148461206Y-111288809D01*
X148286672Y-111431155D01*
X148143111Y-111604691D01*
X148035990Y-111802807D01*
X147969390Y-112017956D01*
X147945848Y-112241944D01*
X147966261Y-112466238D01*
X147981646Y-112518512D01*
X147087606Y-113412552D01*
X146344204Y-113412552D01*
X146297162Y-113392777D01*
X146171525Y-113366988D01*
X146043273Y-113366093D01*
X145917288Y-113390125D01*
X145798372Y-113438171D01*
X145691052Y-113508399D01*
X145599416Y-113598135D01*
X145526956Y-113703961D01*
X145476430Y-113821845D01*
X145463715Y-113881665D01*
X140489828Y-108907778D01*
X147925829Y-108907778D01*
X147839207Y-109103740D01*
X147919397Y-109310000D01*
X149652000Y-109310000D01*
X149652000Y-109282000D01*
X150468000Y-109282000D01*
X150468000Y-109310000D01*
X152200603Y-109310000D01*
X152280793Y-109103740D01*
X152194171Y-108907778D01*
X152773222Y-108907778D01*
X152817445Y-108903442D01*
X152861703Y-108899570D01*
X152864135Y-108898864D01*
X152866649Y-108898617D01*
X152909159Y-108885783D01*
X152951850Y-108873380D01*
X152954095Y-108872216D01*
X152956517Y-108871485D01*
X152995731Y-108850634D01*
X153035193Y-108830179D01*
X153037172Y-108828599D01*
X153039403Y-108827413D01*
X153073841Y-108799327D01*
X153108558Y-108771612D01*
X153112072Y-108768146D01*
X153112151Y-108768082D01*
X153112211Y-108768009D01*
X153113340Y-108766896D01*
X155125530Y-106754706D01*
X155150417Y-106755227D01*
X155276724Y-106732956D01*
X155396300Y-106686575D01*
X155504591Y-106617852D01*
X155597470Y-106529404D01*
X155671401Y-106424601D01*
X155723567Y-106307433D01*
X155751982Y-106182364D01*
X155754028Y-106035872D01*
X155729116Y-105910059D01*
X155680241Y-105791480D01*
X155609266Y-105684653D01*
X155518892Y-105593646D01*
X155412563Y-105521927D01*
X155294329Y-105472225D01*
X155168692Y-105446436D01*
X155040440Y-105445541D01*
X154914455Y-105469573D01*
X154795539Y-105517619D01*
X154688219Y-105587847D01*
X154596583Y-105677583D01*
X154524123Y-105783409D01*
X154473597Y-105901293D01*
X154446931Y-106026747D01*
X154446279Y-106073485D01*
X152573986Y-107945778D01*
X151868956Y-107945778D01*
X151976889Y-107815309D01*
X152084010Y-107617193D01*
X152150610Y-107402044D01*
X152174152Y-107178056D01*
X152153739Y-106953762D01*
X152090150Y-106737704D01*
X151985806Y-106538112D01*
X151859484Y-106381000D01*
X152141865Y-106381000D01*
X152186088Y-106376664D01*
X152230346Y-106372792D01*
X152232778Y-106372086D01*
X152235292Y-106371839D01*
X152277802Y-106359005D01*
X152320493Y-106346602D01*
X152322738Y-106345438D01*
X152325160Y-106344707D01*
X152364374Y-106323856D01*
X152403836Y-106303401D01*
X152405815Y-106301821D01*
X152408046Y-106300635D01*
X152442484Y-106272549D01*
X152477201Y-106244834D01*
X152480715Y-106241368D01*
X152480794Y-106241304D01*
X152480854Y-106241231D01*
X152481983Y-106240118D01*
X153340118Y-105381983D01*
X153368289Y-105347687D01*
X153396880Y-105313614D01*
X153398100Y-105311394D01*
X153399703Y-105309443D01*
X153420680Y-105270322D01*
X153442104Y-105231351D01*
X153442869Y-105228940D01*
X153444064Y-105226711D01*
X153457045Y-105184250D01*
X153458991Y-105178113D01*
X157969779Y-105178113D01*
X158002667Y-105357306D01*
X158069734Y-105526699D01*
X158168426Y-105679838D01*
X158294983Y-105810892D01*
X158444585Y-105914868D01*
X158611534Y-105987807D01*
X158789470Y-106026928D01*
X158971617Y-106030744D01*
X159151035Y-105999107D01*
X159320892Y-105933224D01*
X159474717Y-105835604D01*
X159606651Y-105709965D01*
X159711669Y-105561092D01*
X159785771Y-105394657D01*
X159826134Y-105216998D01*
X159829040Y-105008907D01*
X159793653Y-104830190D01*
X159724227Y-104661751D01*
X159623407Y-104510004D01*
X159495032Y-104380730D01*
X159343993Y-104278852D01*
X159176042Y-104208252D01*
X158997577Y-104171619D01*
X158815395Y-104170347D01*
X158636436Y-104204485D01*
X158467515Y-104272733D01*
X158315068Y-104372492D01*
X158184901Y-104499961D01*
X158081972Y-104650285D01*
X158010201Y-104817739D01*
X157972323Y-104995944D01*
X157969779Y-105178113D01*
X153458991Y-105178113D01*
X153470489Y-105141871D01*
X153470771Y-105139354D01*
X153471510Y-105136938D01*
X153475998Y-105092758D01*
X153480953Y-105048581D01*
X153480988Y-105043637D01*
X153480997Y-105043544D01*
X153480989Y-105043458D01*
X153481000Y-105041865D01*
X153481000Y-103199236D01*
X153499236Y-103181000D01*
X153655291Y-103181000D01*
X153674079Y-103200456D01*
X153779396Y-103273653D01*
X153896925Y-103325000D01*
X154022189Y-103352541D01*
X154150417Y-103355227D01*
X154276724Y-103332956D01*
X154396300Y-103286575D01*
X154504591Y-103217852D01*
X154597470Y-103129404D01*
X154671401Y-103024601D01*
X154723567Y-102907433D01*
X154751982Y-102782364D01*
X154754028Y-102635872D01*
X154729116Y-102510059D01*
X154680241Y-102391480D01*
X154609266Y-102284653D01*
X154518892Y-102193646D01*
X154412563Y-102121927D01*
X154294329Y-102072225D01*
X154168692Y-102046436D01*
X154040440Y-102045541D01*
X153914455Y-102069573D01*
X153795539Y-102117619D01*
X153702333Y-102178611D01*
X154440118Y-101440826D01*
X154468289Y-101406530D01*
X154496880Y-101372457D01*
X154498100Y-101370237D01*
X154499703Y-101368286D01*
X154520699Y-101329130D01*
X154542104Y-101290194D01*
X154542867Y-101287787D01*
X154544065Y-101285554D01*
X154557060Y-101243047D01*
X154570489Y-101200714D01*
X154570771Y-101198197D01*
X154571510Y-101195781D01*
X154575998Y-101151601D01*
X154580953Y-101107424D01*
X154580988Y-101102480D01*
X154580997Y-101102387D01*
X154580989Y-101102301D01*
X154581000Y-101100708D01*
X154581000Y-100545088D01*
X154597470Y-100529404D01*
X154671401Y-100424601D01*
X154723567Y-100307433D01*
X154751982Y-100182364D01*
X154752041Y-100178113D01*
X157969779Y-100178113D01*
X158002667Y-100357306D01*
X158069734Y-100526699D01*
X158168426Y-100679838D01*
X158294983Y-100810892D01*
X158444585Y-100914868D01*
X158611534Y-100987807D01*
X158789470Y-101026928D01*
X158971617Y-101030744D01*
X159151035Y-100999107D01*
X159320892Y-100933224D01*
X159474717Y-100835604D01*
X159606651Y-100709965D01*
X159711669Y-100561092D01*
X159785771Y-100394657D01*
X159826134Y-100216998D01*
X159829040Y-100008907D01*
X159793653Y-99830190D01*
X159724227Y-99661751D01*
X159623407Y-99510004D01*
X159495032Y-99380730D01*
X159343993Y-99278852D01*
X159176042Y-99208252D01*
X158997577Y-99171619D01*
X158815395Y-99170347D01*
X158636436Y-99204485D01*
X158467515Y-99272733D01*
X158315068Y-99372492D01*
X158184901Y-99499961D01*
X158081972Y-99650285D01*
X158010201Y-99817739D01*
X157972323Y-99995944D01*
X157969779Y-100178113D01*
X154752041Y-100178113D01*
X154754028Y-100035872D01*
X154729116Y-99910059D01*
X154680241Y-99791480D01*
X154609266Y-99684653D01*
X154518892Y-99593646D01*
X154412563Y-99521927D01*
X154294329Y-99472225D01*
X154168692Y-99446436D01*
X154040440Y-99445541D01*
X153914455Y-99469573D01*
X153795539Y-99517619D01*
X153688219Y-99587847D01*
X153596583Y-99677583D01*
X153524123Y-99783409D01*
X153473597Y-99901293D01*
X153446931Y-100026747D01*
X153445141Y-100154990D01*
X153468293Y-100281139D01*
X153515508Y-100400388D01*
X153584985Y-100508196D01*
X153619000Y-100543420D01*
X153619000Y-100901472D01*
X152129171Y-102391301D01*
X152150610Y-102322044D01*
X152174152Y-102098056D01*
X152153739Y-101873762D01*
X152090150Y-101657704D01*
X151985806Y-101458112D01*
X151844681Y-101282589D01*
X151685521Y-101149037D01*
X151776724Y-101132956D01*
X151896300Y-101086575D01*
X152004591Y-101017852D01*
X152097470Y-100929404D01*
X152171401Y-100824601D01*
X152223567Y-100707433D01*
X152251982Y-100582364D01*
X152254028Y-100435872D01*
X152229116Y-100310059D01*
X152180241Y-100191480D01*
X152109266Y-100084653D01*
X152018892Y-99993646D01*
X151912563Y-99921927D01*
X151794329Y-99872225D01*
X151668692Y-99846436D01*
X151540440Y-99845541D01*
X151414455Y-99869573D01*
X151295539Y-99917619D01*
X151188219Y-99987847D01*
X151154256Y-100021106D01*
X151131513Y-100023336D01*
X151087255Y-100027208D01*
X151084823Y-100027914D01*
X151082309Y-100028161D01*
X151039799Y-100040995D01*
X150997108Y-100053398D01*
X150994863Y-100054562D01*
X150992441Y-100055293D01*
X150953227Y-100076144D01*
X150913765Y-100096599D01*
X150911786Y-100098179D01*
X150909555Y-100099365D01*
X150875117Y-100127451D01*
X150840400Y-100155166D01*
X150836886Y-100158632D01*
X150836807Y-100158696D01*
X150836747Y-100158769D01*
X150835618Y-100159882D01*
X150758448Y-100237052D01*
X148710380Y-100237052D01*
X148723567Y-100207433D01*
X148751982Y-100082364D01*
X148754028Y-99935872D01*
X148729116Y-99810059D01*
X148680241Y-99691480D01*
X148609266Y-99584653D01*
X148518892Y-99493646D01*
X148412563Y-99421927D01*
X148294329Y-99372225D01*
X148168692Y-99346436D01*
X148040440Y-99345541D01*
X147914455Y-99369573D01*
X147795539Y-99417619D01*
X147688219Y-99487847D01*
X147656406Y-99519000D01*
X146629204Y-99519000D01*
X146696300Y-99492975D01*
X146804591Y-99424252D01*
X146897470Y-99335804D01*
X146971401Y-99231001D01*
X147023567Y-99113833D01*
X147051982Y-98988764D01*
X147054028Y-98842272D01*
X147029116Y-98716459D01*
X146980241Y-98597880D01*
X146909266Y-98491053D01*
X146818892Y-98400046D01*
X146712563Y-98328327D01*
X146594329Y-98278625D01*
X146468692Y-98252836D01*
X146340440Y-98251941D01*
X146214455Y-98275973D01*
X146095539Y-98324019D01*
X146057058Y-98349200D01*
X143237200Y-98349200D01*
X141494000Y-96606000D01*
X141454222Y-96573327D01*
X141414800Y-96540247D01*
X141412230Y-96538834D01*
X141409968Y-96536976D01*
X141364622Y-96512662D01*
X141319504Y-96487858D01*
X141316711Y-96486972D01*
X141314130Y-96485588D01*
X141264920Y-96470543D01*
X141215848Y-96454976D01*
X141212936Y-96454649D01*
X141210135Y-96453793D01*
X141158936Y-96448592D01*
X141107780Y-96442854D01*
X141102056Y-96442814D01*
X141101945Y-96442803D01*
X141101842Y-96442813D01*
X141100000Y-96442800D01*
X134447600Y-96442800D01*
X134396335Y-96447827D01*
X134345103Y-96452309D01*
X134342291Y-96453126D01*
X134339373Y-96453412D01*
X134290087Y-96468292D01*
X134240673Y-96482648D01*
X134238071Y-96483997D01*
X134235268Y-96484843D01*
X134189817Y-96509010D01*
X134144127Y-96532693D01*
X134141839Y-96534519D01*
X134139250Y-96535896D01*
X134099372Y-96568420D01*
X134059139Y-96600537D01*
X134055059Y-96604561D01*
X134054978Y-96604627D01*
X134054915Y-96604703D01*
X134053600Y-96606000D01*
X133231312Y-97428288D01*
X131936400Y-97428288D01*
X131867004Y-97435123D01*
X131800275Y-97455365D01*
X131738777Y-97488236D01*
X131684874Y-97532474D01*
X131640636Y-97586377D01*
X131607765Y-97647875D01*
X131587523Y-97714604D01*
X131580688Y-97784000D01*
X131580688Y-99816000D01*
X131587523Y-99885396D01*
X131607765Y-99952125D01*
X131640636Y-100013623D01*
X131684874Y-100067526D01*
X131738777Y-100111764D01*
X131800275Y-100144635D01*
X131867004Y-100164877D01*
X131936400Y-100171712D01*
X133663600Y-100171712D01*
X133732996Y-100164877D01*
X133799725Y-100144635D01*
X133861223Y-100111764D01*
X133915126Y-100067526D01*
X133959364Y-100013623D01*
X133992235Y-99952125D01*
X134012477Y-99885396D01*
X134019312Y-99816000D01*
X134019312Y-99554117D01*
X134081469Y-99689135D01*
X134249381Y-99920506D01*
X134459205Y-100114673D01*
X134702877Y-100264175D01*
X134715839Y-100285077D01*
X134932000Y-100207342D01*
X134932000Y-99208000D01*
X134912000Y-99208000D01*
X134912000Y-98392000D01*
X134932000Y-98392000D01*
X134932000Y-98372000D01*
X135748000Y-98372000D01*
X135748000Y-98392000D01*
X135768000Y-98392000D01*
X135768000Y-99208000D01*
X135748000Y-99208000D01*
X135748000Y-100207342D01*
X135964161Y-100285077D01*
X135977123Y-100264175D01*
X136220795Y-100114673D01*
X136430619Y-99920506D01*
X136598531Y-99689135D01*
X136718079Y-99429452D01*
X136623741Y-99208002D01*
X136689355Y-99208002D01*
X136754273Y-99423020D01*
X136865835Y-99632839D01*
X137016027Y-99816992D01*
X137199127Y-99968465D01*
X137399000Y-100076537D01*
X137399000Y-102723463D01*
X137342613Y-102666681D01*
X137236284Y-102594962D01*
X137118050Y-102545260D01*
X136992413Y-102519471D01*
X136864161Y-102518576D01*
X136738176Y-102542608D01*
X136619260Y-102590654D01*
X136511940Y-102660882D01*
X136420304Y-102750618D01*
X136347844Y-102856444D01*
X136297318Y-102974328D01*
X136270652Y-103099782D01*
X136270000Y-103146520D01*
X136182573Y-103233947D01*
X134337698Y-103233947D01*
X133763632Y-102659882D01*
X133729336Y-102631711D01*
X133695263Y-102603120D01*
X133693043Y-102601900D01*
X133691092Y-102600297D01*
X133651971Y-102579320D01*
X133613000Y-102557896D01*
X133610589Y-102557131D01*
X133608360Y-102555936D01*
X133565899Y-102542955D01*
X133523520Y-102529511D01*
X133521003Y-102529229D01*
X133518587Y-102528490D01*
X133474407Y-102524002D01*
X133430230Y-102519047D01*
X133425286Y-102519012D01*
X133425193Y-102519003D01*
X133425107Y-102519011D01*
X133423514Y-102519000D01*
X132244070Y-102519000D01*
X132218892Y-102493646D01*
X132112563Y-102421927D01*
X131994329Y-102372225D01*
X131868692Y-102346436D01*
X131740440Y-102345541D01*
X131614455Y-102369573D01*
X131495539Y-102417619D01*
X131388219Y-102487847D01*
X131296583Y-102577583D01*
X131224123Y-102683409D01*
X131173597Y-102801293D01*
X131146931Y-102926747D01*
X131145141Y-103054990D01*
X123310000Y-103054990D01*
X123331483Y-103034037D01*
X123480793Y-102696260D01*
X123400603Y-102490000D01*
X121668000Y-102490000D01*
X121668000Y-102518000D01*
X120852000Y-102518000D01*
X120852000Y-102490000D01*
X119119397Y-102490000D01*
X119039207Y-102696260D01*
X119188517Y-103034037D01*
X119394238Y-103234688D01*
X119635152Y-103391349D01*
X119902000Y-103498000D01*
X120075601Y-103498000D01*
X119860065Y-103563074D01*
X119661206Y-103668809D01*
X119565729Y-103746677D01*
X118939526Y-103120474D01*
X118878024Y-103069956D01*
X118817002Y-103018752D01*
X118813026Y-103016566D01*
X118809527Y-103013692D01*
X118739367Y-102976072D01*
X118669578Y-102937705D01*
X118665260Y-102936335D01*
X118661263Y-102934192D01*
X118585079Y-102910900D01*
X118509220Y-102886837D01*
X118504717Y-102886332D01*
X118500380Y-102885006D01*
X118421132Y-102876956D01*
X118342035Y-102868084D01*
X118333178Y-102868022D01*
X118333009Y-102868005D01*
X118332851Y-102868020D01*
X118330000Y-102868000D01*
X118235522Y-102868000D01*
X118235522Y-102630000D01*
X118228687Y-102560604D01*
X118208445Y-102493875D01*
X118175574Y-102432377D01*
X118131336Y-102378474D01*
X118077433Y-102334236D01*
X118015935Y-102301365D01*
X117949206Y-102281123D01*
X117879810Y-102274288D01*
X113808190Y-102274288D01*
X113738794Y-102281123D01*
X113672065Y-102301365D01*
X113610567Y-102334236D01*
X113556664Y-102378474D01*
X113512426Y-102432377D01*
X113479555Y-102493875D01*
X113459313Y-102560604D01*
X113455654Y-102597751D01*
X113404000Y-102659632D01*
X113404000Y-101483740D01*
X119039207Y-101483740D01*
X119119397Y-101690000D01*
X120852000Y-101690000D01*
X120852000Y-100682000D01*
X121668000Y-100682000D01*
X121668000Y-101690000D01*
X123400603Y-101690000D01*
X123480793Y-101483740D01*
X123331483Y-101145963D01*
X123125762Y-100945312D01*
X122884848Y-100788651D01*
X122618000Y-100682000D01*
X121668000Y-100682000D01*
X120852000Y-100682000D01*
X119902000Y-100682000D01*
X119635152Y-100788651D01*
X119394238Y-100945312D01*
X119188517Y-101145963D01*
X119039207Y-101483740D01*
X113404000Y-101483740D01*
X113404000Y-101114500D01*
X115040000Y-101114500D01*
X115192000Y-100962500D01*
X115192000Y-99708000D01*
X116008000Y-99708000D01*
X116008000Y-100962500D01*
X116160000Y-101114500D01*
X117945883Y-101114500D01*
X118063347Y-101091135D01*
X118173996Y-101045303D01*
X118273578Y-100978764D01*
X118358265Y-100894077D01*
X118424803Y-100794496D01*
X118470635Y-100683847D01*
X118494000Y-100566383D01*
X118494000Y-99860000D01*
X118342000Y-99708000D01*
X116008000Y-99708000D01*
X115192000Y-99708000D01*
X115172000Y-99708000D01*
X115172000Y-98892000D01*
X115192000Y-98892000D01*
X115192000Y-97637500D01*
X116008000Y-97637500D01*
X116008000Y-98892000D01*
X118342000Y-98892000D01*
X118494000Y-98740000D01*
X118494000Y-98033617D01*
X118470635Y-97916153D01*
X118424803Y-97805504D01*
X118410435Y-97784000D01*
X124628288Y-97784000D01*
X124628288Y-99816000D01*
X124635123Y-99885396D01*
X124655365Y-99952125D01*
X124688236Y-100013623D01*
X124732474Y-100067526D01*
X124786377Y-100111764D01*
X124847875Y-100144635D01*
X124914604Y-100164877D01*
X124984000Y-100171712D01*
X127016000Y-100171712D01*
X127085396Y-100164877D01*
X127152125Y-100144635D01*
X127213623Y-100111764D01*
X127267526Y-100067526D01*
X127311764Y-100013623D01*
X127344635Y-99952125D01*
X127358737Y-99905636D01*
X127412890Y-99969208D01*
X127662648Y-100166630D01*
X127891122Y-100288735D01*
X128132000Y-100214327D01*
X128132000Y-99208000D01*
X128948000Y-99208000D01*
X128948000Y-100214327D01*
X129188878Y-100288735D01*
X129417352Y-100166630D01*
X129667110Y-99969208D01*
X129873554Y-99726854D01*
X130028750Y-99448881D01*
X129959928Y-99208000D01*
X128948000Y-99208000D01*
X128132000Y-99208000D01*
X128112000Y-99208000D01*
X128112000Y-98392000D01*
X128132000Y-98392000D01*
X128132000Y-97385673D01*
X128948000Y-97385673D01*
X128948000Y-98392000D01*
X129959928Y-98392000D01*
X130028750Y-98151119D01*
X129873554Y-97873146D01*
X129667110Y-97630792D01*
X129417352Y-97433370D01*
X129188878Y-97311265D01*
X128948000Y-97385673D01*
X128132000Y-97385673D01*
X127891122Y-97311265D01*
X127662648Y-97433370D01*
X127412890Y-97630792D01*
X127358737Y-97694364D01*
X127344635Y-97647875D01*
X127311764Y-97586377D01*
X127267526Y-97532474D01*
X127213623Y-97488236D01*
X127152125Y-97455365D01*
X127085396Y-97435123D01*
X127016000Y-97428288D01*
X124984000Y-97428288D01*
X124914604Y-97435123D01*
X124847875Y-97455365D01*
X124786377Y-97488236D01*
X124732474Y-97532474D01*
X124688236Y-97586377D01*
X124655365Y-97647875D01*
X124635123Y-97714604D01*
X124628288Y-97784000D01*
X118410435Y-97784000D01*
X118358265Y-97705923D01*
X118273578Y-97621236D01*
X118173996Y-97554697D01*
X118063347Y-97508865D01*
X117945883Y-97485500D01*
X116160000Y-97485500D01*
X116008000Y-97637500D01*
X115192000Y-97637500D01*
X115040000Y-97485500D01*
X113404000Y-97485500D01*
X113404000Y-95404000D01*
X163096000Y-95404000D01*
X163096000Y-124096000D01*
X163096000Y-124096000D01*
G37*
X163096000Y-124096000D02*
X157695563Y-124096000D01*
X157737513Y-124069378D01*
X157890750Y-123923452D01*
X158012725Y-123750542D01*
X158098791Y-123557233D01*
X158145672Y-123350889D01*
X158149046Y-123109199D01*
X158107946Y-122901626D01*
X158027310Y-122705989D01*
X157910211Y-122529741D01*
X157761108Y-122379593D01*
X157585682Y-122261267D01*
X157390613Y-122179267D01*
X157183332Y-122136718D01*
X156971734Y-122135241D01*
X156763879Y-122174892D01*
X156567685Y-122254159D01*
X156390623Y-122370025D01*
X156239439Y-122518076D01*
X156119890Y-122692673D01*
X156036531Y-122887164D01*
X155992536Y-123094143D01*
X155989582Y-123305725D01*
X156027780Y-123513852D01*
X156105676Y-123710595D01*
X156220303Y-123888461D01*
X156367295Y-124040676D01*
X156446896Y-124096000D01*
X113404000Y-124096000D01*
X113404000Y-118785825D01*
X113493933Y-118897679D01*
X113681477Y-119055047D01*
X113896016Y-119172991D01*
X114129378Y-119247018D01*
X114372674Y-119274308D01*
X114390189Y-119274430D01*
X116109811Y-119274430D01*
X116353464Y-119250540D01*
X116587837Y-119179778D01*
X116804002Y-119064841D01*
X116993725Y-118910107D01*
X117149781Y-118721468D01*
X117266224Y-118506111D01*
X117338620Y-118272238D01*
X117364210Y-118028758D01*
X117342022Y-117784943D01*
X117272898Y-117550082D01*
X117159473Y-117333120D01*
X117006067Y-117142321D01*
X116818523Y-116984953D01*
X116603984Y-116867009D01*
X116370622Y-116792982D01*
X116127326Y-116765692D01*
X116109811Y-116765570D01*
X114390189Y-116765570D01*
X114146536Y-116789460D01*
X113912163Y-116860222D01*
X113695998Y-116975159D01*
X113506275Y-117129893D01*
X113404000Y-117253522D01*
X113404000Y-116245825D01*
X113493933Y-116357679D01*
X113681477Y-116515047D01*
X113896016Y-116632991D01*
X114129378Y-116707018D01*
X114372674Y-116734308D01*
X114390189Y-116734430D01*
X116109811Y-116734430D01*
X116353464Y-116710540D01*
X116587837Y-116639778D01*
X116804002Y-116524841D01*
X116993725Y-116370107D01*
X117149781Y-116181468D01*
X117266224Y-115966111D01*
X117338620Y-115732238D01*
X117364210Y-115488758D01*
X117342022Y-115244943D01*
X117272898Y-115010082D01*
X117159473Y-114793120D01*
X117006067Y-114602321D01*
X116818523Y-114444953D01*
X116603984Y-114327009D01*
X116370622Y-114252982D01*
X116127326Y-114225692D01*
X116109811Y-114225570D01*
X114390189Y-114225570D01*
X114146536Y-114249460D01*
X113912163Y-114320222D01*
X113695998Y-114435159D01*
X113506275Y-114589893D01*
X113404000Y-114713522D01*
X113404000Y-113240974D01*
X118138047Y-113240974D01*
X118152709Y-113408566D01*
X118199645Y-113570119D01*
X118277066Y-113719479D01*
X118382023Y-113850957D01*
X118388000Y-113857017D01*
X118388000Y-118250000D01*
X118404417Y-118417430D01*
X118453041Y-118578483D01*
X118532022Y-118727024D01*
X118638350Y-118857395D01*
X118767976Y-118964630D01*
X118915962Y-119044646D01*
X119076671Y-119094394D01*
X119243982Y-119111979D01*
X119411523Y-119096732D01*
X119572911Y-119049232D01*
X119721999Y-118971291D01*
X119853110Y-118865875D01*
X119961248Y-118737002D01*
X120042295Y-118589578D01*
X120093163Y-118429220D01*
X120111916Y-118262035D01*
X120112000Y-118250000D01*
X120112000Y-113500000D01*
X120104227Y-113420727D01*
X120097290Y-113341434D01*
X120096025Y-113337081D01*
X120095583Y-113332570D01*
X120072572Y-113256353D01*
X120050355Y-113179880D01*
X120048269Y-113175855D01*
X120046959Y-113171517D01*
X120009578Y-113101215D01*
X119972934Y-113030521D01*
X119970106Y-113026979D01*
X119967978Y-113022976D01*
X119917632Y-112961246D01*
X119867976Y-112899043D01*
X119861758Y-112892737D01*
X119861650Y-112892605D01*
X119861527Y-112892504D01*
X119859526Y-112890474D01*
X119609526Y-112640474D01*
X119479527Y-112533692D01*
X119331263Y-112454192D01*
X119170380Y-112405006D01*
X119003009Y-112388005D01*
X118835523Y-112403838D01*
X118674301Y-112451900D01*
X118525485Y-112530361D01*
X118394744Y-112636233D01*
X118287056Y-112765484D01*
X118206525Y-112913190D01*
X118156217Y-113073724D01*
X118138047Y-113240974D01*
X113404000Y-113240974D01*
X113404000Y-111125000D01*
X120346000Y-111125000D01*
X120346000Y-119325000D01*
X120356750Y-119411576D01*
X120416009Y-119536342D01*
X123616009Y-123836342D01*
X123764530Y-123952053D01*
X123900000Y-123979000D01*
X131500000Y-123979000D01*
X131635470Y-123952053D01*
X131750316Y-123875316D01*
X131827053Y-123760470D01*
X131854000Y-123625000D01*
X131854000Y-123016260D01*
X147839207Y-123016260D01*
X147988517Y-123354037D01*
X148194238Y-123554688D01*
X148435152Y-123711349D01*
X148702000Y-123818000D01*
X149652000Y-123818000D01*
X149652000Y-122810000D01*
X150468000Y-122810000D01*
X150468000Y-123818000D01*
X151418000Y-123818000D01*
X151684848Y-123711349D01*
X151925762Y-123554688D01*
X152131483Y-123354037D01*
X152280793Y-123016260D01*
X152200603Y-122810000D01*
X150468000Y-122810000D01*
X149652000Y-122810000D01*
X147919397Y-122810000D01*
X147839207Y-123016260D01*
X131854000Y-123016260D01*
X131854000Y-114325000D01*
X131832173Y-114202620D01*
X131760056Y-114084819D01*
X131648347Y-114003582D01*
X129928825Y-113209956D01*
X129971401Y-113149601D01*
X130023567Y-113032433D01*
X130051982Y-112907364D01*
X130054028Y-112760872D01*
X130029116Y-112635059D01*
X129997552Y-112558477D01*
X131106772Y-112558477D01*
X131129924Y-112684626D01*
X131177139Y-112803875D01*
X131246616Y-112911683D01*
X131335710Y-113003943D01*
X131441027Y-113077140D01*
X131558556Y-113128487D01*
X131683820Y-113156028D01*
X131812048Y-113158714D01*
X131938355Y-113136443D01*
X132011685Y-113108000D01*
X138258013Y-113108000D01*
X138296925Y-113125000D01*
X138422189Y-113152541D01*
X138550417Y-113155227D01*
X138676724Y-113132956D01*
X138796300Y-113086575D01*
X138904591Y-113017852D01*
X138997470Y-112929404D01*
X139071401Y-112824601D01*
X139123567Y-112707433D01*
X139151982Y-112582364D01*
X139154028Y-112435872D01*
X139129116Y-112310059D01*
X139080241Y-112191480D01*
X139009266Y-112084653D01*
X138918892Y-111993646D01*
X138812563Y-111921927D01*
X138694329Y-111872225D01*
X138568692Y-111846436D01*
X138440440Y-111845541D01*
X138314455Y-111869573D01*
X138258947Y-111892000D01*
X131994707Y-111892000D01*
X131955960Y-111875712D01*
X131830323Y-111849923D01*
X131702071Y-111849028D01*
X131576086Y-111873060D01*
X131457170Y-111921106D01*
X131349850Y-111991334D01*
X131258214Y-112081070D01*
X131185754Y-112186896D01*
X131135228Y-112304780D01*
X131108562Y-112430234D01*
X131106772Y-112558477D01*
X129997552Y-112558477D01*
X129980241Y-112516480D01*
X129909266Y-112409653D01*
X129818892Y-112318646D01*
X129712563Y-112246927D01*
X129594329Y-112197225D01*
X129468692Y-112171436D01*
X129340440Y-112170541D01*
X129254000Y-112187030D01*
X129254000Y-111125000D01*
X129227053Y-110989530D01*
X129150316Y-110874684D01*
X129035470Y-110797947D01*
X128900000Y-110771000D01*
X120700000Y-110771000D01*
X120564530Y-110797947D01*
X120449684Y-110874684D01*
X120372947Y-110989530D01*
X120346000Y-111125000D01*
X113404000Y-111125000D01*
X113404000Y-109914500D01*
X115040000Y-109914500D01*
X115192000Y-109762500D01*
X115192000Y-108508000D01*
X116008000Y-108508000D01*
X116008000Y-109762500D01*
X116160000Y-109914500D01*
X117945883Y-109914500D01*
X118063347Y-109891135D01*
X118173996Y-109845303D01*
X118273578Y-109778764D01*
X118358265Y-109694077D01*
X118424803Y-109594496D01*
X118470635Y-109483847D01*
X118494000Y-109366383D01*
X118494000Y-108660000D01*
X118342000Y-108508000D01*
X116008000Y-108508000D01*
X115192000Y-108508000D01*
X115172000Y-108508000D01*
X115172000Y-107776260D01*
X119039207Y-107776260D01*
X119188517Y-108114037D01*
X119394238Y-108314688D01*
X119635152Y-108471349D01*
X119902000Y-108578000D01*
X120852000Y-108578000D01*
X120852000Y-107570000D01*
X121668000Y-107570000D01*
X121668000Y-108578000D01*
X122618000Y-108578000D01*
X122884848Y-108471349D01*
X123125762Y-108314688D01*
X123331483Y-108114037D01*
X123480793Y-107776260D01*
X123400603Y-107570000D01*
X121668000Y-107570000D01*
X120852000Y-107570000D01*
X119119397Y-107570000D01*
X119039207Y-107776260D01*
X115172000Y-107776260D01*
X115172000Y-107692000D01*
X115192000Y-107692000D01*
X115192000Y-106437500D01*
X116008000Y-106437500D01*
X116008000Y-107692000D01*
X118342000Y-107692000D01*
X118479010Y-107554990D01*
X125345141Y-107554990D01*
X125368293Y-107681139D01*
X125415508Y-107800388D01*
X125484985Y-107908196D01*
X125574079Y-108000456D01*
X125679396Y-108073653D01*
X125796925Y-108125000D01*
X125922189Y-108152541D01*
X126050417Y-108155227D01*
X126176724Y-108132956D01*
X126296300Y-108086575D01*
X126404591Y-108017852D01*
X126422209Y-108001074D01*
X126379713Y-108100224D01*
X126353047Y-108225678D01*
X126351257Y-108353921D01*
X126374409Y-108480070D01*
X126421624Y-108599319D01*
X126491101Y-108707127D01*
X126580195Y-108799387D01*
X126685512Y-108872584D01*
X126803041Y-108923931D01*
X126928305Y-108951472D01*
X127056533Y-108954158D01*
X127182840Y-108931887D01*
X127302416Y-108885506D01*
X127347019Y-108857200D01*
X129405723Y-108857200D01*
X129429396Y-108873653D01*
X129546925Y-108925000D01*
X129672189Y-108952541D01*
X129800417Y-108955227D01*
X129926724Y-108932956D01*
X130046300Y-108886575D01*
X130154591Y-108817852D01*
X130247470Y-108729404D01*
X130321401Y-108624601D01*
X130373567Y-108507433D01*
X130401982Y-108382364D01*
X130404028Y-108235872D01*
X130379116Y-108110059D01*
X130330241Y-107991480D01*
X130259266Y-107884653D01*
X130168892Y-107793646D01*
X130062563Y-107721927D01*
X129944329Y-107672225D01*
X129818692Y-107646436D01*
X129690440Y-107645541D01*
X129564455Y-107669573D01*
X129445539Y-107717619D01*
X129407058Y-107742800D01*
X127351210Y-107742800D01*
X127318679Y-107720858D01*
X127200445Y-107671156D01*
X127074808Y-107645367D01*
X126946556Y-107644472D01*
X126820571Y-107668504D01*
X126701655Y-107716550D01*
X126594335Y-107786778D01*
X126583530Y-107797359D01*
X126623567Y-107707433D01*
X126651982Y-107582364D01*
X126652788Y-107524620D01*
X127522760Y-106654648D01*
X127550417Y-106655227D01*
X127676724Y-106632956D01*
X127796300Y-106586575D01*
X127904591Y-106517852D01*
X127997470Y-106429404D01*
X128071401Y-106324601D01*
X128123567Y-106207433D01*
X128151982Y-106082364D01*
X128154028Y-105935872D01*
X128129116Y-105810059D01*
X128080241Y-105691480D01*
X128009266Y-105584653D01*
X127918892Y-105493646D01*
X127812563Y-105421927D01*
X127694329Y-105372225D01*
X127568692Y-105346436D01*
X127440440Y-105345541D01*
X127314455Y-105369573D01*
X127195539Y-105417619D01*
X127088219Y-105487847D01*
X126996583Y-105577583D01*
X126924123Y-105683409D01*
X126873597Y-105801293D01*
X126846931Y-105926747D01*
X126846239Y-105976353D01*
X125976797Y-106845795D01*
X125940440Y-106845541D01*
X125814455Y-106869573D01*
X125695539Y-106917619D01*
X125588219Y-106987847D01*
X125496583Y-107077583D01*
X125424123Y-107183409D01*
X125373597Y-107301293D01*
X125346931Y-107426747D01*
X125345141Y-107554990D01*
X118479010Y-107554990D01*
X118494000Y-107540000D01*
X118494000Y-106833617D01*
X118470635Y-106716153D01*
X118424803Y-106605504D01*
X118358265Y-106505923D01*
X118273578Y-106421236D01*
X118173996Y-106354697D01*
X118063347Y-106308865D01*
X117945883Y-106285500D01*
X116160000Y-106285500D01*
X116008000Y-106437500D01*
X115192000Y-106437500D01*
X115040000Y-106285500D01*
X113404000Y-106285500D01*
X113404000Y-104800368D01*
X113455654Y-104862249D01*
X113459313Y-104899396D01*
X113479555Y-104966125D01*
X113512426Y-105027623D01*
X113556664Y-105081526D01*
X113610567Y-105125764D01*
X113672065Y-105158635D01*
X113738794Y-105178877D01*
X113808190Y-105185712D01*
X117879810Y-105185712D01*
X117949206Y-105178877D01*
X118015935Y-105158635D01*
X118077433Y-105125764D01*
X118131336Y-105081526D01*
X118175574Y-105027623D01*
X118208445Y-104966125D01*
X118228687Y-104899396D01*
X118233319Y-104852371D01*
X118620474Y-105239526D01*
X118681976Y-105290044D01*
X118742998Y-105341248D01*
X118746974Y-105343434D01*
X118750473Y-105346308D01*
X118820633Y-105383928D01*
X118890422Y-105422295D01*
X118894740Y-105423665D01*
X118898737Y-105425808D01*
X118974921Y-105449100D01*
X119050780Y-105473163D01*
X119055283Y-105473668D01*
X119059620Y-105474994D01*
X119138868Y-105483044D01*
X119217965Y-105491916D01*
X119226822Y-105491978D01*
X119226991Y-105491995D01*
X119227149Y-105491980D01*
X119230000Y-105492000D01*
X119540375Y-105492000D01*
X119647848Y-105582181D01*
X119845211Y-105690682D01*
X120059890Y-105758782D01*
X120088578Y-105762000D01*
X119902000Y-105762000D01*
X119635152Y-105868651D01*
X119394238Y-106025312D01*
X119188517Y-106225963D01*
X119039207Y-106563740D01*
X119119397Y-106770000D01*
X120852000Y-106770000D01*
X120852000Y-106742000D01*
X121668000Y-106742000D01*
X121668000Y-106770000D01*
X123400603Y-106770000D01*
X123480793Y-106563740D01*
X123331483Y-106225963D01*
X123125762Y-106025312D01*
X122884848Y-105868651D01*
X122618000Y-105762000D01*
X122444399Y-105762000D01*
X122659935Y-105696926D01*
X122858794Y-105591191D01*
X123033328Y-105448845D01*
X123176889Y-105275309D01*
X123284010Y-105077193D01*
X123350610Y-104862044D01*
X123374152Y-104638056D01*
X123353739Y-104413762D01*
X123290150Y-104197704D01*
X123185806Y-103998112D01*
X123044681Y-103822589D01*
X122872152Y-103677819D01*
X122674789Y-103569318D01*
X122460110Y-103501218D01*
X122431422Y-103498000D01*
X122618000Y-103498000D01*
X122884848Y-103391349D01*
X123125762Y-103234688D01*
X123310000Y-103054990D01*
X131145141Y-103054990D01*
X131168293Y-103181139D01*
X131215508Y-103300388D01*
X131284985Y-103408196D01*
X131374079Y-103500456D01*
X131479396Y-103573653D01*
X131596925Y-103625000D01*
X131722189Y-103652541D01*
X131850417Y-103655227D01*
X131976724Y-103632956D01*
X132096300Y-103586575D01*
X132204591Y-103517852D01*
X132243289Y-103481000D01*
X133224278Y-103481000D01*
X133657461Y-103914184D01*
X133657462Y-109344014D01*
X133661798Y-109388237D01*
X133665670Y-109432495D01*
X133666376Y-109434927D01*
X133666623Y-109437441D01*
X133679457Y-109479951D01*
X133691860Y-109522642D01*
X133693024Y-109524887D01*
X133693755Y-109527309D01*
X133714606Y-109566523D01*
X133735061Y-109605985D01*
X133736641Y-109607964D01*
X133737827Y-109610195D01*
X133765913Y-109644633D01*
X133793628Y-109679350D01*
X133797094Y-109682864D01*
X133797158Y-109682943D01*
X133797231Y-109683003D01*
X133798344Y-109684132D01*
X135011539Y-110897328D01*
X135045860Y-110925519D01*
X135079909Y-110954090D01*
X135082129Y-110955310D01*
X135084080Y-110956913D01*
X135123201Y-110977890D01*
X135162172Y-110999314D01*
X135164583Y-111000079D01*
X135166812Y-111001274D01*
X135209286Y-111014259D01*
X135251652Y-111027699D01*
X135254167Y-111027981D01*
X135256584Y-111028720D01*
X135300774Y-111033209D01*
X135344942Y-111038163D01*
X135349885Y-111038198D01*
X135349978Y-111038207D01*
X135350064Y-111038199D01*
X135351658Y-111038210D01*
X139770616Y-111038210D01*
X141797753Y-113065347D01*
X141797753Y-117106487D01*
X141802089Y-117150710D01*
X141805961Y-117194968D01*
X141806667Y-117197400D01*
X141806914Y-117199914D01*
X141819748Y-117242424D01*
X141832151Y-117285115D01*
X141833315Y-117287360D01*
X141834046Y-117289782D01*
X141854897Y-117328996D01*
X141875352Y-117368458D01*
X141876932Y-117370437D01*
X141878118Y-117372668D01*
X141906204Y-117407106D01*
X141933919Y-117441823D01*
X141937385Y-117445337D01*
X141937449Y-117445416D01*
X141937522Y-117445476D01*
X141938635Y-117446605D01*
X142635717Y-118143687D01*
X142596214Y-118143411D01*
X142470229Y-118167443D01*
X142351313Y-118215489D01*
X142243993Y-118285717D01*
X142152357Y-118375453D01*
X142084320Y-118474820D01*
X133512130Y-118474820D01*
X133486952Y-118449466D01*
X133380623Y-118377747D01*
X133262389Y-118328045D01*
X133136752Y-118302256D01*
X133008500Y-118301361D01*
X132882515Y-118325393D01*
X132763599Y-118373439D01*
X132656279Y-118443667D01*
X132564643Y-118533403D01*
X132492183Y-118639229D01*
X132441657Y-118757113D01*
X132414991Y-118882567D01*
X132413201Y-119010810D01*
X132436353Y-119136959D01*
X132483568Y-119256208D01*
X132553045Y-119364016D01*
X132642139Y-119456276D01*
X132747456Y-119529473D01*
X132864985Y-119580820D01*
X132990249Y-119608361D01*
X133118477Y-119611047D01*
X133244784Y-119588776D01*
X133310763Y-119563184D01*
X133235342Y-119653067D01*
X133120861Y-119861307D01*
X133049007Y-120087818D01*
X133022519Y-120323971D01*
X133022400Y-120340971D01*
X133022400Y-120659029D01*
X133045589Y-120895529D01*
X133114273Y-121123020D01*
X133225835Y-121332839D01*
X133376027Y-121516992D01*
X133559127Y-121668465D01*
X133768161Y-121781490D01*
X133995168Y-121851760D01*
X134231500Y-121876599D01*
X134468155Y-121855062D01*
X134696121Y-121787968D01*
X134906713Y-121677873D01*
X135091910Y-121528971D01*
X135244658Y-121346933D01*
X135359139Y-121138693D01*
X135430993Y-120912182D01*
X135457481Y-120676029D01*
X135457600Y-120659029D01*
X135457600Y-120340971D01*
X135434411Y-120104471D01*
X135365727Y-119876980D01*
X135254165Y-119667161D01*
X135103973Y-119483008D01*
X135048141Y-119436820D01*
X135970637Y-119436820D01*
X135928090Y-119471029D01*
X135775342Y-119653067D01*
X135660861Y-119861307D01*
X135589007Y-120087818D01*
X135562519Y-120323971D01*
X135562400Y-120340971D01*
X135562400Y-120659029D01*
X135585589Y-120895529D01*
X135654273Y-121123020D01*
X135765835Y-121332839D01*
X135916027Y-121516992D01*
X136099127Y-121668465D01*
X136308161Y-121781490D01*
X136535168Y-121851760D01*
X136771500Y-121876599D01*
X137008155Y-121855062D01*
X137236121Y-121787968D01*
X137446713Y-121677873D01*
X137631910Y-121528971D01*
X137784658Y-121346933D01*
X137899139Y-121138693D01*
X137970993Y-120912182D01*
X137997481Y-120676029D01*
X137997600Y-120659029D01*
X137997600Y-120340971D01*
X137974411Y-120104471D01*
X137905727Y-119876980D01*
X137794165Y-119667161D01*
X137643973Y-119483008D01*
X137588141Y-119436820D01*
X138510637Y-119436820D01*
X138468090Y-119471029D01*
X138315342Y-119653067D01*
X138200861Y-119861307D01*
X138129007Y-120087818D01*
X138102519Y-120323971D01*
X138102400Y-120340971D01*
X138102400Y-120659029D01*
X138125589Y-120895529D01*
X138194273Y-121123020D01*
X138305835Y-121332839D01*
X138456027Y-121516992D01*
X138639127Y-121668465D01*
X138848161Y-121781490D01*
X139075168Y-121851760D01*
X139311500Y-121876599D01*
X139548155Y-121855062D01*
X139776121Y-121787968D01*
X139986713Y-121677873D01*
X140171910Y-121528971D01*
X140324658Y-121346933D01*
X140439139Y-121138693D01*
X140510993Y-120912182D01*
X140537481Y-120676029D01*
X140537600Y-120659029D01*
X140537600Y-120340971D01*
X140514411Y-120104471D01*
X140445727Y-119876980D01*
X140334165Y-119667161D01*
X140183973Y-119483008D01*
X140128141Y-119436820D01*
X141050637Y-119436820D01*
X141008090Y-119471029D01*
X140855342Y-119653067D01*
X140740861Y-119861307D01*
X140669007Y-120087818D01*
X140642519Y-120323971D01*
X140642400Y-120340971D01*
X140642400Y-120659029D01*
X140665589Y-120895529D01*
X140734273Y-121123020D01*
X140845835Y-121332839D01*
X140996027Y-121516992D01*
X141179127Y-121668465D01*
X141388161Y-121781490D01*
X141615168Y-121851760D01*
X141851500Y-121876599D01*
X142088155Y-121855062D01*
X142316121Y-121787968D01*
X142526713Y-121677873D01*
X142711910Y-121528971D01*
X142864658Y-121346933D01*
X142928400Y-121230987D01*
X142928400Y-121575883D01*
X142951765Y-121693347D01*
X142997597Y-121803996D01*
X143064136Y-121903578D01*
X143148823Y-121988265D01*
X143248404Y-122054803D01*
X143359053Y-122100635D01*
X143476517Y-122124000D01*
X143840000Y-122124000D01*
X143992000Y-121972000D01*
X143992000Y-120908000D01*
X143972000Y-120908000D01*
X143972000Y-120092000D01*
X143992000Y-120092000D01*
X143992000Y-120072000D01*
X144808000Y-120072000D01*
X144808000Y-120092000D01*
X144828000Y-120092000D01*
X144828000Y-120908000D01*
X144808000Y-120908000D01*
X144808000Y-121972000D01*
X144960000Y-122124000D01*
X145323483Y-122124000D01*
X145440947Y-122100635D01*
X145551596Y-122054803D01*
X145651177Y-121988265D01*
X145735864Y-121903578D01*
X145802403Y-121803996D01*
X145848235Y-121693347D01*
X145871600Y-121575883D01*
X145871600Y-121060000D01*
X145719602Y-120908002D01*
X145871600Y-120908002D01*
X145871600Y-120523409D01*
X145933690Y-120524710D01*
X146059997Y-120502439D01*
X146179573Y-120456058D01*
X146287864Y-120387335D01*
X146326019Y-120351000D01*
X148055312Y-120351000D01*
X148134194Y-120501888D01*
X148275319Y-120677411D01*
X148447848Y-120822181D01*
X148645211Y-120930682D01*
X148859890Y-120998782D01*
X148888578Y-121002000D01*
X148702000Y-121002000D01*
X148435152Y-121108651D01*
X148194238Y-121265312D01*
X147988517Y-121465963D01*
X147839207Y-121803740D01*
X147919397Y-122010000D01*
X149652000Y-122010000D01*
X149652000Y-121982000D01*
X150468000Y-121982000D01*
X150468000Y-122010000D01*
X152200603Y-122010000D01*
X152280793Y-121803740D01*
X152131483Y-121465963D01*
X151925762Y-121265312D01*
X151684848Y-121108651D01*
X151418000Y-121002000D01*
X151244399Y-121002000D01*
X151459935Y-120936926D01*
X151658794Y-120831191D01*
X151833328Y-120688845D01*
X151976889Y-120515309D01*
X152084010Y-120317193D01*
X152150610Y-120102044D01*
X152174152Y-119878056D01*
X152153739Y-119653762D01*
X152090150Y-119437704D01*
X151985806Y-119238112D01*
X151844681Y-119062589D01*
X151826379Y-119047232D01*
X151930298Y-119047232D01*
X153898183Y-121015118D01*
X153932504Y-121043309D01*
X153934603Y-121045070D01*
X153850623Y-121100025D01*
X153699439Y-121248076D01*
X153579890Y-121422673D01*
X153496531Y-121617164D01*
X153452536Y-121824143D01*
X153449582Y-122035725D01*
X153487780Y-122243852D01*
X153565676Y-122440595D01*
X153680303Y-122618461D01*
X153827295Y-122770676D01*
X154001052Y-122891440D01*
X154194957Y-122976155D01*
X154401624Y-123021594D01*
X154613180Y-123026026D01*
X154821569Y-122989281D01*
X155018851Y-122912760D01*
X155197513Y-122799378D01*
X155350750Y-122653452D01*
X155472725Y-122480542D01*
X155558791Y-122287233D01*
X155605672Y-122080889D01*
X155609046Y-121839199D01*
X155567946Y-121631626D01*
X155487310Y-121435989D01*
X155370211Y-121259741D01*
X155267192Y-121156000D01*
X156099897Y-121156000D01*
X156105676Y-121170595D01*
X156220303Y-121348461D01*
X156367295Y-121500676D01*
X156541052Y-121621440D01*
X156734957Y-121706155D01*
X156941624Y-121751594D01*
X157153180Y-121756026D01*
X157361569Y-121719281D01*
X157558851Y-121642760D01*
X157737513Y-121529378D01*
X157890750Y-121383452D01*
X158012725Y-121210542D01*
X158098791Y-121017233D01*
X158122316Y-120913688D01*
X160344221Y-120913688D01*
X160392154Y-121174859D01*
X160489904Y-121421745D01*
X160633745Y-121644943D01*
X160818200Y-121835952D01*
X161036242Y-121987495D01*
X161279567Y-122093801D01*
X161538905Y-122150820D01*
X161804380Y-122156381D01*
X162065879Y-122110272D01*
X162313442Y-122014249D01*
X162537639Y-121871969D01*
X162729930Y-121688852D01*
X162882992Y-121471873D01*
X162990994Y-121229297D01*
X163049823Y-120970362D01*
X163054058Y-120667073D01*
X163002482Y-120406597D01*
X162901295Y-120161100D01*
X162754351Y-119939932D01*
X162567248Y-119751517D01*
X162347111Y-119603033D01*
X162102326Y-119500135D01*
X161842216Y-119446742D01*
X161576690Y-119444888D01*
X161315860Y-119494644D01*
X161069662Y-119594115D01*
X160847474Y-119739511D01*
X160657757Y-119925295D01*
X160507740Y-120144390D01*
X160403135Y-120388450D01*
X160347928Y-120648181D01*
X160344221Y-120913688D01*
X158122316Y-120913688D01*
X158145672Y-120810889D01*
X158149046Y-120569199D01*
X158107946Y-120361626D01*
X158027310Y-120165989D01*
X157910211Y-119989741D01*
X157761108Y-119839593D01*
X157585682Y-119721267D01*
X157390613Y-119639267D01*
X157183332Y-119596718D01*
X156971734Y-119595241D01*
X156763879Y-119634892D01*
X156567685Y-119714159D01*
X156390623Y-119830025D01*
X156239439Y-119978076D01*
X156119890Y-120152673D01*
X156102177Y-120194000D01*
X155266166Y-120194000D01*
X155350750Y-120113452D01*
X155472725Y-119940542D01*
X155558791Y-119747233D01*
X155605672Y-119540889D01*
X155609046Y-119299199D01*
X155567946Y-119091626D01*
X155487310Y-118895989D01*
X155370211Y-118719741D01*
X155342862Y-118692200D01*
X156145378Y-118692200D01*
X156220303Y-118808461D01*
X156367295Y-118960676D01*
X156541052Y-119081440D01*
X156734957Y-119166155D01*
X156941624Y-119211594D01*
X157153180Y-119216026D01*
X157361569Y-119179281D01*
X157558851Y-119102760D01*
X157737513Y-118989378D01*
X157890750Y-118843452D01*
X158012725Y-118670542D01*
X158098791Y-118477233D01*
X158145672Y-118270889D01*
X158149046Y-118029199D01*
X158107946Y-117821626D01*
X158027310Y-117625989D01*
X157910211Y-117449741D01*
X157761108Y-117299593D01*
X157585682Y-117181267D01*
X157390613Y-117099267D01*
X157183332Y-117056718D01*
X156971734Y-117055241D01*
X156763879Y-117094892D01*
X156567685Y-117174159D01*
X156390623Y-117290025D01*
X156239439Y-117438076D01*
X156143768Y-117577800D01*
X155346184Y-117577800D01*
X155350750Y-117573452D01*
X155472725Y-117400542D01*
X155558791Y-117207233D01*
X155605672Y-117000889D01*
X155609046Y-116759199D01*
X155567946Y-116551626D01*
X155487310Y-116355989D01*
X155370211Y-116179741D01*
X155267192Y-116076000D01*
X156099897Y-116076000D01*
X156105676Y-116090595D01*
X156220303Y-116268461D01*
X156367295Y-116420676D01*
X156541052Y-116541440D01*
X156734957Y-116626155D01*
X156941624Y-116671594D01*
X157153180Y-116676026D01*
X157361569Y-116639281D01*
X157558851Y-116562760D01*
X157737513Y-116449378D01*
X157890750Y-116303452D01*
X158012725Y-116130542D01*
X158098791Y-115937233D01*
X158145672Y-115730889D01*
X158149046Y-115489199D01*
X158107946Y-115281626D01*
X158027310Y-115085989D01*
X157910211Y-114909741D01*
X157761108Y-114759593D01*
X157585682Y-114641267D01*
X157390613Y-114559267D01*
X157183332Y-114516718D01*
X156971734Y-114515241D01*
X156763879Y-114554892D01*
X156567685Y-114634159D01*
X156390623Y-114750025D01*
X156239439Y-114898076D01*
X156119890Y-115072673D01*
X156102177Y-115114000D01*
X155266166Y-115114000D01*
X155350750Y-115033452D01*
X155472725Y-114860542D01*
X155558791Y-114667233D01*
X155605672Y-114460889D01*
X155609046Y-114219199D01*
X155587603Y-114110899D01*
X156526754Y-114110899D01*
X156605340Y-114311271D01*
X156859355Y-114377783D01*
X157121464Y-114393461D01*
X157381596Y-114357702D01*
X157534660Y-114311271D01*
X157613246Y-114110899D01*
X157070000Y-113567652D01*
X156526754Y-114110899D01*
X155587603Y-114110899D01*
X155567946Y-114011626D01*
X155487310Y-113815989D01*
X155370211Y-113639741D01*
X155221108Y-113489593D01*
X155045682Y-113371267D01*
X154850613Y-113289267D01*
X154643332Y-113246718D01*
X154431734Y-113245241D01*
X154223879Y-113284892D01*
X154027685Y-113364159D01*
X153850623Y-113480025D01*
X153699439Y-113628076D01*
X153579890Y-113802673D01*
X153496531Y-113997164D01*
X153452536Y-114204143D01*
X153449582Y-114415725D01*
X153487780Y-114623852D01*
X153565676Y-114820595D01*
X153680303Y-114998461D01*
X153791877Y-115114000D01*
X152805000Y-115114000D01*
X152760777Y-115118336D01*
X152716519Y-115122208D01*
X152714087Y-115122914D01*
X152711573Y-115123161D01*
X152669016Y-115136009D01*
X152626372Y-115148399D01*
X152624131Y-115149561D01*
X152621705Y-115150293D01*
X152582456Y-115171163D01*
X152543029Y-115191599D01*
X152541050Y-115193179D01*
X152538819Y-115194365D01*
X152504381Y-115222451D01*
X152469664Y-115250166D01*
X152466150Y-115253632D01*
X152466071Y-115253696D01*
X152466011Y-115253769D01*
X152464882Y-115254882D01*
X152131373Y-115588391D01*
X151850249Y-115588391D01*
X151976889Y-115435309D01*
X152084010Y-115237193D01*
X152150610Y-115022044D01*
X152174152Y-114798056D01*
X152153739Y-114573762D01*
X152090150Y-114357704D01*
X151985806Y-114158112D01*
X151844681Y-113982589D01*
X151672152Y-113837819D01*
X151474789Y-113729318D01*
X151260110Y-113661218D01*
X151036292Y-113636112D01*
X151020180Y-113636000D01*
X149099820Y-113636000D01*
X148875674Y-113657978D01*
X148660065Y-113723074D01*
X148461206Y-113828809D01*
X148286672Y-113971155D01*
X148143111Y-114144691D01*
X148098759Y-114226718D01*
X148076978Y-114219809D01*
X148074594Y-114219542D01*
X148072306Y-114218842D01*
X148030493Y-114214595D01*
X148007794Y-114212048D01*
X148845595Y-113374247D01*
X148859890Y-113378782D01*
X149083708Y-113403888D01*
X149099820Y-113404000D01*
X151020180Y-113404000D01*
X151244326Y-113382022D01*
X151459935Y-113316926D01*
X151658794Y-113211191D01*
X151787202Y-113106464D01*
X155731539Y-113106464D01*
X155767298Y-113366596D01*
X155813729Y-113519660D01*
X156014101Y-113598246D01*
X156557348Y-113055000D01*
X157582652Y-113055000D01*
X158125899Y-113598246D01*
X158326271Y-113519660D01*
X158380119Y-113314008D01*
X160344221Y-113314008D01*
X160392154Y-113575179D01*
X160489904Y-113822065D01*
X160633745Y-114045263D01*
X160818200Y-114236272D01*
X161036242Y-114387815D01*
X161279567Y-114494121D01*
X161538905Y-114551140D01*
X161804380Y-114556701D01*
X162065879Y-114510592D01*
X162313442Y-114414569D01*
X162537639Y-114272289D01*
X162729930Y-114089172D01*
X162882992Y-113872193D01*
X162990994Y-113629617D01*
X163049823Y-113370682D01*
X163054058Y-113067393D01*
X163002482Y-112806917D01*
X162901295Y-112561420D01*
X162754351Y-112340252D01*
X162567248Y-112151837D01*
X162347111Y-112003353D01*
X162102326Y-111900455D01*
X161842216Y-111847062D01*
X161576690Y-111845208D01*
X161315860Y-111894964D01*
X161069662Y-111994435D01*
X160847474Y-112139831D01*
X160657757Y-112325615D01*
X160507740Y-112544710D01*
X160403135Y-112788770D01*
X160347928Y-113048501D01*
X160344221Y-113314008D01*
X158380119Y-113314008D01*
X158392783Y-113265645D01*
X158408461Y-113003536D01*
X158372702Y-112743404D01*
X158326271Y-112590340D01*
X158125899Y-112511754D01*
X157582652Y-113055000D01*
X156557348Y-113055000D01*
X156014101Y-112511754D01*
X155813729Y-112590340D01*
X155747217Y-112844355D01*
X155731539Y-113106464D01*
X151787202Y-113106464D01*
X151833328Y-113068845D01*
X151976889Y-112895309D01*
X152024529Y-112807200D01*
X154065000Y-112807200D01*
X154116215Y-112802178D01*
X154155166Y-112798771D01*
X154194957Y-112816155D01*
X154401624Y-112861594D01*
X154613180Y-112866026D01*
X154821569Y-112829281D01*
X155018851Y-112752760D01*
X155197513Y-112639378D01*
X155350750Y-112493452D01*
X155472725Y-112320542D01*
X155558791Y-112127233D01*
X155587902Y-111999101D01*
X156526754Y-111999101D01*
X157070000Y-112542348D01*
X157613246Y-111999101D01*
X157534660Y-111798729D01*
X157280645Y-111732217D01*
X157018536Y-111716539D01*
X156758404Y-111752298D01*
X156605340Y-111798729D01*
X156526754Y-111999101D01*
X155587902Y-111999101D01*
X155605672Y-111920889D01*
X155609046Y-111679199D01*
X155567946Y-111471626D01*
X155487310Y-111275989D01*
X155370211Y-111099741D01*
X155221108Y-110949593D01*
X155045682Y-110831267D01*
X154850613Y-110749267D01*
X154643332Y-110706718D01*
X154431734Y-110705241D01*
X154223879Y-110744892D01*
X154027685Y-110824159D01*
X153850623Y-110940025D01*
X153699439Y-111088076D01*
X153579890Y-111262673D01*
X153496531Y-111457164D01*
X153452536Y-111664143D01*
X153452136Y-111692800D01*
X152024852Y-111692800D01*
X151985806Y-111618112D01*
X151844681Y-111442589D01*
X151672152Y-111297819D01*
X151474789Y-111189318D01*
X151260110Y-111121218D01*
X151231422Y-111118000D01*
X151418000Y-111118000D01*
X151684848Y-111011349D01*
X151925762Y-110854688D01*
X152131483Y-110654037D01*
X152207516Y-110482031D01*
X155174483Y-110482031D01*
X155215336Y-110704625D01*
X155298647Y-110915043D01*
X155421242Y-111105273D01*
X155578451Y-111268068D01*
X155764286Y-111397226D01*
X155971669Y-111487830D01*
X156192701Y-111536427D01*
X156418962Y-111541166D01*
X156641835Y-111501868D01*
X156852830Y-111420028D01*
X157043911Y-111298765D01*
X157207799Y-111142696D01*
X157338252Y-110957767D01*
X157430301Y-110751022D01*
X157480440Y-110530334D01*
X157484050Y-110271844D01*
X157440092Y-110049843D01*
X157353852Y-109840608D01*
X157228613Y-109652109D01*
X157069147Y-109491525D01*
X156881526Y-109364974D01*
X156672898Y-109277274D01*
X156451210Y-109231768D01*
X156224904Y-109230188D01*
X156002601Y-109272595D01*
X155792769Y-109357373D01*
X155603400Y-109481292D01*
X155441707Y-109639634D01*
X155313849Y-109826366D01*
X155224695Y-110034377D01*
X155177643Y-110255742D01*
X155174483Y-110482031D01*
X152207516Y-110482031D01*
X152280793Y-110316260D01*
X152200603Y-110110000D01*
X150468000Y-110110000D01*
X150468000Y-110138000D01*
X149652000Y-110138000D01*
X149652000Y-110110000D01*
X147919397Y-110110000D01*
X147839207Y-110316260D01*
X147988517Y-110654037D01*
X148194238Y-110854688D01*
X148435152Y-111011349D01*
X148702000Y-111118000D01*
X148875601Y-111118000D01*
X148660065Y-111183074D01*
X148461206Y-111288809D01*
X148286672Y-111431155D01*
X148143111Y-111604691D01*
X148035990Y-111802807D01*
X147969390Y-112017956D01*
X147945848Y-112241944D01*
X147966261Y-112466238D01*
X147981646Y-112518512D01*
X147087606Y-113412552D01*
X146344204Y-113412552D01*
X146297162Y-113392777D01*
X146171525Y-113366988D01*
X146043273Y-113366093D01*
X145917288Y-113390125D01*
X145798372Y-113438171D01*
X145691052Y-113508399D01*
X145599416Y-113598135D01*
X145526956Y-113703961D01*
X145476430Y-113821845D01*
X145463715Y-113881665D01*
X140489828Y-108907778D01*
X147925829Y-108907778D01*
X147839207Y-109103740D01*
X147919397Y-109310000D01*
X149652000Y-109310000D01*
X149652000Y-109282000D01*
X150468000Y-109282000D01*
X150468000Y-109310000D01*
X152200603Y-109310000D01*
X152280793Y-109103740D01*
X152194171Y-108907778D01*
X152773222Y-108907778D01*
X152817445Y-108903442D01*
X152861703Y-108899570D01*
X152864135Y-108898864D01*
X152866649Y-108898617D01*
X152909159Y-108885783D01*
X152951850Y-108873380D01*
X152954095Y-108872216D01*
X152956517Y-108871485D01*
X152995731Y-108850634D01*
X153035193Y-108830179D01*
X153037172Y-108828599D01*
X153039403Y-108827413D01*
X153073841Y-108799327D01*
X153108558Y-108771612D01*
X153112072Y-108768146D01*
X153112151Y-108768082D01*
X153112211Y-108768009D01*
X153113340Y-108766896D01*
X155125530Y-106754706D01*
X155150417Y-106755227D01*
X155276724Y-106732956D01*
X155396300Y-106686575D01*
X155504591Y-106617852D01*
X155597470Y-106529404D01*
X155671401Y-106424601D01*
X155723567Y-106307433D01*
X155751982Y-106182364D01*
X155754028Y-106035872D01*
X155729116Y-105910059D01*
X155680241Y-105791480D01*
X155609266Y-105684653D01*
X155518892Y-105593646D01*
X155412563Y-105521927D01*
X155294329Y-105472225D01*
X155168692Y-105446436D01*
X155040440Y-105445541D01*
X154914455Y-105469573D01*
X154795539Y-105517619D01*
X154688219Y-105587847D01*
X154596583Y-105677583D01*
X154524123Y-105783409D01*
X154473597Y-105901293D01*
X154446931Y-106026747D01*
X154446279Y-106073485D01*
X152573986Y-107945778D01*
X151868956Y-107945778D01*
X151976889Y-107815309D01*
X152084010Y-107617193D01*
X152150610Y-107402044D01*
X152174152Y-107178056D01*
X152153739Y-106953762D01*
X152090150Y-106737704D01*
X151985806Y-106538112D01*
X151859484Y-106381000D01*
X152141865Y-106381000D01*
X152186088Y-106376664D01*
X152230346Y-106372792D01*
X152232778Y-106372086D01*
X152235292Y-106371839D01*
X152277802Y-106359005D01*
X152320493Y-106346602D01*
X152322738Y-106345438D01*
X152325160Y-106344707D01*
X152364374Y-106323856D01*
X152403836Y-106303401D01*
X152405815Y-106301821D01*
X152408046Y-106300635D01*
X152442484Y-106272549D01*
X152477201Y-106244834D01*
X152480715Y-106241368D01*
X152480794Y-106241304D01*
X152480854Y-106241231D01*
X152481983Y-106240118D01*
X153340118Y-105381983D01*
X153368289Y-105347687D01*
X153396880Y-105313614D01*
X153398100Y-105311394D01*
X153399703Y-105309443D01*
X153420680Y-105270322D01*
X153442104Y-105231351D01*
X153442869Y-105228940D01*
X153444064Y-105226711D01*
X153457045Y-105184250D01*
X153458991Y-105178113D01*
X157969779Y-105178113D01*
X158002667Y-105357306D01*
X158069734Y-105526699D01*
X158168426Y-105679838D01*
X158294983Y-105810892D01*
X158444585Y-105914868D01*
X158611534Y-105987807D01*
X158789470Y-106026928D01*
X158971617Y-106030744D01*
X159151035Y-105999107D01*
X159320892Y-105933224D01*
X159474717Y-105835604D01*
X159606651Y-105709965D01*
X159711669Y-105561092D01*
X159785771Y-105394657D01*
X159826134Y-105216998D01*
X159829040Y-105008907D01*
X159793653Y-104830190D01*
X159724227Y-104661751D01*
X159623407Y-104510004D01*
X159495032Y-104380730D01*
X159343993Y-104278852D01*
X159176042Y-104208252D01*
X158997577Y-104171619D01*
X158815395Y-104170347D01*
X158636436Y-104204485D01*
X158467515Y-104272733D01*
X158315068Y-104372492D01*
X158184901Y-104499961D01*
X158081972Y-104650285D01*
X158010201Y-104817739D01*
X157972323Y-104995944D01*
X157969779Y-105178113D01*
X153458991Y-105178113D01*
X153470489Y-105141871D01*
X153470771Y-105139354D01*
X153471510Y-105136938D01*
X153475998Y-105092758D01*
X153480953Y-105048581D01*
X153480988Y-105043637D01*
X153480997Y-105043544D01*
X153480989Y-105043458D01*
X153481000Y-105041865D01*
X153481000Y-103199236D01*
X153499236Y-103181000D01*
X153655291Y-103181000D01*
X153674079Y-103200456D01*
X153779396Y-103273653D01*
X153896925Y-103325000D01*
X154022189Y-103352541D01*
X154150417Y-103355227D01*
X154276724Y-103332956D01*
X154396300Y-103286575D01*
X154504591Y-103217852D01*
X154597470Y-103129404D01*
X154671401Y-103024601D01*
X154723567Y-102907433D01*
X154751982Y-102782364D01*
X154754028Y-102635872D01*
X154729116Y-102510059D01*
X154680241Y-102391480D01*
X154609266Y-102284653D01*
X154518892Y-102193646D01*
X154412563Y-102121927D01*
X154294329Y-102072225D01*
X154168692Y-102046436D01*
X154040440Y-102045541D01*
X153914455Y-102069573D01*
X153795539Y-102117619D01*
X153702333Y-102178611D01*
X154440118Y-101440826D01*
X154468289Y-101406530D01*
X154496880Y-101372457D01*
X154498100Y-101370237D01*
X154499703Y-101368286D01*
X154520699Y-101329130D01*
X154542104Y-101290194D01*
X154542867Y-101287787D01*
X154544065Y-101285554D01*
X154557060Y-101243047D01*
X154570489Y-101200714D01*
X154570771Y-101198197D01*
X154571510Y-101195781D01*
X154575998Y-101151601D01*
X154580953Y-101107424D01*
X154580988Y-101102480D01*
X154580997Y-101102387D01*
X154580989Y-101102301D01*
X154581000Y-101100708D01*
X154581000Y-100545088D01*
X154597470Y-100529404D01*
X154671401Y-100424601D01*
X154723567Y-100307433D01*
X154751982Y-100182364D01*
X154752041Y-100178113D01*
X157969779Y-100178113D01*
X158002667Y-100357306D01*
X158069734Y-100526699D01*
X158168426Y-100679838D01*
X158294983Y-100810892D01*
X158444585Y-100914868D01*
X158611534Y-100987807D01*
X158789470Y-101026928D01*
X158971617Y-101030744D01*
X159151035Y-100999107D01*
X159320892Y-100933224D01*
X159474717Y-100835604D01*
X159606651Y-100709965D01*
X159711669Y-100561092D01*
X159785771Y-100394657D01*
X159826134Y-100216998D01*
X159829040Y-100008907D01*
X159793653Y-99830190D01*
X159724227Y-99661751D01*
X159623407Y-99510004D01*
X159495032Y-99380730D01*
X159343993Y-99278852D01*
X159176042Y-99208252D01*
X158997577Y-99171619D01*
X158815395Y-99170347D01*
X158636436Y-99204485D01*
X158467515Y-99272733D01*
X158315068Y-99372492D01*
X158184901Y-99499961D01*
X158081972Y-99650285D01*
X158010201Y-99817739D01*
X157972323Y-99995944D01*
X157969779Y-100178113D01*
X154752041Y-100178113D01*
X154754028Y-100035872D01*
X154729116Y-99910059D01*
X154680241Y-99791480D01*
X154609266Y-99684653D01*
X154518892Y-99593646D01*
X154412563Y-99521927D01*
X154294329Y-99472225D01*
X154168692Y-99446436D01*
X154040440Y-99445541D01*
X153914455Y-99469573D01*
X153795539Y-99517619D01*
X153688219Y-99587847D01*
X153596583Y-99677583D01*
X153524123Y-99783409D01*
X153473597Y-99901293D01*
X153446931Y-100026747D01*
X153445141Y-100154990D01*
X153468293Y-100281139D01*
X153515508Y-100400388D01*
X153584985Y-100508196D01*
X153619000Y-100543420D01*
X153619000Y-100901472D01*
X152129171Y-102391301D01*
X152150610Y-102322044D01*
X152174152Y-102098056D01*
X152153739Y-101873762D01*
X152090150Y-101657704D01*
X151985806Y-101458112D01*
X151844681Y-101282589D01*
X151685521Y-101149037D01*
X151776724Y-101132956D01*
X151896300Y-101086575D01*
X152004591Y-101017852D01*
X152097470Y-100929404D01*
X152171401Y-100824601D01*
X152223567Y-100707433D01*
X152251982Y-100582364D01*
X152254028Y-100435872D01*
X152229116Y-100310059D01*
X152180241Y-100191480D01*
X152109266Y-100084653D01*
X152018892Y-99993646D01*
X151912563Y-99921927D01*
X151794329Y-99872225D01*
X151668692Y-99846436D01*
X151540440Y-99845541D01*
X151414455Y-99869573D01*
X151295539Y-99917619D01*
X151188219Y-99987847D01*
X151154256Y-100021106D01*
X151131513Y-100023336D01*
X151087255Y-100027208D01*
X151084823Y-100027914D01*
X151082309Y-100028161D01*
X151039799Y-100040995D01*
X150997108Y-100053398D01*
X150994863Y-100054562D01*
X150992441Y-100055293D01*
X150953227Y-100076144D01*
X150913765Y-100096599D01*
X150911786Y-100098179D01*
X150909555Y-100099365D01*
X150875117Y-100127451D01*
X150840400Y-100155166D01*
X150836886Y-100158632D01*
X150836807Y-100158696D01*
X150836747Y-100158769D01*
X150835618Y-100159882D01*
X150758448Y-100237052D01*
X148710380Y-100237052D01*
X148723567Y-100207433D01*
X148751982Y-100082364D01*
X148754028Y-99935872D01*
X148729116Y-99810059D01*
X148680241Y-99691480D01*
X148609266Y-99584653D01*
X148518892Y-99493646D01*
X148412563Y-99421927D01*
X148294329Y-99372225D01*
X148168692Y-99346436D01*
X148040440Y-99345541D01*
X147914455Y-99369573D01*
X147795539Y-99417619D01*
X147688219Y-99487847D01*
X147656406Y-99519000D01*
X146629204Y-99519000D01*
X146696300Y-99492975D01*
X146804591Y-99424252D01*
X146897470Y-99335804D01*
X146971401Y-99231001D01*
X147023567Y-99113833D01*
X147051982Y-98988764D01*
X147054028Y-98842272D01*
X147029116Y-98716459D01*
X146980241Y-98597880D01*
X146909266Y-98491053D01*
X146818892Y-98400046D01*
X146712563Y-98328327D01*
X146594329Y-98278625D01*
X146468692Y-98252836D01*
X146340440Y-98251941D01*
X146214455Y-98275973D01*
X146095539Y-98324019D01*
X146057058Y-98349200D01*
X143237200Y-98349200D01*
X141494000Y-96606000D01*
X141454222Y-96573327D01*
X141414800Y-96540247D01*
X141412230Y-96538834D01*
X141409968Y-96536976D01*
X141364622Y-96512662D01*
X141319504Y-96487858D01*
X141316711Y-96486972D01*
X141314130Y-96485588D01*
X141264920Y-96470543D01*
X141215848Y-96454976D01*
X141212936Y-96454649D01*
X141210135Y-96453793D01*
X141158936Y-96448592D01*
X141107780Y-96442854D01*
X141102056Y-96442814D01*
X141101945Y-96442803D01*
X141101842Y-96442813D01*
X141100000Y-96442800D01*
X134447600Y-96442800D01*
X134396335Y-96447827D01*
X134345103Y-96452309D01*
X134342291Y-96453126D01*
X134339373Y-96453412D01*
X134290087Y-96468292D01*
X134240673Y-96482648D01*
X134238071Y-96483997D01*
X134235268Y-96484843D01*
X134189817Y-96509010D01*
X134144127Y-96532693D01*
X134141839Y-96534519D01*
X134139250Y-96535896D01*
X134099372Y-96568420D01*
X134059139Y-96600537D01*
X134055059Y-96604561D01*
X134054978Y-96604627D01*
X134054915Y-96604703D01*
X134053600Y-96606000D01*
X133231312Y-97428288D01*
X131936400Y-97428288D01*
X131867004Y-97435123D01*
X131800275Y-97455365D01*
X131738777Y-97488236D01*
X131684874Y-97532474D01*
X131640636Y-97586377D01*
X131607765Y-97647875D01*
X131587523Y-97714604D01*
X131580688Y-97784000D01*
X131580688Y-99816000D01*
X131587523Y-99885396D01*
X131607765Y-99952125D01*
X131640636Y-100013623D01*
X131684874Y-100067526D01*
X131738777Y-100111764D01*
X131800275Y-100144635D01*
X131867004Y-100164877D01*
X131936400Y-100171712D01*
X133663600Y-100171712D01*
X133732996Y-100164877D01*
X133799725Y-100144635D01*
X133861223Y-100111764D01*
X133915126Y-100067526D01*
X133959364Y-100013623D01*
X133992235Y-99952125D01*
X134012477Y-99885396D01*
X134019312Y-99816000D01*
X134019312Y-99554117D01*
X134081469Y-99689135D01*
X134249381Y-99920506D01*
X134459205Y-100114673D01*
X134702877Y-100264175D01*
X134715839Y-100285077D01*
X134932000Y-100207342D01*
X134932000Y-99208000D01*
X134912000Y-99208000D01*
X134912000Y-98392000D01*
X134932000Y-98392000D01*
X134932000Y-98372000D01*
X135748000Y-98372000D01*
X135748000Y-98392000D01*
X135768000Y-98392000D01*
X135768000Y-99208000D01*
X135748000Y-99208000D01*
X135748000Y-100207342D01*
X135964161Y-100285077D01*
X135977123Y-100264175D01*
X136220795Y-100114673D01*
X136430619Y-99920506D01*
X136598531Y-99689135D01*
X136718079Y-99429452D01*
X136623741Y-99208002D01*
X136689355Y-99208002D01*
X136754273Y-99423020D01*
X136865835Y-99632839D01*
X137016027Y-99816992D01*
X137199127Y-99968465D01*
X137399000Y-100076537D01*
X137399000Y-102723463D01*
X137342613Y-102666681D01*
X137236284Y-102594962D01*
X137118050Y-102545260D01*
X136992413Y-102519471D01*
X136864161Y-102518576D01*
X136738176Y-102542608D01*
X136619260Y-102590654D01*
X136511940Y-102660882D01*
X136420304Y-102750618D01*
X136347844Y-102856444D01*
X136297318Y-102974328D01*
X136270652Y-103099782D01*
X136270000Y-103146520D01*
X136182573Y-103233947D01*
X134337698Y-103233947D01*
X133763632Y-102659882D01*
X133729336Y-102631711D01*
X133695263Y-102603120D01*
X133693043Y-102601900D01*
X133691092Y-102600297D01*
X133651971Y-102579320D01*
X133613000Y-102557896D01*
X133610589Y-102557131D01*
X133608360Y-102555936D01*
X133565899Y-102542955D01*
X133523520Y-102529511D01*
X133521003Y-102529229D01*
X133518587Y-102528490D01*
X133474407Y-102524002D01*
X133430230Y-102519047D01*
X133425286Y-102519012D01*
X133425193Y-102519003D01*
X133425107Y-102519011D01*
X133423514Y-102519000D01*
X132244070Y-102519000D01*
X132218892Y-102493646D01*
X132112563Y-102421927D01*
X131994329Y-102372225D01*
X131868692Y-102346436D01*
X131740440Y-102345541D01*
X131614455Y-102369573D01*
X131495539Y-102417619D01*
X131388219Y-102487847D01*
X131296583Y-102577583D01*
X131224123Y-102683409D01*
X131173597Y-102801293D01*
X131146931Y-102926747D01*
X131145141Y-103054990D01*
X123310000Y-103054990D01*
X123331483Y-103034037D01*
X123480793Y-102696260D01*
X123400603Y-102490000D01*
X121668000Y-102490000D01*
X121668000Y-102518000D01*
X120852000Y-102518000D01*
X120852000Y-102490000D01*
X119119397Y-102490000D01*
X119039207Y-102696260D01*
X119188517Y-103034037D01*
X119394238Y-103234688D01*
X119635152Y-103391349D01*
X119902000Y-103498000D01*
X120075601Y-103498000D01*
X119860065Y-103563074D01*
X119661206Y-103668809D01*
X119565729Y-103746677D01*
X118939526Y-103120474D01*
X118878024Y-103069956D01*
X118817002Y-103018752D01*
X118813026Y-103016566D01*
X118809527Y-103013692D01*
X118739367Y-102976072D01*
X118669578Y-102937705D01*
X118665260Y-102936335D01*
X118661263Y-102934192D01*
X118585079Y-102910900D01*
X118509220Y-102886837D01*
X118504717Y-102886332D01*
X118500380Y-102885006D01*
X118421132Y-102876956D01*
X118342035Y-102868084D01*
X118333178Y-102868022D01*
X118333009Y-102868005D01*
X118332851Y-102868020D01*
X118330000Y-102868000D01*
X118235522Y-102868000D01*
X118235522Y-102630000D01*
X118228687Y-102560604D01*
X118208445Y-102493875D01*
X118175574Y-102432377D01*
X118131336Y-102378474D01*
X118077433Y-102334236D01*
X118015935Y-102301365D01*
X117949206Y-102281123D01*
X117879810Y-102274288D01*
X113808190Y-102274288D01*
X113738794Y-102281123D01*
X113672065Y-102301365D01*
X113610567Y-102334236D01*
X113556664Y-102378474D01*
X113512426Y-102432377D01*
X113479555Y-102493875D01*
X113459313Y-102560604D01*
X113455654Y-102597751D01*
X113404000Y-102659632D01*
X113404000Y-101483740D01*
X119039207Y-101483740D01*
X119119397Y-101690000D01*
X120852000Y-101690000D01*
X120852000Y-100682000D01*
X121668000Y-100682000D01*
X121668000Y-101690000D01*
X123400603Y-101690000D01*
X123480793Y-101483740D01*
X123331483Y-101145963D01*
X123125762Y-100945312D01*
X122884848Y-100788651D01*
X122618000Y-100682000D01*
X121668000Y-100682000D01*
X120852000Y-100682000D01*
X119902000Y-100682000D01*
X119635152Y-100788651D01*
X119394238Y-100945312D01*
X119188517Y-101145963D01*
X119039207Y-101483740D01*
X113404000Y-101483740D01*
X113404000Y-101114500D01*
X115040000Y-101114500D01*
X115192000Y-100962500D01*
X115192000Y-99708000D01*
X116008000Y-99708000D01*
X116008000Y-100962500D01*
X116160000Y-101114500D01*
X117945883Y-101114500D01*
X118063347Y-101091135D01*
X118173996Y-101045303D01*
X118273578Y-100978764D01*
X118358265Y-100894077D01*
X118424803Y-100794496D01*
X118470635Y-100683847D01*
X118494000Y-100566383D01*
X118494000Y-99860000D01*
X118342000Y-99708000D01*
X116008000Y-99708000D01*
X115192000Y-99708000D01*
X115172000Y-99708000D01*
X115172000Y-98892000D01*
X115192000Y-98892000D01*
X115192000Y-97637500D01*
X116008000Y-97637500D01*
X116008000Y-98892000D01*
X118342000Y-98892000D01*
X118494000Y-98740000D01*
X118494000Y-98033617D01*
X118470635Y-97916153D01*
X118424803Y-97805504D01*
X118410435Y-97784000D01*
X124628288Y-97784000D01*
X124628288Y-99816000D01*
X124635123Y-99885396D01*
X124655365Y-99952125D01*
X124688236Y-100013623D01*
X124732474Y-100067526D01*
X124786377Y-100111764D01*
X124847875Y-100144635D01*
X124914604Y-100164877D01*
X124984000Y-100171712D01*
X127016000Y-100171712D01*
X127085396Y-100164877D01*
X127152125Y-100144635D01*
X127213623Y-100111764D01*
X127267526Y-100067526D01*
X127311764Y-100013623D01*
X127344635Y-99952125D01*
X127358737Y-99905636D01*
X127412890Y-99969208D01*
X127662648Y-100166630D01*
X127891122Y-100288735D01*
X128132000Y-100214327D01*
X128132000Y-99208000D01*
X128948000Y-99208000D01*
X128948000Y-100214327D01*
X129188878Y-100288735D01*
X129417352Y-100166630D01*
X129667110Y-99969208D01*
X129873554Y-99726854D01*
X130028750Y-99448881D01*
X129959928Y-99208000D01*
X128948000Y-99208000D01*
X128132000Y-99208000D01*
X128112000Y-99208000D01*
X128112000Y-98392000D01*
X128132000Y-98392000D01*
X128132000Y-97385673D01*
X128948000Y-97385673D01*
X128948000Y-98392000D01*
X129959928Y-98392000D01*
X130028750Y-98151119D01*
X129873554Y-97873146D01*
X129667110Y-97630792D01*
X129417352Y-97433370D01*
X129188878Y-97311265D01*
X128948000Y-97385673D01*
X128132000Y-97385673D01*
X127891122Y-97311265D01*
X127662648Y-97433370D01*
X127412890Y-97630792D01*
X127358737Y-97694364D01*
X127344635Y-97647875D01*
X127311764Y-97586377D01*
X127267526Y-97532474D01*
X127213623Y-97488236D01*
X127152125Y-97455365D01*
X127085396Y-97435123D01*
X127016000Y-97428288D01*
X124984000Y-97428288D01*
X124914604Y-97435123D01*
X124847875Y-97455365D01*
X124786377Y-97488236D01*
X124732474Y-97532474D01*
X124688236Y-97586377D01*
X124655365Y-97647875D01*
X124635123Y-97714604D01*
X124628288Y-97784000D01*
X118410435Y-97784000D01*
X118358265Y-97705923D01*
X118273578Y-97621236D01*
X118173996Y-97554697D01*
X118063347Y-97508865D01*
X117945883Y-97485500D01*
X116160000Y-97485500D01*
X116008000Y-97637500D01*
X115192000Y-97637500D01*
X115040000Y-97485500D01*
X113404000Y-97485500D01*
X113404000Y-95404000D01*
X163096000Y-95404000D01*
X163096000Y-124096000D01*
M02*
