G04 #@! TF.FileFunction,Soldermask,Top*
%FSLAX46Y46*%
G04 Gerber Fmt 4.6, Leading zero omitted, Abs format (unit mm)*
G04 Created by KiCad (PCBNEW (2016-03-18 BZR 6629)-product) date Fr 15 Apr 2016 01:16:20 CEST*
%MOMM*%
G01*
G04 APERTURE LIST*
%ADD10C,0.100000*%
%ADD11O,3.800120X2.100860*%
%ADD12R,1.050000X1.100000*%
%ADD13R,1.900000X1.300000*%
%ADD14R,1.100000X1.050000*%
%ADD15R,1.300000X1.900000*%
%ADD16R,1.200000X0.800000*%
%ADD17R,0.800000X0.600000*%
%ADD18R,1.100000X1.180000*%
%ADD19R,0.800000X1.200000*%
%ADD20R,1.097560X1.097560*%
%ADD21R,0.850000X1.900000*%
%ADD22R,1.900000X0.850000*%
%ADD23R,2.027200X2.332000*%
%ADD24O,2.027200X2.332000*%
%ADD25C,2.300000*%
%ADD26R,0.698780X1.049300*%
%ADD27R,2.300000X0.600000*%
%ADD28R,2.799360X2.601240*%
%ADD29R,2.799360X2.100860*%
%ADD30R,1.897660X2.100860*%
%ADD31R,2.100000X2.200000*%
%ADD32C,1.450000*%
%ADD33R,2.332000X2.332000*%
%ADD34O,2.332000X2.332000*%
%ADD35R,3.000000X1.100000*%
%ADD36C,1.750000*%
%ADD37C,1.900000*%
%ADD38R,4.872000X2.713000*%
G04 APERTURE END LIST*
D10*
D11*
X115250000Y-118020000D03*
X115250000Y-115480000D03*
D12*
X123700000Y-119075000D03*
X123700000Y-117575000D03*
D13*
X121800000Y-118225000D03*
X121800000Y-115225000D03*
D14*
X126950000Y-116325000D03*
X125450000Y-116325000D03*
D15*
X127900000Y-113225000D03*
X124900000Y-113225000D03*
D16*
X130600000Y-112875000D03*
X130600000Y-111375000D03*
X128400000Y-121275000D03*
X128400000Y-122775000D03*
D17*
X125200000Y-118475000D03*
X125200000Y-118975000D03*
X125200000Y-119475000D03*
X125200000Y-119975000D03*
X127000000Y-119975000D03*
X127000000Y-119475000D03*
X127000000Y-118975000D03*
X127000000Y-118475000D03*
D18*
X126100000Y-119665000D03*
X126100000Y-118785000D03*
D14*
X126950000Y-115025000D03*
X125450000Y-115025000D03*
D16*
X122000000Y-111775000D03*
X122000000Y-110275000D03*
D19*
X127050000Y-123150000D03*
X125550000Y-123150000D03*
X127050000Y-121650000D03*
X125550000Y-121650000D03*
D14*
X142550000Y-99700000D03*
X144050000Y-99700000D03*
D12*
X137750000Y-112500000D03*
X137750000Y-114000000D03*
X139250000Y-112500000D03*
X139250000Y-114000000D03*
D14*
X143950000Y-101500000D03*
X145450000Y-101500000D03*
D15*
X146400000Y-97700000D03*
X143400000Y-97700000D03*
D14*
X131250000Y-105000000D03*
X129750000Y-105000000D03*
D15*
X139800000Y-116100000D03*
X136800000Y-116100000D03*
D12*
X145600000Y-114250000D03*
X145600000Y-112750000D03*
D20*
X150200000Y-98549300D03*
X150200000Y-97050700D03*
X152500000Y-98549300D03*
X152500000Y-97050700D03*
D21*
X135200000Y-110250000D03*
X136000000Y-110250000D03*
X136800000Y-110250000D03*
X137600000Y-110250000D03*
X138400000Y-110250000D03*
X139200000Y-110250000D03*
X140000000Y-110250000D03*
X140800000Y-110250000D03*
D22*
X142250000Y-108800000D03*
X142250000Y-108000000D03*
X142250000Y-107200000D03*
X142250000Y-106400000D03*
X142250000Y-105600000D03*
X142250000Y-104800000D03*
X142250000Y-104000000D03*
X142250000Y-103200000D03*
D21*
X140800000Y-101750000D03*
X140000000Y-101750000D03*
X139200000Y-101750000D03*
X138400000Y-101750000D03*
X137600000Y-101750000D03*
X136800000Y-101750000D03*
X136000000Y-101750000D03*
X135200000Y-101750000D03*
D22*
X133750000Y-103200000D03*
X133750000Y-104000000D03*
X133750000Y-104800000D03*
X133750000Y-105600000D03*
X133750000Y-106400000D03*
X133750000Y-107200000D03*
X133750000Y-108000000D03*
X133750000Y-108800000D03*
D23*
X144400000Y-120500000D03*
D24*
X141860000Y-120500000D03*
X139320000Y-120500000D03*
X136780000Y-120500000D03*
X134240000Y-120500000D03*
D23*
X132800000Y-98800000D03*
D24*
X135340000Y-98800000D03*
X137880000Y-98800000D03*
X140420000Y-98800000D03*
D16*
X147000000Y-117050000D03*
X147000000Y-118550000D03*
D19*
X131250000Y-103000000D03*
X129750000Y-103000000D03*
X148250000Y-105000000D03*
X146750000Y-105000000D03*
X148250000Y-103250000D03*
X146750000Y-103250000D03*
X148250000Y-101500000D03*
X146750000Y-101500000D03*
X129750000Y-106600000D03*
X131250000Y-106600000D03*
X129750000Y-108300000D03*
X131250000Y-108300000D03*
X152850000Y-100400000D03*
X151350000Y-100400000D03*
X150150000Y-100000000D03*
X148650000Y-100000000D03*
X148250000Y-107100000D03*
X146750000Y-107100000D03*
X148250000Y-108700000D03*
X146750000Y-108700000D03*
X148250000Y-110300000D03*
X146750000Y-110300000D03*
D25*
X161700000Y-113200160D03*
X161700000Y-120799840D03*
D26*
X143649760Y-117749960D03*
X144300000Y-117749960D03*
X144950240Y-117749960D03*
X144950240Y-115850040D03*
X144300000Y-115850040D03*
X143649760Y-115850040D03*
D27*
X143250000Y-111050000D03*
X143250000Y-112000000D03*
X143250000Y-112950000D03*
D28*
X118898840Y-111750000D03*
X114601160Y-111750000D03*
D29*
X115001020Y-121750000D03*
X118998980Y-121750000D03*
D30*
X122239720Y-96500000D03*
X119400000Y-96500000D03*
D31*
X155100000Y-102600000D03*
X155100000Y-100100000D03*
X155100000Y-105100000D03*
X159950000Y-97200000D03*
X159950000Y-108000000D03*
D32*
X158900000Y-105100000D03*
X158900000Y-100100000D03*
D33*
X126000000Y-98800000D03*
D34*
X128540000Y-98800000D03*
D35*
X129400000Y-116500000D03*
X129400000Y-118700000D03*
D16*
X127500000Y-104000000D03*
X127500000Y-105500000D03*
X130500000Y-100050000D03*
X130500000Y-101550000D03*
D12*
X127500000Y-102700000D03*
X127500000Y-101200000D03*
D36*
X154530000Y-111785000D03*
X157070000Y-113055000D03*
X154530000Y-114325000D03*
X157070000Y-115595000D03*
X154530000Y-116865000D03*
X157070000Y-118135000D03*
X154530000Y-119405000D03*
X157070000Y-120675000D03*
X154530000Y-121945000D03*
X157070000Y-123215000D03*
D37*
X156330000Y-110385000D03*
D38*
X115600000Y-108100000D03*
X115600000Y-99300000D03*
M02*
